AnekTamil-Condensed.ufo
<glyph name="exclam" format="2">
  <advance width="359.595"/>
  <unicode hex="0021"/>
  <outline>
    <contour>
      <point x="237.08000000000004" y="377.40999999999997" type="line"/>
      <point x="256.425" y="1278.0" type="line"/>
      <point x="103.17" y="1278.0" type="line"/>
      <point x="122.515" y="377.40999999999997" type="line"/>
    </contour>
    <contour>
      <point x="181.26" y="-16.065" type="curve" smooth="yes"/>
      <point x="235.445" y="-16.065"/>
      <point x="262.285" y="21.56"/>
      <point x="262.285" y="91.605" type="curve" smooth="yes"/>
      <point x="262.285" y="108.39" type="line" smooth="yes"/>
      <point x="262.285" y="177.435"/>
      <point x="235.445" y="215.275"/>
      <point x="181.26" y="215.275" type="curve" smooth="yes"/>
      <point x="124.72" y="215.275"/>
      <point x="100.44999999999999" y="177.435"/>
      <point x="100.44999999999999" y="108.39" type="curve" smooth="yes"/>
      <point x="100.44999999999999" y="91.605" type="line" smooth="yes"/>
      <point x="100.44999999999999" y="21.56"/>
      <point x="124.72" y="-16.065"/>
    </contour>
  </outline>
</glyph>
<glyph name="numbersign" format="2">
  <advance width="831.305"/>
  <unicode hex="0023"/>
  <outline>
    <contour>
      <point x="142.815" y="0.0" type="line"/>
      <point x="257.885" y="0.0" type="line"/>
      <point x="367.155" y="1278.0" type="line"/>
      <point x="252.08499999999998" y="1278.0" type="line"/>
    </contour>
    <contour>
      <point x="44.150000000000006" y="350.115" type="line"/>
      <point x="747.8000000000001" y="350.115" type="line"/>
      <point x="747.8000000000001" y="458.83000000000004" type="line"/>
      <point x="44.150000000000006" y="458.83000000000004" type="line"/>
    </contour>
    <contour>
      <point x="464.93499999999995" y="0.0" type="line"/>
      <point x="580.005" y="0.0" type="line"/>
      <point x="688.49" y="1278.0" type="line"/>
      <point x="573.4200000000001" y="1278.0" type="line"/>
    </contour>
    <contour>
      <point x="85.07499999999999" y="826.245" type="line"/>
      <point x="787.1550000000001" y="826.245" type="line"/>
      <point x="787.1550000000001" y="935.175" type="line"/>
      <point x="85.07499999999999" y="935.175" type="line"/>
    </contour>
  </outline>
</glyph>
<glyph name="dollar" format="2">
  <advance width="601.1449999999999"/>
  <unicode hex="0024"/>
  <anchor x="287.24999999999994" y="0.0" name="bottom"/>
  <anchor x="287.24999999999994" y="1278.0" name="top"/>
  <outline>
    <contour>
      <point x="357.64" y="1216.77" type="line"/>
      <point x="357.64" y="1446.15" type="line"/>
      <point x="230.795" y="1446.15" type="line"/>
      <point x="230.795" y="1216.77" type="line"/>
    </contour>
    <contour>
      <point x="357.64" y="-177.14999999999998" type="line"/>
      <point x="357.64" y="22.634999999999998" type="line"/>
      <point x="230.795" y="22.634999999999998" type="line"/>
      <point x="230.795" y="-177.14999999999998" type="line"/>
    </contour>
    <component base="S"/>
  </outline>
</glyph>
<glyph name="percent" format="2">
  <advance width="1097.88"/>
  <unicode hex="0025"/>
  <outline>
    <contour>
      <point x="233.355" y="0.0" type="line"/>
      <point x="359.415" y="0.0" type="line"/>
      <point x="864.5250000000001" y="1278.0" type="line"/>
      <point x="740.035" y="1278.0" type="line"/>
    </contour>
    <contour>
      <point x="831.255" y="-20.495" type="curve" smooth="yes"/>
      <point x="968.01" y="-20.495"/>
      <point x="1035.4950000000001" y="62.065"/>
      <point x="1035.4950000000001" y="210.185" type="curve" smooth="yes"/>
      <point x="1035.4950000000001" y="398.44" type="line" smooth="yes"/>
      <point x="1035.4950000000001" y="546.775"/>
      <point x="968.0099999999999" y="629.335"/>
      <point x="831.255" y="629.335" type="curve" smooth="yes"/>
      <point x="694.5" y="629.335"/>
      <point x="627.5849999999999" y="546.7750000000001"/>
      <point x="627.5849999999999" y="398.44" type="curve" smooth="yes"/>
      <point x="627.5849999999999" y="210.185" type="line" smooth="yes"/>
      <point x="627.5849999999999" y="62.065"/>
      <point x="694.5" y="-20.495"/>
    </contour>
    <contour>
      <point x="831.255" y="83.72500000000001" type="curve" smooth="yes"/>
      <point x="775.3750000000001" y="83.72500000000001"/>
      <point x="751.29" y="122.595"/>
      <point x="751.29" y="203.69" type="curve" smooth="yes"/>
      <point x="751.29" y="404.365" type="line" smooth="yes"/>
      <point x="751.29" y="486.245"/>
      <point x="775.3750000000001" y="525.115"/>
      <point x="831.255" y="525.115" type="curve" smooth="yes"/>
      <point x="887.135" y="525.115"/>
      <point x="911.005" y="486.245"/>
      <point x="911.005" y="404.365" type="curve" smooth="yes"/>
      <point x="911.005" y="203.69" type="line" smooth="yes"/>
      <point x="911.005" y="122.595"/>
      <point x="887.135" y="83.72500000000001"/>
    </contour>
    <contour>
      <point x="266.84" y="647.0949999999999" type="curve" smooth="yes"/>
      <point x="403.595" y="647.0949999999999"/>
      <point x="470.2950000000001" y="729.655"/>
      <point x="470.2950000000001" y="876.9899999999999" type="curve" smooth="yes"/>
      <point x="470.2950000000001" y="1066.03" type="line" smooth="yes"/>
      <point x="470.2950000000001" y="1212.58"/>
      <point x="403.595" y="1295.1399999999999"/>
      <point x="266.84" y="1295.1399999999999" type="curve" smooth="yes"/>
      <point x="129.3" y="1295.1399999999999"/>
      <point x="62.385000000000005" y="1212.58"/>
      <point x="62.385000000000005" y="1066.03" type="curve" smooth="yes"/>
      <point x="62.385000000000005" y="876.9899999999999" type="line" smooth="yes"/>
      <point x="62.385000000000005" y="729.655"/>
      <point x="129.3" y="647.0949999999999"/>
    </contour>
    <contour>
      <point x="266.84" y="751.1" type="curve" smooth="yes"/>
      <point x="210.95999999999998" y="751.1"/>
      <point x="186.875" y="789.185"/>
      <point x="186.875" y="871.065" type="curve" smooth="yes"/>
      <point x="186.875" y="1071.955" type="line" smooth="yes"/>
      <point x="186.875" y="1152.835"/>
      <point x="210.95999999999998" y="1191.92"/>
      <point x="266.84" y="1191.92" type="curve" smooth="yes"/>
      <point x="321.935" y="1191.92"/>
      <point x="345.805" y="1152.835"/>
      <point x="345.805" y="1071.955" type="curve" smooth="yes"/>
      <point x="345.805" y="871.065" type="line" smooth="yes"/>
      <point x="345.805" y="789.185"/>
      <point x="321.935" y="751.1"/>
    </contour>
  </outline>
</glyph>
<glyph name="ampersand" format="2">
  <advance width="810.795"/>
  <unicode hex="0026"/>
  <outline>
    <contour>
      <point x="678.0350000000001" y="0.0" type="curve"/>
      <point x="828.5799999999999" y="0.0" type="line"/>
      <point x="828.5799999999999" y="9.065" type="line"/>
      <point x="772.32" y="102.595"/>
      <point x="676.17" y="254.475"/>
      <point x="621.19" y="342.445" type="curve"/>
      <point x="595.275" y="383.995" type="line"/>
      <point x="337.04" y="785.27" type="line" smooth="yes"/>
      <point x="282.115" y="870.27"/>
      <point x="263.9" y="926.99"/>
      <point x="263.9" y="1000.6550000000001" type="curve" smooth="yes"/>
      <point x="263.9" y="1008.8050000000001" type="line" smooth="yes"/>
      <point x="263.9" y="1099.715"/>
      <point x="305.115" y="1158.09"/>
      <point x="400.275" y="1158.09" type="curve" smooth="yes"/>
      <point x="469.48999999999995" y="1158.09"/>
      <point x="522.06" y="1133.23"/>
      <point x="566.92" y="1100.6499999999999" type="curve"/>
      <point x="557.78" y="1239.99" type="line"/>
      <point x="516.855" y="1271.28"/>
      <point x="453.435" y="1296.1399999999999"/>
      <point x="370.0899999999999" y="1296.1399999999999" type="curve" smooth="yes"/>
      <point x="202.615" y="1296.1399999999999"/>
      <point x="113.42999999999999" y="1189.365"/>
      <point x="113.42999999999999" y="1013.515" type="curve" smooth="yes"/>
      <point x="113.42999999999999" y="1004.795" type="line" smooth="yes"/>
      <point x="113.42999999999999" y="896.3000000000001"/>
      <point x="146.42000000000002" y="821.3"/>
      <point x="209.41" y="727.0949999999999" type="curve"/>
      <point x="235.89499999999998" y="686.76" type="line"/>
      <point x="525.895" y="245.15" type="line"/>
      <point x="540.035" y="223.79500000000002" type="line"/>
      <point x="564.38" y="186.95499999999998"/>
      <point x="652.1200000000001" y="41.765"/>
    </contour>
    <contour>
      <point x="334.67" y="-18.14" type="curve" smooth="yes"/>
      <point x="500.705" y="-18.14"/>
      <point x="566.06" y="62.57999999999999"/>
      <point x="624.6099999999999" y="220.17" type="curve"/>
      <point x="651.16" y="262.495" type="line"/>
      <point x="708.345" y="405.20500000000004"/>
      <point x="737.4100000000001" y="599.485"/>
      <point x="745.6250000000001" y="830.57" type="curve"/>
      <point x="599.2950000000001" y="830.57" type="line"/>
      <point x="593.22" y="641.0450000000001"/>
      <point x="582.36" y="491.305"/>
      <point x="554.2950000000001" y="365.51" type="curve"/>
      <point x="526.53" y="298.195" type="line"/>
      <point x="490.39000000000004" y="177.35999999999999"/>
      <point x="441.53" y="110.49"/>
      <point x="348.22999999999996" y="110.49" type="curve" smooth="yes"/>
      <point x="255.425" y="110.49"/>
      <point x="210.845" y="172.07"/>
      <point x="210.845" y="302.66999999999996" type="curve" smooth="yes"/>
      <point x="210.845" y="445.085" type="line" smooth="yes"/>
      <point x="210.845" y="540.105"/>
      <point x="227.28500000000003" y="597.985"/>
      <point x="288.23" y="649.2099999999999" type="curve"/>
      <point x="210.495" y="757.925" type="line"/>
      <point x="98.64500000000001" y="673.5699999999999"/>
      <point x="62.73" y="575.635"/>
      <point x="62.73" y="431.66499999999996" type="curve" smooth="yes"/>
      <point x="62.73" y="296.39" type="line" smooth="yes"/>
      <point x="62.73" y="89.69999999999999"/>
      <point x="148.14000000000001" y="-18.14"/>
    </contour>
  </outline>
</glyph>
<glyph name="quotesingle" format="2">
  <advance width="272.295"/>
  <unicode hex="0027"/>
  <outline>
    <contour>
      <point x="193.92999999999998" y="882.32" type="line"/>
      <point x="207.565" y="1330.075" type="line"/>
      <point x="64.73" y="1330.075" type="line"/>
      <point x="79.14999999999999" y="882.32" type="line"/>
    </contour>
  </outline>
</glyph>
<glyph name="parenleft" format="2">
  <advance width="409.86499999999995"/>
  <unicode hex="0028"/>
  <outline>
    <contour>
      <point x="236.71499999999997" y="669.6850000000001" type="line" smooth="yes"/>
      <point x="236.71499999999997" y="965.675"/>
      <point x="272.2" y="1151.2250000000001"/>
      <point x="387.13499999999993" y="1352.0" type="curve"/>
      <point x="241.085" y="1352.0" type="line"/>
      <point x="135.15" y="1170.075"/>
      <point x="98.23500000000001" y="984.6"/>
      <point x="98.23500000000001" y="676.255" type="curve" smooth="yes"/>
      <point x="98.23500000000001" y="434.745" type="line" smooth="yes"/>
      <point x="98.23500000000001" y="127.4"/>
      <point x="135.15" y="-58.29"/>
      <point x="241.085" y="-240.215" type="curve"/>
      <point x="387.13499999999993" y="-240.215" type="line"/>
      <point x="272.2" y="-41.01"/>
      <point x="236.71499999999997" y="144.54"/>
      <point x="236.71499999999997" y="442.315" type="curve" smooth="yes"/>
    </contour>
  </outline>
</glyph>
<glyph name="parenright" format="2">
  <advance width="409.865"/>
  <unicode hex="0029"/>
  <outline>
    <contour>
      <point x="173.14999999999998" y="669.6850000000001" type="curve" smooth="yes"/>
      <point x="173.14999999999998" y="442.315" type="line" smooth="yes"/>
      <point x="173.14999999999998" y="144.54"/>
      <point x="137.665" y="-41.01"/>
      <point x="22.73" y="-240.215" type="curve"/>
      <point x="168.78" y="-240.215" type="line"/>
      <point x="274.715" y="-58.29"/>
      <point x="311.63" y="127.4"/>
      <point x="311.63" y="434.745" type="curve" smooth="yes"/>
      <point x="311.63" y="676.255" type="line" smooth="yes"/>
      <point x="311.63" y="984.6"/>
      <point x="274.715" y="1170.075"/>
      <point x="168.78" y="1352.0" type="curve"/>
      <point x="22.73" y="1352.0" type="line"/>
      <point x="137.665" y="1151.2250000000001"/>
      <point x="173.14999999999998" y="965.675"/>
    </contour>
  </outline>
</glyph>
<glyph name="asterisk" format="2">
  <advance width="622.195"/>
  <unicode hex="002A"/>
  <outline>
    <contour>
      <point x="194.11" y="724.115" type="line"/>
      <point x="309.065" y="907.005" type="line"/>
      <point x="311.34499999999997" y="907.005" type="line"/>
      <point x="426.3" y="724.115" type="line"/>
      <point x="526.0250000000001" y="786.505" type="line"/>
      <point x="392.005" y="964.255" type="line"/>
      <point x="391.93" y="965.46" type="line"/>
      <point x="581.1850000000001" y="1011.62" type="line"/>
      <point x="554.6999999999999" y="1126.905" type="line"/>
      <point x="361.165" y="1061.325" type="line"/>
      <point x="361.315" y="1061.3899999999999" type="line"/>
      <point x="373.95" y="1278.0" type="line"/>
      <point x="248.24500000000003" y="1278.0" type="line"/>
      <point x="259.88" y="1061.3899999999999" type="line"/>
      <point x="260.03" y="1061.325" type="line"/>
      <point x="66.495" y="1126.905" type="line"/>
      <point x="41.010000000000005" y="1011.62" type="line"/>
      <point x="229.26500000000001" y="965.46" type="line"/>
      <point x="229.405" y="964.255" type="line"/>
      <point x="95.17" y="786.505" type="line"/>
    </contour>
  </outline>
</glyph>
<glyph name="plus" format="2">
  <advance width="656.67"/>
  <unicode hex="002B"/>
  <outline>
    <contour>
      <point x="391.08000000000004" y="310.93499999999995" type="line"/>
      <point x="391.08000000000004" y="962.065" type="line"/>
      <point x="265.80499999999995" y="962.065" type="line"/>
      <point x="265.80499999999995" y="310.93499999999995" type="line"/>
    </contour>
    <contour>
      <point x="57.86" y="576.04" type="line"/>
      <point x="598.81" y="576.04" type="line"/>
      <point x="598.81" y="696.9599999999999" type="line"/>
      <point x="57.86" y="696.9599999999999" type="line"/>
    </contour>
  </outline>
</glyph>
<glyph name="comma" format="2">
  <advance width="291.28499999999997"/>
  <unicode hex="002C"/>
  <outline>
    <contour>
      <point x="216.06" y="261.735" type="curve"/>
      <point x="77.795" y="261.735" type="line"/>
      <point x="82.01" y="219.23999999999998"/>
      <point x="84.44000000000001" y="180.02499999999998"/>
      <point x="84.44000000000001" y="137.1" type="curve" smooth="yes"/>
      <point x="84.44000000000001" y="-0.1049999999999992"/>
      <point x="52.655" y="-110.46000000000001"/>
      <point x="0.22500000000000114" y="-206.385" type="curve"/>
      <point x="98.51" y="-244.16000000000003" type="line"/>
      <point x="187.995" y="-127.52500000000002"/>
      <point x="225.05999999999997" y="-3.5349999999999993"/>
      <point x="225.05999999999997" y="142.595" type="curve" smooth="yes"/>
      <point x="225.05999999999997" y="191.02499999999998"/>
      <point x="219.84499999999997" y="235.885"/>
    </contour>
  </outline>
</glyph>
<glyph name="hyphen" format="2">
  <advance width="574.29"/>
  <unicode hex="002D"/>
  <outline>
    <contour>
      <point x="92.16" y="460.555" type="line"/>
      <point x="482.12999999999994" y="460.555" type="line"/>
      <point x="482.12999999999994" y="583.045" type="line"/>
      <point x="92.16" y="583.045" type="line"/>
    </contour>
  </outline>
</glyph>
<glyph name="period" format="2">
  <advance width="275.855"/>
  <unicode hex="002E"/>
  <outline>
    <contour>
      <point x="137.82" y="-16.065" type="curve" smooth="yes"/>
      <point x="192.005" y="-16.065"/>
      <point x="218.845" y="21.56"/>
      <point x="218.845" y="91.605" type="curve" smooth="yes"/>
      <point x="218.845" y="108.82000000000001" type="line" smooth="yes"/>
      <point x="218.845" y="177.865"/>
      <point x="192.005" y="215.705"/>
      <point x="137.82" y="215.705" type="curve" smooth="yes"/>
      <point x="81.28" y="215.705"/>
      <point x="57.010000000000005" y="177.865"/>
      <point x="57.010000000000005" y="108.82000000000001" type="curve" smooth="yes"/>
      <point x="57.010000000000005" y="91.605" type="line" smooth="yes"/>
      <point x="57.010000000000005" y="21.56"/>
      <point x="81.28" y="-16.065"/>
    </contour>
  </outline>
</glyph>
<glyph name="slash" format="2">
  <advance width="520.725"/>
  <unicode hex="002F"/>
  <outline>
    <contour>
      <point x="30.375000000000004" y="-240.215" type="line"/>
      <point x="163.715" y="-240.215" type="line"/>
      <point x="490.35" y="1352.0" type="line"/>
      <point x="357.79499999999996" y="1352.0" type="line"/>
    </contour>
  </outline>
</glyph>
<glyph name="zero" format="2">
  <advance width="731.04"/>
  <unicode hex="0030"/>
  <outline>
    <contour>
      <point x="365.52" y="-18.14" type="curve" smooth="yes"/>
      <point x="554.1899999999999" y="-18.14"/>
      <point x="647.095" y="94.62500000000001"/>
      <point x="647.095" y="316.58500000000004" type="curve"/>
      <point x="647.095" y="961.2" type="line"/>
      <point x="647.095" y="1183.375"/>
      <point x="554.1899999999999" y="1296.1399999999999"/>
      <point x="365.52" y="1296.1399999999999" type="curve" smooth="yes"/>
      <point x="176.065" y="1296.1399999999999"/>
      <point x="83.94500000000001" y="1183.375"/>
      <point x="83.94500000000001" y="961.2" type="curve"/>
      <point x="83.94500000000001" y="316.58500000000004" type="line"/>
      <point x="83.94500000000001" y="94.62500000000001"/>
      <point x="176.06500000000003" y="-18.14"/>
    </contour>
    <contour>
      <point x="365.52" y="108.70500000000001" type="curve" smooth="yes"/>
      <point x="273.28499999999997" y="108.70500000000001"/>
      <point x="233.415" y="172.79000000000002"/>
      <point x="233.415" y="305.165" type="curve" smooth="yes"/>
      <point x="233.415" y="973.6199999999999" type="line" smooth="yes"/>
      <point x="233.415" y="1105.21"/>
      <point x="273.285" y="1170.08"/>
      <point x="365.52" y="1170.08" type="curve" smooth="yes"/>
      <point x="457.75499999999994" y="1170.08"/>
      <point x="497.62499999999994" y="1105.21"/>
      <point x="497.62499999999994" y="973.6199999999999" type="curve" smooth="yes"/>
      <point x="497.62499999999994" y="305.165" type="line" smooth="yes"/>
      <point x="497.62499999999994" y="172.79000000000002"/>
      <point x="457.75499999999994" y="108.70500000000001"/>
    </contour>
  </outline>
</glyph>
<glyph name="one" format="2">
  <advance width="480.36"/>
  <unicode hex="0031"/>
  <outline>
    <contour>
      <point x="233.29999999999998" y="0.0" type="line"/>
      <point x="380.41499999999996" y="0.0" type="line"/>
      <point x="380.41499999999996" y="1278.0" type="line"/>
      <point x="235.345" y="1278.0" type="line"/>
      <point x="24.075000000000003" y="1094.615" type="line"/>
      <point x="24.074999999999996" y="932.36" type="line"/>
      <point x="221.94499999999996" y="1105.27" type="line"/>
      <point x="233.29999999999998" y="1105.27" type="line"/>
    </contour>
  </outline>
</glyph>
<glyph name="two" format="2">
  <advance width="573.135"/>
  <unicode hex="0032"/>
  <outline>
    <contour>
      <point x="43.72" y="0.0" type="line"/>
      <point x="520.91" y="0.0" type="line"/>
      <point x="520.91" y="132.91" type="line"/>
      <point x="127.735" y="132.91" type="line"/>
      <point x="190.97500000000002" y="104.63" type="line"/>
      <point x="190.97500000000002" y="140.48000000000002" type="line"/>
      <point x="341.19999999999993" y="439.83" type="line" smooth="yes"/>
      <point x="451.63" y="659.72"/>
      <point x="513.265" y="781.5799999999999"/>
      <point x="513.265" y="946.3000000000001" type="curve" smooth="yes"/>
      <point x="513.265" y="985.105" type="line" smooth="yes"/>
      <point x="513.265" y="1179.73"/>
      <point x="430.92999999999995" y="1295.355"/>
      <point x="252.97" y="1295.355" type="curve" smooth="yes"/>
      <point x="168.195" y="1295.355"/>
      <point x="100.41999999999999" y="1263.71"/>
      <point x="60.355" y="1232.925" type="curve"/>
      <point x="49.644999999999996" y="1092.8" type="line"/>
      <point x="98.075" y="1129.09"/>
      <point x="150.78500000000003" y="1158.875"/>
      <point x="221.35499999999996" y="1158.875" type="curve" smooth="yes"/>
      <point x="320.15" y="1158.875"/>
      <point x="364.58000000000004" y="1093.145"/>
      <point x="364.58000000000004" y="969.405" type="curve" smooth="yes"/>
      <point x="364.58000000000004" y="928.8149999999999" type="line" smooth="yes"/>
      <point x="364.58000000000004" y="811.57"/>
      <point x="327.14000000000004" y="710.26"/>
      <point x="228.13" y="512.135" type="curve" smooth="yes"/>
      <point x="43.72" y="146.97500000000002" type="line"/>
    </contour>
  </outline>
</glyph>
<glyph name="three" format="2">
  <advance width="586.855"/>
  <unicode hex="0033"/>
  <outline>
    <contour>
      <point x="247.18500000000003" y="-17.355" type="curve" smooth="yes"/>
      <point x="442.35999999999996" y="-17.355"/>
      <point x="524.125" y="101.91499999999999"/>
      <point x="524.125" y="292.97" type="curve" smooth="yes"/>
      <point x="524.125" y="405.935" type="line" smooth="yes"/>
      <point x="524.125" y="547.01"/>
      <point x="475.55500000000006" y="640.16"/>
      <point x="334.69500000000005" y="663.15" type="curve"/>
      <point x="340.19000000000005" y="648.59" type="line"/>
      <point x="340.19" y="668.5699999999999" type="line"/>
      <point x="468.06000000000006" y="690.7"/>
      <point x="518.125" y="783.71"/>
      <point x="518.125" y="918.71" type="curve" smooth="yes"/>
      <point x="518.125" y="1002.9449999999999" type="line" smooth="yes"/>
      <point x="518.125" y="1187.935"/>
      <point x="443.14500000000004" y="1296.14"/>
      <point x="260.82" y="1296.14" type="curve" smooth="yes"/>
      <point x="169.98000000000002" y="1296.14"/>
      <point x="101.205" y="1268.14"/>
      <point x="55.355000000000004" y="1235.2800000000002" type="curve"/>
      <point x="44.645" y="1099.2949999999998" type="line"/>
      <point x="95.215" y="1131.875"/>
      <point x="155.495" y="1160.66"/>
      <point x="226.28" y="1160.66" type="curve" smooth="yes"/>
      <point x="332.365" y="1160.66"/>
      <point x="370.225" y="1094.145"/>
      <point x="370.225" y="972.3299999999999" type="curve" smooth="yes"/>
      <point x="370.225" y="908.29" type="line" smooth="yes"/>
      <point x="370.225" y="790.195"/>
      <point x="324.58" y="726.8199999999999"/>
      <point x="198.20499999999998" y="722.0350000000001" type="curve" smooth="yes"/>
      <point x="123.635" y="719.25" type="line"/>
      <point x="123.635" y="592.91" type="line"/>
      <point x="196.98999999999998" y="590.125" type="line" smooth="yes"/>
      <point x="323.075" y="585.3399999999999"/>
      <point x="374.655" y="531.47"/>
      <point x="374.655" y="401.22499999999997" type="curve" smooth="yes"/>
      <point x="374.655" y="308.67" type="line" smooth="yes"/>
      <point x="374.655" y="186.285"/>
      <point x="334.28999999999996" y="119.695"/>
      <point x="221.28" y="119.695" type="curve" smooth="yes"/>
      <point x="149.28" y="119.695"/>
      <point x="90.00000000000001" y="147.695"/>
      <point x="36.075" y="185.76999999999998" type="curve"/>
      <point x="46.785000000000004" y="41.504999999999995" type="line"/>
      <point x="89.63499999999999" y="11.075000000000001"/>
      <point x="162.98" y="-17.355"/>
    </contour>
  </outline>
</glyph>
<glyph name="four" format="2">
  <advance width="671.9649999999999"/>
  <unicode hex="0034"/>
  <outline>
    <contour>
      <point x="402.76500000000004" y="0.0" type="line"/>
      <point x="542.03" y="0.0" type="line"/>
      <point x="542.03" y="1278.0" type="line"/>
      <point x="291.825" y="1278.0" type="line"/>
      <point x="36.0" y="370.575" type="line"/>
      <point x="36.0" y="225.525" type="line"/>
      <point x="645.18" y="225.525" type="line"/>
      <point x="645.18" y="354.51" type="line"/>
      <point x="108.24000000000001" y="354.51" type="line"/>
      <point x="171.91" y="308.605" type="line"/>
      <point x="171.91" y="363.865" type="line"/>
      <point x="390.83" y="1170.425" type="line"/>
      <point x="410.26000000000005" y="1170.425" type="line"/>
      <point x="402.76500000000004" y="861.045" type="line"/>
    </contour>
  </outline>
</glyph>
<glyph name="five" format="2">
  <advance width="641.49"/>
  <unicode hex="0035"/>
  <outline>
    <contour>
      <point x="291.335" y="-19.215" type="curve" smooth="yes"/>
      <point x="490.35" y="-19.215"/>
      <point x="570.545" y="97.55000000000001"/>
      <point x="570.545" y="312.51" type="curve" smooth="yes"/>
      <point x="570.545" y="512.72" type="line" smooth="yes"/>
      <point x="570.545" y="697.6999999999999"/>
      <point x="515.9" y="806.9050000000001"/>
      <point x="387.48" y="806.9050000000001" type="curve" smooth="yes"/>
      <point x="294.695" y="806.9050000000001"/>
      <point x="248.61999999999998" y="757.755"/>
      <point x="226.69500000000002" y="679.54" type="curve"/>
      <point x="220.27500000000003" y="678.465" type="line"/>
      <point x="224.27500000000003" y="854.6149999999999" type="line"/>
      <point x="224.27500000000003" y="1145.09" type="line"/>
      <point x="547.415" y="1145.09" type="line"/>
      <point x="547.415" y="1278.0" type="line"/>
      <point x="81.29999999999998" y="1278.0" type="line"/>
      <point x="81.29999999999998" y="569.61" type="line"/>
      <point x="218.70499999999998" y="556.19" type="line"/>
      <point x="234.50000000000003" y="635.77"/>
      <point x="262.15500000000003" y="681.06"/>
      <point x="325.315" y="681.06" type="curve" smooth="yes"/>
      <point x="398.34499999999997" y="681.06"/>
      <point x="422.64500000000004" y="616.965"/>
      <point x="422.64500000000004" y="507.71999999999997" type="curve" smooth="yes"/>
      <point x="422.64500000000004" y="313.295" type="line" smooth="yes"/>
      <point x="422.64500000000004" y="181.35"/>
      <point x="378.57" y="116.265"/>
      <point x="269.355" y="116.265" type="curve" smooth="yes"/>
      <point x="193.86" y="116.265"/>
      <point x="130.44" y="146.265"/>
      <point x="76.30000000000001" y="184.125" type="curve"/>
      <point x="87.00999999999999" y="39.86" type="line"/>
      <point x="129.0" y="11.644999999999998"/>
      <point x="198.63500000000002" y="-19.215"/>
    </contour>
  </outline>
</glyph>
<glyph name="six" format="2">
  <advance width="690.05"/>
  <unicode hex="0036"/>
  <outline>
    <contour>
      <point x="352.4549999999999" y="-20.0" type="curve" smooth="yes"/>
      <point x="534.77" y="-20.0"/>
      <point x="622.3199999999999" y="88.055"/>
      <point x="622.3199999999999" y="299.025" type="curve" smooth="yes"/>
      <point x="622.3199999999999" y="503.655" type="line" smooth="yes"/>
      <point x="622.3199999999999" y="701.205"/>
      <point x="559.89" y="813.9799999999999"/>
      <point x="417.05" y="813.9799999999999" type="curve" smooth="yes"/>
      <point x="302.33" y="813.9799999999999"/>
      <point x="247.53500000000003" y="747.605"/>
      <point x="231.62000000000003" y="649.705" type="curve"/>
      <point x="198.565" y="649.705" type="line"/>
      <point x="224.49" y="537.43" type="line"/>
      <point x="238.275" y="627.5550000000001"/>
      <point x="282.715" y="688.92"/>
      <point x="358.66999999999996" y="688.92" type="curve" smooth="yes"/>
      <point x="444.4750000000001" y="688.92"/>
      <point x="477.56" y="621.255"/>
      <point x="477.56" y="495.515" type="curve" smooth="yes"/>
      <point x="477.56" y="295.24" type="line" smooth="yes"/>
      <point x="477.56" y="168.36"/>
      <point x="441.47499999999997" y="106.63000000000001"/>
      <point x="353.24000000000007" y="106.63000000000001" type="curve" smooth="yes"/>
      <point x="264.21999999999997" y="106.63000000000001"/>
      <point x="227.135" y="168.36"/>
      <point x="227.135" y="295.24" type="curve"/>
      <point x="227.135" y="924.22" type="line" smooth="yes"/>
      <point x="227.135" y="1081.435"/>
      <point x="279.275" y="1158.875"/>
      <point x="410.05999999999995" y="1158.875" type="curve" smooth="yes"/>
      <point x="485.12499999999994" y="1158.875"/>
      <point x="540.835" y="1132.23"/>
      <point x="588.835" y="1098.295" type="curve"/>
      <point x="576.77" y="1235.28" type="line"/>
      <point x="536.275" y="1263.925"/>
      <point x="468.14500000000004" y="1294.57"/>
      <point x="377.09" y="1294.57" type="curve" smooth="yes"/>
      <point x="176.98999999999998" y="1294.57"/>
      <point x="82.375" y="1166.45"/>
      <point x="82.375" y="933.64" type="curve" smooth="yes"/>
      <point x="82.375" y="302.95" type="line" smooth="yes"/>
      <point x="82.375" y="88.055"/>
      <point x="170.925" y="-20.0"/>
    </contour>
  </outline>
</glyph>
<glyph name="seven" format="2">
  <advance width="560.1999999999999"/>
  <unicode hex="0037"/>
  <outline>
    <contour>
      <point x="108.085" y="0.0" type="line"/>
      <point x="260.34" y="0.0" type="line"/>
      <point x="523.415" y="1140.81" type="line"/>
      <point x="523.415" y="1278.0" type="line"/>
      <point x="34.075" y="1278.0" type="line"/>
      <point x="34.075" y="1144.305" type="line"/>
      <point x="373.94499999999994" y="1144.305" type="line"/>
    </contour>
  </outline>
</glyph>
<glyph name="eight" format="2">
  <advance width="691.8349999999999"/>
  <unicode hex="0038"/>
  <outline>
    <contour>
      <point x="345.81" y="-21.57" type="curve" smooth="yes"/>
      <point x="540.265" y="-21.57"/>
      <point x="627.105" y="89.13"/>
      <point x="627.105" y="288.83" type="curve" smooth="yes"/>
      <point x="627.105" y="392.08500000000004" type="line" smooth="yes"/>
      <point x="627.105" y="539.02"/>
      <point x="577.5350000000001" y="635.73"/>
      <point x="450.81500000000005" y="665.2149999999999" type="curve"/>
      <point x="450.81500000000005" y="669.28" type="line"/>
      <point x="569.75" y="696.98"/>
      <point x="616.89" y="786.335"/>
      <point x="616.89" y="920.4200000000001" type="curve" smooth="yes"/>
      <point x="616.89" y="1001.235" type="line" smooth="yes"/>
      <point x="616.89" y="1191.58"/>
      <point x="534.62" y="1296.925"/>
      <point x="345.81" y="1296.925" type="curve" smooth="yes"/>
      <point x="157.785" y="1296.925"/>
      <point x="74.945" y="1191.58"/>
      <point x="74.945" y="1001.235" type="curve" smooth="yes"/>
      <point x="74.945" y="920.4200000000001" type="line" smooth="yes"/>
      <point x="74.945" y="784.765"/>
      <point x="122.085" y="696.195"/>
      <point x="241.01999999999998" y="669.28" type="curve"/>
      <point x="241.01999999999998" y="665.2149999999999" type="line"/>
      <point x="114.29999999999998" y="635.73"/>
      <point x="64.72999999999999" y="539.02"/>
      <point x="64.72999999999999" y="392.08500000000004" type="curve" smooth="yes"/>
      <point x="64.72999999999999" y="288.83" type="line" smooth="yes"/>
      <point x="64.72999999999999" y="89.13"/>
      <point x="151.57" y="-21.57"/>
    </contour>
    <contour>
      <point x="345.81" y="105.05999999999999" type="curve" smooth="yes"/>
      <point x="251.145" y="105.05999999999999"/>
      <point x="210.84500000000003" y="169.22"/>
      <point x="210.84500000000003" y="290.54" type="curve" smooth="yes"/>
      <point x="210.84500000000003" y="400.01" type="line" smooth="yes"/>
      <point x="210.84500000000003" y="517.115"/>
      <point x="252.71500000000003" y="572.995"/>
      <point x="345.81" y="594.19" type="curve"/>
      <point x="437.54999999999995" y="573.78"/>
      <point x="480.775" y="517.9"/>
      <point x="480.775" y="400.01" type="curve" smooth="yes"/>
      <point x="480.775" y="290.54" type="line" smooth="yes"/>
      <point x="480.775" y="169.22"/>
      <point x="440.69" y="105.05999999999999"/>
    </contour>
    <contour>
      <point x="345.81000000000006" y="720.6800000000001" type="curve"/>
      <point x="259.71500000000003" y="742.66"/>
      <point x="221.27500000000003" y="796.1099999999999"/>
      <point x="221.27500000000003" y="910.14" type="curve" smooth="yes"/>
      <point x="221.27500000000003" y="994.245" type="line" smooth="yes"/>
      <point x="221.27500000000003" y="1110.9199999999998"/>
      <point x="258.145" y="1171.865"/>
      <point x="345.81" y="1171.865" type="curve" smooth="yes"/>
      <point x="434.47499999999997" y="1171.865"/>
      <point x="470.55999999999995" y="1110.9199999999998"/>
      <point x="470.55999999999995" y="994.245" type="curve" smooth="yes"/>
      <point x="470.55999999999995" y="910.14" type="line" smooth="yes"/>
      <point x="470.55999999999995" y="796.895"/>
      <point x="431.335" y="740.305"/>
    </contour>
  </outline>
</glyph>
<glyph name="nine" format="2">
  <advance width="690.0500000000001"/>
  <unicode hex="0039"/>
  <outline>
    <contour>
      <point x="337.81000000000006" y="1294.5700000000002" type="curve" smooth="yes"/>
      <point x="155.495" y="1294.5700000000002"/>
      <point x="67.73" y="1186.515"/>
      <point x="67.73" y="975.3299999999999" type="curve" smooth="yes"/>
      <point x="67.73" y="767.775" type="line" smooth="yes"/>
      <point x="67.73" y="572.7950000000001"/>
      <point x="129.94500000000002" y="460.59"/>
      <point x="273.43" y="460.59" type="curve" smooth="yes"/>
      <point x="389.43999999999994" y="460.59"/>
      <point x="443.16" y="528.255"/>
      <point x="459.2900000000001" y="627.66" type="curve"/>
      <point x="492.34499999999997" y="627.66" type="line"/>
      <point x="466.41999999999996" y="738.365" type="line"/>
      <point x="452.20500000000004" y="647.09"/>
      <point x="408.625" y="585.65"/>
      <point x="331.81" y="585.65" type="curve" smooth="yes"/>
      <point x="245.57500000000002" y="585.65"/>
      <point x="212.49" y="652.53"/>
      <point x="212.49" y="778.13" type="curve" smooth="yes"/>
      <point x="212.49" y="979.3299999999999" type="line" smooth="yes"/>
      <point x="212.49" y="1106.2099999999998"/>
      <point x="248.575" y="1167.94"/>
      <point x="337.02500000000003" y="1167.94" type="curve" smooth="yes"/>
      <point x="425.83000000000004" y="1167.94"/>
      <point x="462.915" y="1106.21"/>
      <point x="462.915" y="979.33" type="curve"/>
      <point x="462.915" y="351.425" type="line" smooth="yes"/>
      <point x="462.915" y="192.06"/>
      <point x="410.91499999999996" y="115.48"/>
      <point x="284.625" y="115.48" type="curve" smooth="yes"/>
      <point x="209.35499999999996" y="115.48"/>
      <point x="150.0" y="140.835"/>
      <point x="101.215" y="173.69500000000002" type="curve"/>
      <point x="113.28" y="31.215000000000003" type="line"/>
      <point x="153.345" y="5.215"/>
      <point x="221.905" y="-20.0"/>
      <point x="312.1" y="-20.0" type="curve" smooth="yes"/>
      <point x="512.845" y="-20.0"/>
      <point x="607.6750000000001" y="107.26"/>
      <point x="607.6750000000001" y="342.005" type="curve" smooth="yes"/>
      <point x="607.6750000000001" y="971.405" type="line" smooth="yes"/>
      <point x="607.6750000000001" y="1186.515"/>
      <point x="519.125" y="1294.5700000000002"/>
    </contour>
  </outline>
</glyph>
<glyph name="less" format="2">
  <advance width="685.6149999999999"/>
  <unicode hex="003C"/>
  <outline>
    <contour>
      <point x="160.07999999999998" y="643.785" type="line"/>
      <point x="598.81" y="766.18" type="line"/>
      <point x="598.81" y="890.67" type="line"/>
      <point x="57.86" y="732.155" type="line"/>
      <point x="57.86" y="541.6299999999999" type="line"/>
      <point x="598.81" y="383.115" type="line"/>
      <point x="598.81" y="507.605" type="line"/>
      <point x="160.07999999999998" y="630.0" type="line"/>
    </contour>
  </outline>
</glyph>
<glyph name="equal" format="2">
  <advance width="686.185"/>
  <unicode hex="003D"/>
  <outline>
    <contour>
      <point x="72.225" y="417.61" type="line"/>
      <point x="613.96" y="417.61" type="line"/>
      <point x="613.96" y="540.1" type="line"/>
      <point x="72.225" y="540.1" type="line"/>
    </contour>
    <contour>
      <point x="72.225" y="732.9" type="line"/>
      <point x="613.96" y="732.9" type="line"/>
      <point x="613.96" y="855.39" type="line"/>
      <point x="72.225" y="855.39" type="line"/>
    </contour>
  </outline>
</glyph>
<glyph name="greater" format="2">
  <advance width="685.6149999999999"/>
  <unicode hex="003E"/>
  <outline>
    <contour>
      <point x="525.5350000000001" y="643.785" type="line"/>
      <point x="525.5350000000001" y="630.0" type="line"/>
      <point x="86.805" y="507.605" type="line"/>
      <point x="86.805" y="383.115" type="line"/>
      <point x="627.7550000000001" y="541.6299999999999" type="line"/>
      <point x="627.7550000000001" y="732.155" type="line"/>
      <point x="86.805" y="890.67" type="line"/>
      <point x="86.805" y="766.18" type="line"/>
    </contour>
  </outline>
</glyph>
<glyph name="question" format="2">
  <advance width="505.66"/>
  <unicode hex="003F"/>
  <outline>
    <contour>
      <point x="121.02000000000001" y="359.96999999999997" type="line"/>
      <point x="250.21999999999997" y="359.96999999999997" type="line"/>
      <point x="250.21999999999997" y="605.85" type="line"/>
      <point x="141.44000000000003" y="551.655" type="line"/>
      <point x="205.55" y="563.6550000000001" type="line"/>
      <point x="384.52000000000004" y="611.74"/>
      <point x="439.42499999999995" y="697.4499999999999"/>
      <point x="439.42499999999995" y="872.86" type="curve" smooth="yes"/>
      <point x="439.42499999999995" y="1012.03" type="line" smooth="yes"/>
      <point x="439.42499999999995" y="1194.3"/>
      <point x="373.37" y="1296.14"/>
      <point x="217.755" y="1296.14" type="curve" smooth="yes"/>
      <point x="146.625" y="1296.14"/>
      <point x="85.20500000000001" y="1272.14"/>
      <point x="45.57000000000001" y="1247.355" type="curve"/>
      <point x="30.15" y="1120.435" type="line"/>
      <point x="73.15" y="1147.295"/>
      <point x="116.365" y="1166.155"/>
      <point x="170.655" y="1166.155" type="curve" smooth="yes"/>
      <point x="261.805" y="1166.155"/>
      <point x="295.665" y="1108.36"/>
      <point x="295.665" y="989.62" type="curve" smooth="yes"/>
      <point x="295.665" y="869.075" type="line" smooth="yes"/>
      <point x="295.665" y="750.915"/>
      <point x="267.88" y="686.905"/>
      <point x="150.02" y="650.25" type="curve" smooth="yes"/>
      <point x="121.02000000000001" y="641.39" type="line"/>
    </contour>
    <contour>
      <point x="184.33499999999998" y="-16.85" type="curve" smooth="yes"/>
      <point x="238.52" y="-16.85"/>
      <point x="265.36" y="20.775"/>
      <point x="265.36" y="90.82000000000001" type="curve" smooth="yes"/>
      <point x="265.36" y="107.605" type="line" smooth="yes"/>
      <point x="265.36" y="176.65"/>
      <point x="238.52" y="214.49"/>
      <point x="184.33499999999998" y="214.49" type="curve" smooth="yes"/>
      <point x="127.79499999999999" y="214.49"/>
      <point x="103.525" y="176.65"/>
      <point x="103.525" y="107.605" type="curve" smooth="yes"/>
      <point x="103.525" y="90.82000000000001" type="line" smooth="yes"/>
      <point x="103.525" y="20.775"/>
      <point x="127.79499999999999" y="-16.85"/>
    </contour>
  </outline>
</glyph>
<glyph name="at" format="2">
  <advance width="1248.525"/>
  <unicode hex="0040"/>
  <outline>
    <contour>
      <point x="528.485" y="69.29" type="curve" smooth="yes"/>
      <point x="624.41" y="69.29"/>
      <point x="670.6999999999999" y="122.87"/>
      <point x="697.625" y="213.67499999999998" type="curve"/>
      <point x="721.9699999999999" y="213.67499999999998" type="line"/>
      <point x="708.755" y="310.195" type="line"/>
      <point x="687.175" y="231.585"/>
      <point x="653.1650000000001" y="186.64000000000001"/>
      <point x="595.7149999999999" y="186.64000000000001" type="curve" smooth="yes"/>
      <point x="538.555" y="186.64000000000001"/>
      <point x="514.975" y="225.725"/>
      <point x="514.975" y="299.25" type="curve" smooth="yes"/>
      <point x="514.975" y="333.46500000000003"/>
      <point x="517.5450000000001" y="361.52"/>
      <point x="547.695" y="662.245" type="curve" smooth="yes"/>
      <point x="558.3399999999999" y="768.985"/>
      <point x="593.995" y="816.21"/>
      <point x="655.2950000000001" y="816.21" type="curve" smooth="yes"/>
      <point x="712.175" y="816.21"/>
      <point x="743.615" y="769.62"/>
      <point x="743.6149999999999" y="692.665" type="curve" smooth="yes"/>
      <point x="743.6149999999999" y="683.0949999999999"/>
      <point x="743.6149999999999" y="674.095"/>
      <point x="742.615" y="664.3100000000001" type="curve"/>
      <point x="780.5300000000001" y="781.735" type="line"/>
      <point x="750.905" y="781.735" type="line"/>
      <point x="744.7750000000001" y="871.615"/>
      <point x="703.625" y="931.205"/>
      <point x="612.12" y="931.205" type="curve" smooth="yes"/>
      <point x="490.215" y="931.205"/>
      <point x="426.64500000000004" y="843.515"/>
      <point x="406.72" y="648.115" type="curve" smooth="yes"/>
      <point x="376.57" y="344.895"/>
      <point x="374.0" y="317.98"/>
      <point x="374.0" y="274.27000000000004" type="curve" smooth="yes"/>
      <point x="374.0" y="140.14"/>
      <point x="421.57000000000005" y="69.29"/>
    </contour>
    <contour>
      <point x="685.5400000000001" y="79.07499999999999" type="line"/>
      <point x="813.74" y="79.505" type="line"/>
      <point x="898.88" y="919.4200000000001" type="line"/>
      <point x="766.54" y="919.4200000000001" type="line"/>
      <point x="765.7550000000001" y="910.4200000000001" type="line"/>
      <point x="752.7549999999999" y="754.57" type="line"/>
      <point x="748.97" y="729.935" type="line"/>
      <point x="703.755" y="273.195" type="line"/>
      <point x="707.895" y="252.13000000000002" type="line"/>
    </contour>
    <contour>
      <point x="781.47" y="180.29500000000002" type="curve"/>
      <point x="685.5400000000001" y="79.07499999999999" type="line"/>
      <point x="728.96" y="70.505"/>
      <point x="779.285" y="65.935"/>
      <point x="832.9199999999998" y="67.505" type="curve" smooth="yes"/>
      <point x="1029.8049999999998" y="72.215"/>
      <point x="1122.0" y="165.075"/>
      <point x="1145.28" y="387.82" type="curve" smooth="yes"/>
      <point x="1159.355" y="527.645"/>
      <point x="1175.43" y="706.975"/>
      <point x="1182.645" y="799.115" type="curve" smooth="yes"/>
      <point x="1210.075" y="1153.7949999999998"/>
      <point x="1007.2550000000001" y="1335.29"/>
      <point x="680.6600000000001" y="1335.29" type="curve" smooth="yes"/>
      <point x="332.43" y="1335.29"/>
      <point x="162.30999999999997" y="1144.385"/>
      <point x="123.46000000000001" y="765.705" type="curve" smooth="yes"/>
      <point x="113.245" y="666.0400000000001"/>
      <point x="83.525" y="330.22"/>
      <point x="75.88" y="228.48" type="curve" smooth="yes"/>
      <point x="48.17" y="-136.245"/>
      <point x="249.495" y="-320.79499999999996"/>
      <point x="607.36" y="-320.79499999999996" type="curve" smooth="yes"/>
      <point x="787.63" y="-320.79499999999996"/>
      <point x="921.91" y="-273.505"/>
      <point x="1006.92" y="-218.99" type="curve"/>
      <point x="1024.695" y="-97.27499999999999" type="line"/>
      <point x="946.8999999999999" y="-150.005"/>
      <point x="791.9949999999999" y="-210.08"/>
      <point x="619.135" y="-210.08" type="curve" smooth="yes"/>
      <point x="317.95" y="-210.08"/>
      <point x="176.51999999999998" y="-50.875"/>
      <point x="198.015" y="234.975" type="curve" smooth="yes"/>
      <point x="205.015" y="329.575"/>
      <point x="235.595" y="650.34"/>
      <point x="247.38000000000002" y="774.125" type="curve" smooth="yes"/>
      <point x="274.24" y="1046.455"/>
      <point x="391.465" y="1226.145"/>
      <point x="673.38" y="1226.145" type="curve" smooth="yes"/>
      <point x="954.4999999999999" y="1226.145"/>
      <point x="1085.8000000000002" y="1060.7250000000001"/>
      <point x="1062.295" y="801.685" type="curve" smooth="yes"/>
      <point x="1054.2949999999998" y="716.9"/>
      <point x="1035.865" y="514.375"/>
      <point x="1023.93" y="399.595" type="curve" smooth="yes"/>
      <point x="1006.7150000000001" y="234.23"/>
      <point x="949.415" y="178.36"/>
      <point x="851.1150000000001" y="178.36" type="curve" smooth="yes"/>
      <point x="822.685" y="178.36"/>
      <point x="808.395" y="178.57500000000002"/>
    </contour>
  </outline>
</glyph>
<glyph name="A" format="2">
  <advance width="726.9199999999998"/>
  <unicode hex="0041"/>
  <anchor x="363.9599999999999" y="0.0" name="bottom"/>
  <anchor x="729.1999999999999" y="0.0" name="ogonek"/>
  <anchor x="363.9599999999999" y="1278.0" name="top"/>
  <outline>
    <contour>
      <point x="42.300000000000004" y="0.0" type="line"/>
      <point x="188.27499999999998" y="0.0" type="line"/>
      <point x="350.96" y="1169.64" type="line"/>
      <point x="372.74499999999995" y="1169.64" type="line"/>
      <point x="538.645" y="0.0" type="line"/>
      <point x="684.6199999999999" y="0.0" type="line"/>
      <point x="482.6" y="1278.0" type="line"/>
      <point x="241.10500000000002" y="1278.0" type="line"/>
    </contour>
    <contour>
      <point x="195.54000000000002" y="366.435" type="line"/>
      <point x="529.38" y="366.435" type="line"/>
      <point x="529.38" y="492.065" type="line"/>
      <point x="195.54000000000002" y="492.065" type="line"/>
    </contour>
  </outline>
</glyph>
<glyph name="B" format="2">
  <advance width="728.4050000000001"/>
  <unicode hex="0042"/>
  <anchor x="368.52000000000004" y="0.0" name="bottom"/>
  <anchor x="368.52000000000004" y="1278.0" name="top"/>
  <outline>
    <contour>
      <point x="208.865" y="0.0" type="line"/>
      <point x="386.79999999999995" y="0.0" type="line" smooth="yes"/>
      <point x="587.265" y="0.0"/>
      <point x="667.46" y="112.065"/>
      <point x="667.46" y="316.315" type="curve" smooth="yes"/>
      <point x="667.46" y="401.935" type="line" smooth="yes"/>
      <point x="667.46" y="557.645"/>
      <point x="623.46" y="651.215"/>
      <point x="481.46" y="674.3549999999999" type="curve"/>
      <point x="485.76000000000005" y="679.915" type="line"/>
      <point x="611.965" y="701.4200000000001"/>
      <point x="657.2449999999999" y="785.99"/>
      <point x="657.2449999999999" y="923.635" type="curve" smooth="yes"/>
      <point x="657.2449999999999" y="981.31" type="line" smooth="yes"/>
      <point x="657.2449999999999" y="1169.86"/>
      <point x="574.695" y="1278.0"/>
      <point x="371.52" y="1278.0" type="curve" smooth="yes"/>
      <point x="203.36999999999998" y="1278.0" type="line"/>
      <point x="203.36999999999998" y="1150.37" type="line"/>
      <point x="362.45500000000004" y="1150.37" type="line" smooth="yes"/>
      <point x="472.98" y="1150.37"/>
      <point x="509.91499999999996" y="1082.35"/>
      <point x="509.91499999999996" y="961.255" type="curve" smooth="yes"/>
      <point x="509.91499999999996" y="896.4300000000001" type="line" smooth="yes"/>
      <point x="509.91499999999996" y="785.27"/>
      <point x="474.19499999999994" y="716.25"/>
      <point x="355.66999999999996" y="716.25" type="curve" smooth="yes"/>
      <point x="210.66000000000003" y="716.25" type="line"/>
      <point x="210.66000000000003" y="594.545" type="line"/>
      <point x="353.81" y="594.545" type="line" smooth="yes"/>
      <point x="483.195" y="594.545"/>
      <point x="520.13" y="525.74"/>
      <point x="520.13" y="405.43" type="curve" smooth="yes"/>
      <point x="520.13" y="317.53" type="line" smooth="yes"/>
      <point x="520.13" y="197.22"/>
      <point x="483.195" y="128.41500000000002"/>
      <point x="370.66999999999996" y="128.41500000000002" type="curve" smooth="yes"/>
      <point x="208.865" y="128.41500000000002" type="line"/>
    </contour>
    <contour>
      <point x="102.94500000000001" y="0.0" type="line"/>
      <point x="250.275" y="0.0" type="line"/>
      <point x="250.275" y="1278.0" type="line"/>
      <point x="102.94500000000001" y="1278.0" type="line"/>
    </contour>
  </outline>
</glyph>
<glyph name="C" format="2">
  <advance width="584.0899999999999"/>
  <unicode hex="0043"/>
  <anchor x="328.325" y="0.0" name="bottom"/>
  <anchor x="328.325" y="1278.0" name="top"/>
  <outline>
    <contour>
      <point x="353.39000000000004" y="-18.14" type="curve" smooth="yes"/>
      <point x="431.23999999999995" y="-18.14"/>
      <point x="494.30499999999995" y="7.9350000000000005"/>
      <point x="530.4449999999999" y="33.655" type="curve"/>
      <point x="541.1550000000001" y="180.275" type="line"/>
      <point x="500.435" y="147.125"/>
      <point x="455.145" y="123.05000000000001"/>
      <point x="392.28499999999997" y="123.05000000000001" type="curve" smooth="yes"/>
      <point x="275.705" y="123.05000000000001"/>
      <point x="232.415" y="201.06"/>
      <point x="232.415" y="338.21999999999997" type="curve" smooth="yes"/>
      <point x="232.415" y="940.565" type="line" smooth="yes"/>
      <point x="232.415" y="1079.7250000000001"/>
      <point x="272.92" y="1158.875"/>
      <point x="384.5" y="1158.875" type="curve" smooth="yes"/>
      <point x="446.79" y="1158.875"/>
      <point x="492.865" y="1134.015"/>
      <point x="534.1550000000001" y="1100.865" type="curve"/>
      <point x="523.445" y="1240.775" type="line"/>
      <point x="485.875" y="1270.4950000000001"/>
      <point x="426.59499999999997" y="1296.1399999999999"/>
      <point x="349.17500000000007" y="1296.1399999999999" type="curve" smooth="yes"/>
      <point x="165.27999999999997" y="1296.1399999999999"/>
      <point x="82.73" y="1175.3"/>
      <point x="82.73" y="950.77" type="curve" smooth="yes"/>
      <point x="82.73" y="330.37" type="line" smooth="yes"/>
      <point x="82.73" y="104.7"/>
      <point x="161.355" y="-18.14"/>
    </contour>
  </outline>
</glyph>
<glyph name="D" format="2">
  <advance width="762.3399999999999"/>
  <unicode hex="0044"/>
  <anchor x="369.885" y="0.0" name="bottom"/>
  <anchor x="383.24" y="639.0" name="center"/>
  <anchor x="369.885" y="1278.0" name="top"/>
  <outline>
    <contour>
      <point x="194.79999999999998" y="0.0" type="line"/>
      <point x="365.875" y="0.0" type="line" smooth="yes"/>
      <point x="579.62" y="0.0"/>
      <point x="679.61" y="119.34500000000001"/>
      <point x="679.61" y="337.82000000000005" type="curve" smooth="yes"/>
      <point x="679.61" y="939.965" type="line" smooth="yes"/>
      <point x="679.61" y="1158.655"/>
      <point x="578.05" y="1278.0"/>
      <point x="365.875" y="1278.0" type="curve" smooth="yes"/>
      <point x="198.66" y="1278.0" type="line"/>
      <point x="198.66" y="1150.3700000000001" type="line"/>
      <point x="358.38" y="1150.3700000000001" type="line" smooth="yes"/>
      <point x="474.98" y="1150.3700000000001"/>
      <point x="529.925" y="1080.565"/>
      <point x="529.925" y="938.75" type="curve" smooth="yes"/>
      <point x="529.925" y="338.82000000000005" type="line" smooth="yes"/>
      <point x="529.925" y="198.22"/>
      <point x="474.98" y="128.415"/>
      <point x="358.38" y="128.415" type="curve" smooth="yes"/>
      <point x="194.79999999999998" y="128.415" type="line"/>
    </contour>
    <contour>
      <point x="102.94500000000001" y="0.0" type="line"/>
      <point x="251.06" y="0.0" type="line"/>
      <point x="251.06" y="1278.0" type="line"/>
      <point x="102.94500000000001" y="1278.0" type="line"/>
    </contour>
  </outline>
</glyph>
<glyph name="E" format="2">
  <advance width="616.5749999999999"/>
  <unicode hex="0045"/>
  <anchor x="331.26" y="0.0" name="bottom"/>
  <anchor x="593.015" y="0.0" name="ogonek"/>
  <anchor x="331.26" y="1278.0" name="top"/>
  <anchor x="20.0" y="1278.0" name="topleft"/>
  <outline>
    <contour>
      <point x="102.94500000000001" y="0.0" type="line"/>
      <point x="247.92000000000002" y="0.0" type="line"/>
      <point x="247.92000000000002" y="1278.0" type="line"/>
      <point x="102.94500000000001" y="1278.0" type="line"/>
    </contour>
    <contour>
      <point x="187.79999999999998" y="0.0" type="line"/>
      <point x="556.07" y="0.0" type="line"/>
      <point x="556.07" y="131.555" type="line"/>
      <point x="187.79999999999998" y="131.555" type="line"/>
    </contour>
    <contour>
      <point x="196.305" y="588.405" type="line"/>
      <point x="548.93" y="588.405" type="line"/>
      <point x="548.93" y="718.96" type="line"/>
      <point x="196.305" y="718.96" type="line"/>
    </contour>
    <contour>
      <point x="185.36999999999998" y="1146.4450000000002" type="line"/>
      <point x="556.0699999999999" y="1146.4450000000002" type="line"/>
      <point x="556.0699999999999" y="1278.0" type="line"/>
      <point x="185.36999999999998" y="1278.0" type="line"/>
    </contour>
  </outline>
</glyph>
<glyph name="F" format="2">
  <advance width="587.51"/>
  <unicode hex="0046"/>
  <anchor x="293.755" y="0.0" name="bottom"/>
  <anchor x="293.755" y="1278.0" name="top"/>
  <outline>
    <contour>
      <point x="102.94500000000001" y="0.0" type="line"/>
      <point x="251.845" y="0.0" type="line"/>
      <point x="251.845" y="1278.0" type="line"/>
      <point x="102.94500000000001" y="1278.0" type="line"/>
    </contour>
    <contour>
      <point x="196.305" y="549.705" type="line"/>
      <point x="531.08" y="549.705" type="line"/>
      <point x="531.08" y="682.83" type="line"/>
      <point x="196.305" y="682.83" type="line"/>
    </contour>
    <contour>
      <point x="185.36999999999998" y="1144.875" type="line"/>
      <point x="540.65" y="1144.875" type="line"/>
      <point x="540.65" y="1278.0" type="line"/>
      <point x="185.36999999999998" y="1278.0" type="line"/>
    </contour>
  </outline>
</glyph>
<glyph name="G" format="2">
  <advance width="720.35"/>
  <unicode hex="0047"/>
  <anchor x="361.745" y="0.0" name="bottom"/>
  <anchor x="361.745" y="1278.0" name="top"/>
  <outline>
    <contour>
      <point x="314.49499999999995" y="-18.14" type="curve" smooth="yes"/>
      <point x="437.85" y="-18.14"/>
      <point x="484.86" y="56.085"/>
      <point x="503.075" y="149.245" type="curve"/>
      <point x="645.47" y="148.385" type="line"/>
      <point x="645.47" y="725.6899999999999" type="line"/>
      <point x="386.24000000000007" y="725.6899999999999" type="line"/>
      <point x="386.24000000000007" y="594.5649999999999" type="line"/>
      <point x="533.625" y="594.5649999999999" type="line"/>
      <point x="504.28" y="664.515" type="line"/>
      <point x="504.28" y="254.895" type="line"/>
      <point x="487.77500000000003" y="179.08"/>
      <point x="449.33500000000004" y="115.2"/>
      <point x="366.38000000000005" y="115.2" type="curve" smooth="yes"/>
      <point x="271.64" y="115.2"/>
      <point x="232.415" y="181.93"/>
      <point x="232.415" y="307.24" type="curve" smooth="yes"/>
      <point x="232.415" y="915.275" type="line" smooth="yes"/>
      <point x="232.415" y="1075.22"/>
      <point x="288.2" y="1158.875"/>
      <point x="426.55499999999995" y="1158.875" type="curve" smooth="yes"/>
      <point x="511.90999999999997" y="1158.875"/>
      <point x="576.76" y="1126.875"/>
      <point x="628.7600000000001" y="1087.5849999999998" type="curve"/>
      <point x="616.48" y="1230.85" type="line"/>
      <point x="570.77" y="1264.925"/>
      <point x="495.285" y="1296.1399999999999"/>
      <point x="397.51" y="1296.1399999999999" type="curve" smooth="yes"/>
      <point x="185.27" y="1296.1399999999999"/>
      <point x="82.73" y="1168.085"/>
      <point x="82.73" y="918.415" type="curve" smooth="yes"/>
      <point x="82.73" y="311.52" type="line" smooth="yes"/>
      <point x="82.73" y="101.98"/>
      <point x="148.73" y="-18.14"/>
    </contour>
    <contour>
      <point x="511.42" y="205.27999999999997" type="line"/>
      <point x="504.84999999999997" y="0.0" type="line"/>
      <point x="645.47" y="0.0" type="line"/>
      <point x="645.47" y="205.27999999999997" type="line"/>
    </contour>
  </outline>
</glyph>
<glyph name="H" format="2">
  <advance width="791.7700000000001"/>
  <unicode hex="0048"/>
  <anchor x="395.885" y="0.0" name="bottom"/>
  <anchor x="395.885" y="639.0" name="center"/>
  <anchor x="395.885" y="1278.0" name="top"/>
  <anchor x="20.0" y="1278.0" name="topleft"/>
  <outline>
    <contour>
      <point x="252.63000000000002" y="0.0" type="line"/>
      <point x="252.63000000000002" y="1278.0" type="line"/>
      <point x="102.94500000000001" y="1278.0" type="line"/>
      <point x="102.94500000000001" y="0.0" type="line"/>
    </contour>
    <contour>
      <point x="688.8249999999999" y="0.0" type="line"/>
      <point x="688.8249999999999" y="1278.0" type="line"/>
      <point x="539.14" y="1278.0" type="line"/>
      <point x="539.14" y="0.0" type="line"/>
    </contour>
    <contour>
      <point x="198.735" y="722.605" type="line"/>
      <point x="198.735" y="593.62" type="line"/>
      <point x="591.97" y="593.62" type="line"/>
      <point x="591.97" y="722.605" type="line"/>
    </contour>
  </outline>
</glyph>
<glyph name="I" format="2">
  <advance width="358.435"/>
  <unicode hex="0049"/>
  <anchor x="179.325" y="0.0" name="bottom"/>
  <anchor x="296.5" y="0.0" name="ogonek"/>
  <anchor x="179.325" y="1278.0" name="top"/>
  <anchor x="20.0" y="1278.0" name="topleft"/>
  <outline>
    <contour>
      <point x="254.06000000000003" y="0.0" type="line"/>
      <point x="254.06000000000003" y="1278.0" type="line"/>
      <point x="104.37500000000001" y="1278.0" type="line"/>
      <point x="104.37500000000001" y="0.0" type="line"/>
    </contour>
  </outline>
</glyph>
<glyph name="J" format="2">
  <advance width="492.45500000000004"/>
  <unicode hex="004A"/>
  <anchor x="247.12" y="0.0" name="bottom"/>
  <anchor x="320.345" y="1278.0" name="top"/>
  <outline>
    <contour>
      <point x="168.98999999999998" y="-17.0" type="curve" smooth="yes"/>
      <point x="335.38" y="-17.0"/>
      <point x="395.295" y="79.12"/>
      <point x="395.295" y="249.005" type="curve" smooth="yes"/>
      <point x="395.295" y="1278.0" type="line"/>
      <point x="246.39499999999995" y="1278.0" type="line"/>
      <point x="246.39499999999995" y="249.43499999999997" type="line" smooth="yes"/>
      <point x="246.39499999999995" y="166.84500000000003"/>
      <point x="221.105" y="116.34"/>
      <point x="137.235" y="116.34" type="curve" smooth="yes"/>
      <point x="99.515" y="116.34"/>
      <point x="69.22500000000001" y="124.77000000000001"/>
      <point x="35.365" y="139.41500000000002" type="curve"/>
      <point x="45.86" y="7.000000000000002" type="line"/>
      <point x="78.785" y="-7.785"/>
      <point x="123.495" y="-17.0"/>
    </contour>
  </outline>
</glyph>
<glyph name="K" format="2">
  <advance width="729.33"/>
  <unicode hex="004B"/>
  <anchor x="385.735" y="0.0" name="bottom"/>
  <anchor x="385.735" y="1278.0" name="top"/>
  <outline>
    <contour>
      <point x="552.345" y="0.0" type="line"/>
      <point x="706.5999999999999" y="0.0" type="line"/>
      <point x="437.07500000000005" y="688.195" type="line"/>
      <point x="439.07500000000005" y="646.29" type="line"/>
      <point x="697.2450000000001" y="1278.0" type="line"/>
      <point x="544.56" y="1278.0" type="line"/>
      <point x="319.94" y="718.1" type="line"/>
      <point x="231.36" y="718.1" type="line"/>
      <point x="231.36" y="589.6850000000001" type="line"/>
      <point x="320.37" y="589.6850000000001" type="line"/>
    </contour>
    <contour>
      <point x="102.94500000000001" y="0.0" type="line"/>
      <point x="248.70500000000004" y="0.0" type="line"/>
      <point x="248.70500000000004" y="1278.0" type="line"/>
      <point x="102.94500000000001" y="1278.0" type="line"/>
    </contour>
  </outline>
</glyph>
<glyph name="L" format="2">
  <advance width="581.2299999999999"/>
  <unicode hex="004C"/>
  <anchor x="318.48499999999996" y="0.0" name="bottom"/>
  <anchor x="247.935" y="656.01" name="center"/>
  <anchor x="177.895" y="1278.0" name="top"/>
  <anchor x="411.54" y="1278.0" name="topright"/>
  <outline>
    <contour>
      <point x="251.84500000000003" y="0.0" type="line"/>
      <point x="251.84500000000003" y="1278.0" type="line"/>
      <point x="102.94500000000001" y="1278.0" type="line"/>
      <point x="102.94500000000001" y="0.0" type="line"/>
    </contour>
    <contour>
      <point x="187.79999999999998" y="133.125" type="line"/>
      <point x="187.79999999999998" y="0.0" type="line"/>
      <point x="548.875" y="0.0" type="line"/>
      <point x="548.875" y="133.125" type="line"/>
    </contour>
  </outline>
</glyph>
<glyph name="M" format="2">
  <advance width="996.075"/>
  <unicode hex="004D"/>
  <anchor x="498.93000000000006" y="0.0" name="bottom"/>
  <anchor x="498.93000000000006" y="1278.0" name="top"/>
  <outline>
    <contour>
      <point x="98.73" y="0.0" type="line"/>
      <point x="238.99499999999998" y="0.0" type="line"/>
      <point x="241.21" y="464.80499999999995" type="line"/>
      <point x="236.14500000000004" y="1098.205" type="line"/>
      <point x="245.64999999999998" y="1098.205" type="line"/>
      <point x="418.18500000000006" y="138.42" type="line"/>
      <point x="577.8900000000001" y="138.42" type="line"/>
      <point x="750.4250000000001" y="1098.205" type="line"/>
      <point x="759.93" y="1098.205" type="line"/>
      <point x="755.65" y="464.80499999999995" type="line"/>
      <point x="757.0799999999999" y="0.0" type="line"/>
      <point x="897.345" y="0.0" type="line"/>
      <point x="888.345" y="1278.0" type="line"/>
      <point x="663.12" y="1278.0" type="line"/>
      <point x="503.145" y="348.045" type="line"/>
      <point x="494.5" y="348.045" type="line"/>
      <point x="332.955" y="1278.0" type="line"/>
      <point x="107.73" y="1278.0" type="line"/>
    </contour>
  </outline>
</glyph>
<glyph name="N" format="2">
  <advance width="812.1800000000001"/>
  <unicode hex="004E"/>
  <anchor x="410.01500000000004" y="0.0" name="bottom"/>
  <anchor x="410.01500000000004" y="1278.0" name="top"/>
  <outline>
    <contour>
      <point x="324.31" y="1278.785" type="line"/>
      <point x="102.94500000000001" y="1278.785" type="line"/>
      <point x="102.94500000000001" y="0.0" type="line"/>
      <point x="243.99499999999998" y="0.0" type="line"/>
      <point x="243.99499999999998" y="502.485" type="line"/>
      <point x="231.36" y="1121.755" type="line"/>
      <point x="241.57500000000002" y="1121.755" type="line"/>
      <point x="487.655" y="0.0" type="line"/>
      <point x="709.235" y="0.0" type="line"/>
      <point x="709.235" y="1278.785" type="line"/>
      <point x="568.97" y="1278.785" type="line"/>
      <point x="568.97" y="776.3000000000001" type="line"/>
      <point x="580.8199999999999" y="163.31" type="line"/>
      <point x="570.605" y="163.31" type="line"/>
    </contour>
  </outline>
</glyph>
<glyph name="O" format="2">
  <advance width="762.125"/>
  <unicode hex="004F"/>
  <anchor x="380.66999999999996" y="0.0" name="bottom"/>
  <anchor x="380.66999999999996" y="639.0" name="center"/>
  <anchor x="556.36" y="6.075" name="ogonek"/>
  <anchor x="380.66999999999996" y="1278.0" name="top"/>
  <anchor x="20.0" y="1278.0" name="topleft"/>
  <anchor x="702.235" y="1278.0" name="topright"/>
  <outline>
    <contour>
      <point x="380.66999999999996" y="-18.14" type="curve" smooth="yes"/>
      <point x="580.77" y="-18.14"/>
      <point x="679.3949999999999" y="103.13000000000001"/>
      <point x="679.3949999999999" y="336.53" type="curve" smooth="yes"/>
      <point x="679.3949999999999" y="940.255" type="line" smooth="yes"/>
      <point x="679.3949999999999" y="1172.87"/>
      <point x="580.77" y="1296.1399999999999"/>
      <point x="380.66999999999996" y="1296.1399999999999" type="curve" smooth="yes"/>
      <point x="180.355" y="1296.1399999999999"/>
      <point x="82.73" y="1172.87"/>
      <point x="82.73" y="940.255" type="curve" smooth="yes"/>
      <point x="82.73" y="336.53" type="line" smooth="yes"/>
      <point x="82.73" y="103.13000000000001"/>
      <point x="180.355" y="-18.14"/>
    </contour>
    <contour>
      <point x="380.66999999999996" y="109.70500000000001" type="curve" smooth="yes"/>
      <point x="275.575" y="109.70500000000001"/>
      <point x="232.415" y="185.08"/>
      <point x="232.415" y="322.185" type="curve" smooth="yes"/>
      <point x="232.415" y="955.6" type="line" smooth="yes"/>
      <point x="232.415" y="1093.705"/>
      <point x="275.575" y="1168.2949999999998"/>
      <point x="380.66999999999996" y="1168.2949999999998" type="curve" smooth="yes"/>
      <point x="485.76499999999993" y="1168.2949999999998"/>
      <point x="528.9250000000001" y="1093.705"/>
      <point x="528.9250000000001" y="955.6" type="curve" smooth="yes"/>
      <point x="528.9250000000001" y="322.185" type="line" smooth="yes"/>
      <point x="528.9250000000001" y="185.08"/>
      <point x="485.76499999999993" y="109.70500000000001"/>
    </contour>
  </outline>
</glyph>
<glyph name="P" format="2">
  <advance width="704.1899999999999"/>
  <unicode hex="0050"/>
  <anchor x="352.595" y="0.0" name="bottom"/>
  <anchor x="352.595" y="1278.0" name="top"/>
  <outline>
    <contour>
      <point x="186.16500000000002" y="422.62" type="line"/>
      <point x="356.81" y="422.62" type="line" smooth="yes"/>
      <point x="554.265" y="422.62"/>
      <point x="644.5350000000001" y="535.6850000000001"/>
      <point x="644.5350000000001" y="744.075" type="curve" smooth="yes"/>
      <point x="644.5350000000001" y="958.545" type="line" smooth="yes"/>
      <point x="644.5350000000001" y="1161.225"/>
      <point x="554.265" y="1278.0"/>
      <point x="356.455" y="1278.0" type="curve" smooth="yes"/>
      <point x="190.02499999999998" y="1278.0" type="line"/>
      <point x="190.02499999999998" y="1150.37" type="line"/>
      <point x="350.53000000000003" y="1150.37" type="line" smooth="yes"/>
      <point x="453.90500000000003" y="1150.37"/>
      <point x="497.205" y="1081.5649999999998"/>
      <point x="497.205" y="954.9749999999999" type="curve" smooth="yes"/>
      <point x="497.205" y="746.86" type="line" smooth="yes"/>
      <point x="497.205" y="619.27"/>
      <point x="453.905" y="550.25"/>
      <point x="349.315" y="550.25" type="curve" smooth="yes"/>
      <point x="186.16500000000002" y="550.25" type="line"/>
    </contour>
    <contour>
      <point x="102.94500000000001" y="0.0" type="line"/>
      <point x="251.06" y="0.0" type="line"/>
      <point x="251.06" y="442.61" type="line"/>
      <point x="249.48999999999998" y="514.56" type="line"/>
      <point x="249.48999999999998" y="1278.0" type="line"/>
      <point x="102.94500000000001" y="1278.0" type="line"/>
    </contour>
  </outline>
</glyph>
<glyph name="Q" format="2">
  <advance width="765.1249999999999"/>
  <unicode hex="0051"/>
  <anchor x="383.4549999999999" y="0.0" name="bottom"/>
  <anchor x="383.4549999999999" y="1278.0" name="top"/>
  <outline>
    <contour>
      <point x="753.9100000000001" y="-27.205" type="line"/>
      <point x="753.9100000000001" y="100.07" type="line"/>
      <point x="517.975" y="93.5" type="line"/>
      <point x="519.9100000000001" y="100.92" type="line"/>
      <point x="623.89" y="132.2"/>
      <point x="679.3949999999999" y="209.27499999999998"/>
      <point x="679.3949999999999" y="376.425" type="curve" smooth="yes"/>
      <point x="679.3949999999999" y="932.405" type="line" smooth="yes"/>
      <point x="679.3949999999999" y="1172.085"/>
      <point x="579.2" y="1296.1399999999999"/>
      <point x="380.66999999999996" y="1296.1399999999999" type="curve" smooth="yes"/>
      <point x="181.92500000000004" y="1296.1399999999999"/>
      <point x="82.73" y="1172.085"/>
      <point x="82.73" y="932.405" type="curve" smooth="yes"/>
      <point x="82.73" y="349.025" type="line" smooth="yes"/>
      <point x="82.73" y="110.775"/>
      <point x="173.99999999999997" y="-10.785"/>
      <point x="421.09" y="-17.71" type="curve" smooth="yes"/>
    </contour>
    <contour>
      <point x="404.39" y="107.705" type="line" smooth="yes"/>
      <point x="284.36" y="107.705"/>
      <point x="232.415" y="187.865"/>
      <point x="232.415" y="331.32500000000005" type="curve" smooth="yes"/>
      <point x="232.415" y="946.1800000000001" type="line" smooth="yes"/>
      <point x="232.415" y="1094.49"/>
      <point x="277.145" y="1169.08"/>
      <point x="380.66999999999996" y="1169.08" type="curve" smooth="yes"/>
      <point x="484.19499999999994" y="1169.08"/>
      <point x="528.9250000000001" y="1094.49"/>
      <point x="528.9250000000001" y="946.1800000000001" type="curve" smooth="yes"/>
      <point x="528.9250000000001" y="343.1" type="line" smooth="yes"/>
      <point x="528.9250000000001" y="202.155"/>
      <point x="489.485" y="132.70499999999998"/>
      <point x="418.25000000000006" y="107.70500000000001" type="curve"/>
    </contour>
  </outline>
</glyph>
<glyph name="R" format="2">
  <advance width="725.19"/>
  <unicode hex="0052"/>
  <anchor x="375.38000000000005" y="0.0" name="bottom"/>
  <anchor x="364.95000000000005" y="1278.0" name="top"/>
  <outline>
    <contour>
      <point x="518.635" y="0.0" type="line"/>
      <point x="667.75" y="0.0" type="line"/>
      <point x="635.4599999999999" y="315.43" type="line" smooth="yes"/>
      <point x="617.245" y="491.13"/>
      <point x="585.89" y="583.635"/>
      <point x="431.555" y="607.7099999999999" type="curve"/>
      <point x="473.66499999999996" y="588.645" type="line"/>
      <point x="474.52500000000003" y="603.85" type="line"/>
      <point x="604.815" y="625.13"/>
      <point x="652.89" y="714.2049999999999"/>
      <point x="652.89" y="851.7099999999999" type="curve" smooth="yes"/>
      <point x="652.89" y="981.955" type="line" smooth="yes"/>
      <point x="652.89" y="1170.29"/>
      <point x="570.985" y="1278.0"/>
      <point x="369.38" y="1278.0" type="curve" smooth="yes"/>
      <point x="203.37" y="1278.0" type="line"/>
      <point x="203.37" y="1150.3700000000001" type="line"/>
      <point x="358.745" y="1150.3700000000001" type="line" smooth="yes"/>
      <point x="470.625" y="1150.3700000000001"/>
      <point x="505.775" y="1082.78"/>
      <point x="505.775" y="956.62" type="curve" smooth="yes"/>
      <point x="505.775" y="824.02" type="line" smooth="yes"/>
      <point x="505.775" y="709.57"/>
      <point x="469.05499999999995" y="643.12"/>
      <point x="351.38" y="642.12" type="curve" smooth="yes"/>
      <point x="211.44500000000002" y="641.12" type="line"/>
      <point x="211.44500000000002" y="520.415" type="line"/>
      <point x="334.52000000000004" y="520.415" type="line" smooth="yes"/>
      <point x="453.765" y="520.4150000000001"/>
      <point x="482.97999999999996" y="429.385"/>
      <point x="492.485" y="312.29" type="curve" smooth="yes"/>
    </contour>
    <contour>
      <point x="102.94500000000001" y="0.0" type="line"/>
      <point x="251.06" y="0.0" type="line"/>
      <point x="251.06" y="545.33" type="line"/>
      <point x="250.27499999999998" y="606.86" type="line"/>
      <point x="250.27499999999998" y="1278.0" type="line"/>
      <point x="102.94500000000001" y="1278.0" type="line"/>
    </contour>
  </outline>
</glyph>
<glyph name="S" format="2">
  <advance width="601.1449999999999"/>
  <unicode hex="0053"/>
  <anchor x="287.24999999999994" y="0.0" name="bottom"/>
  <anchor x="287.24999999999994" y="1278.0" name="top"/>
  <outline>
    <contour>
      <point x="264.195" y="-18.14" type="curve" smooth="yes"/>
      <point x="455.155" y="-18.14"/>
      <point x="541.63" y="97.77499999999999"/>
      <point x="541.63" y="297.035" type="curve" smooth="yes"/>
      <point x="541.63" y="354.85" type="line" smooth="yes"/>
      <point x="541.63" y="526.205"/>
      <point x="491.565" y="600.915"/>
      <point x="364.78" y="699.12" type="curve" smooth="yes"/>
      <point x="251.2" y="788.12"/>
      <point x="202.20000000000002" y="836.41"/>
      <point x="202.20000000000002" y="958.0849999999999" type="curve" smooth="yes"/>
      <point x="202.20000000000002" y="986.535" type="line" smooth="yes"/>
      <point x="202.20000000000002" y="1098.855"/>
      <point x="243.06" y="1158.875"/>
      <point x="342.78999999999996" y="1158.875" type="curve" smooth="yes"/>
      <point x="415.93" y="1158.875"/>
      <point x="470.855" y="1130.0900000000001"/>
      <point x="518.0699999999999" y="1092.8" type="curve"/>
      <point x="507.36" y="1235.28" type="line"/>
      <point x="463.2950000000001" y="1268.925"/>
      <point x="398.305" y="1296.1399999999999"/>
      <point x="311.035" y="1296.1399999999999" type="curve" smooth="yes"/>
      <point x="138.205" y="1296.1399999999999"/>
      <point x="54.08500000000001" y="1185.7949999999998"/>
      <point x="54.08500000000001" y="997.525" type="curve" smooth="yes"/>
      <point x="54.08500000000001" y="959.6550000000001" type="line" smooth="yes"/>
      <point x="54.08500000000001" y="790.87"/>
      <point x="119.64499999999998" y="709.17"/>
      <point x="250.07500000000002" y="606.535" type="curve" smooth="yes"/>
      <point x="348.945" y="529.105"/>
      <point x="393.51500000000004" y="480.235"/>
      <point x="393.51500000000004" y="358.345" type="curve" smooth="yes"/>
      <point x="393.51500000000004" y="304.1" type="line" smooth="yes"/>
      <point x="393.51500000000004" y="189.42499999999998"/>
      <point x="350.655" y="123.05"/>
      <point x="245.0" y="123.05" type="curve" smooth="yes"/>
      <point x="177.01000000000002" y="123.05"/>
      <point x="110.86999999999999" y="150.76"/>
      <point x="56.225" y="189.125" type="curve"/>
      <point x="66.935" y="39.935" type="line"/>
      <point x="109.645" y="9.075000000000001"/>
      <point x="180.28" y="-18.14"/>
    </contour>
  </outline>
</glyph>
<glyph name="T" format="2">
  <advance width="620.135"/>
  <unicode hex="0054"/>
  <anchor x="310.17499999999995" y="0.0" name="bottom"/>
  <anchor x="310.17499999999995" y="639.0" name="center"/>
  <anchor x="310.17499999999995" y="1278.0" name="top"/>
  <outline>
    <contour>
      <point x="235.22500000000002" y="0.0" type="line"/>
      <point x="384.90999999999997" y="0.0" type="line"/>
      <point x="384.90999999999997" y="1278.0" type="line"/>
      <point x="235.22500000000002" y="1278.0" type="line"/>
    </contour>
    <contour>
      <point x="31.290000000000006" y="1146.6599999999999" type="line"/>
      <point x="588.845" y="1146.6599999999999" type="line"/>
      <point x="588.845" y="1278.0" type="line"/>
      <point x="31.290000000000006" y="1278.0" type="line"/>
    </contour>
  </outline>
</glyph>
<glyph name="U" format="2">
  <advance width="778.63"/>
  <unicode hex="0055"/>
  <anchor x="389.315" y="0.0" name="bottom"/>
  <anchor x="562.435" y="6.075" name="ogonek"/>
  <anchor x="389.315" y="1278.0" name="top"/>
  <anchor x="769.4050000000001" y="1278.0" name="topright"/>
  <outline>
    <contour>
      <point x="389.315" y="-18.14" type="curve" smooth="yes"/>
      <point x="587.275" y="-18.14"/>
      <point x="682.6850000000001" y="101.7"/>
      <point x="682.6850000000001" y="328.885" type="curve" smooth="yes"/>
      <point x="682.6850000000001" y="1278.0" type="line"/>
      <point x="533.0" y="1278.0" type="line"/>
      <point x="533.0" y="317.11" type="line" smooth="yes"/>
      <point x="533.0" y="181.295"/>
      <point x="491.27" y="110.49"/>
      <point x="389.315" y="110.49" type="curve" smooth="yes"/>
      <point x="287.36" y="110.49"/>
      <point x="245.63" y="181.295"/>
      <point x="245.63" y="317.11" type="curve" smooth="yes"/>
      <point x="245.63" y="1278.0" type="line"/>
      <point x="95.94500000000001" y="1278.0" type="line"/>
      <point x="95.94500000000001" y="328.885" type="line" smooth="yes"/>
      <point x="95.94500000000001" y="101.7"/>
      <point x="191.35500000000002" y="-18.14"/>
    </contour>
  </outline>
</glyph>
<glyph name="V" format="2">
  <advance width="720.835"/>
  <unicode hex="0056"/>
  <anchor x="360.02500000000003" y="0.0" name="bottom"/>
  <anchor x="360.02500000000003" y="1278.0" name="top"/>
  <outline>
    <contour>
      <point x="237.59999999999997" y="0.0" type="line"/>
      <point x="483.235" y="0.0" type="line"/>
      <point x="680.9649999999999" y="1278.0" type="line"/>
      <point x="531.8499999999999" y="1278.0" type="line"/>
      <point x="370.02500000000003" y="109.145" type="line"/>
      <point x="349.81" y="109.145" type="line"/>
      <point x="188.985" y="1278.0" type="line"/>
      <point x="39.870000000000005" y="1278.0" type="line"/>
    </contour>
  </outline>
</glyph>
<glyph name="W" format="2">
  <advance width="1066.935"/>
  <unicode hex="0057"/>
  <anchor x="533.575" y="0.0" name="bottom"/>
  <anchor x="533.575" y="1278.0" name="top"/>
  <outline>
    <contour>
      <point x="183.04" y="0.0" type="line"/>
      <point x="419.67499999999995" y="0.0" type="line"/>
      <point x="488.7900000000001" y="678.35" type="line"/>
      <point x="528.36" y="1126.0049999999999" type="line"/>
      <point x="538.575" y="1126.0049999999999" type="line"/>
      <point x="578.36" y="678.35" type="line"/>
      <point x="647.2600000000001" y="0.0" type="line"/>
      <point x="883.895" y="0.0" type="line"/>
      <point x="1016.2049999999999" y="1278.0" type="line"/>
      <point x="867.305" y="1278.0" type="line"/>
      <point x="785.675" y="415.46500000000003" type="line"/>
      <point x="764.4050000000001" y="124.06" type="line"/>
      <point x="754.1899999999999" y="124.06" type="line"/>
      <point x="728.21" y="415.46500000000003" type="line"/>
      <point x="637.44" y="1248.8500000000001" type="line"/>
      <point x="429.49500000000006" y="1248.8500000000001" type="line"/>
      <point x="338.725" y="415.465" type="line"/>
      <point x="312.745" y="124.06" type="line"/>
      <point x="302.53" y="124.06" type="line"/>
      <point x="281.26" y="415.465" type="line"/>
      <point x="199.63000000000002" y="1278.0" type="line"/>
      <point x="50.730000000000004" y="1278.0" type="line"/>
    </contour>
  </outline>
</glyph>
<glyph name="X" format="2">
  <advance width="695.9100000000001"/>
  <unicode hex="0058"/>
  <anchor x="348.45500000000004" y="0.0" name="bottom"/>
  <anchor x="348.45500000000004" y="1278.0" name="top"/>
  <outline>
    <contour>
      <point x="40.3" y="0.0" type="line"/>
      <point x="187.63" y="0.0" type="line"/>
      <point x="342.885" y="581.125" type="line"/>
      <point x="353.025" y="581.125" type="line"/>
      <point x="508.28000000000003" y="0.0" type="line"/>
      <point x="655.6099999999999" y="0.0" type="line"/>
      <point x="457.09499999999997" y="687.775" type="line"/>
      <point x="457.09499999999997" y="644.58" type="line"/>
      <point x="650.0400000000001" y="1278.0" type="line"/>
      <point x="503.495" y="1278.0" type="line"/>
      <point x="353.025" y="741.95" type="line"/>
      <point x="342.885" y="741.95" type="line"/>
      <point x="192.415" y="1278.0" type="line"/>
      <point x="45.87" y="1278.0" type="line"/>
      <point x="238.81500000000003" y="644.58" type="line"/>
      <point x="238.81500000000003" y="687.775" type="line"/>
    </contour>
  </outline>
</glyph>
<glyph name="Y" format="2">
  <advance width="673.48"/>
  <unicode hex="0059"/>
  <anchor x="337.24" y="0.0" name="bottom"/>
  <anchor x="337.24" y="1278.0" name="top"/>
  <anchor x="20.0" y="1278.0" name="topleft"/>
  <outline>
    <contour>
      <point x="268.215" y="393.19" type="line"/>
      <point x="406.83500000000004" y="393.19" type="line"/>
      <point x="647.965" y="1278.0" type="line"/>
      <point x="499.84999999999997" y="1278.0" type="line"/>
      <point x="393.605" y="820.435" type="line"/>
      <point x="342.595" y="592.145" type="line"/>
      <point x="332.67" y="592.145" type="line"/>
      <point x="282.445" y="820.65" type="line"/>
      <point x="173.63" y="1278.0" type="line"/>
      <point x="25.515" y="1278.0" type="line"/>
    </contour>
    <contour>
      <point x="266.42999999999995" y="0.0" type="line"/>
      <point x="408.61999999999995" y="0.0" type="line"/>
      <point x="408.61999999999995" y="552.25" type="line"/>
      <point x="266.42999999999995" y="552.25" type="line"/>
    </contour>
  </outline>
</glyph>
<glyph name="Z" format="2">
  <advance width="623.285"/>
  <unicode hex="005A"/>
  <anchor x="312.035" y="0.0" name="bottom"/>
  <anchor x="312.035" y="639.0" name="center"/>
  <anchor x="312.035" y="1278.0" name="top"/>
  <outline>
    <contour>
      <point x="566.7049999999999" y="133.125" type="line"/>
      <point x="209.97499999999997" y="133.125" type="line"/>
      <point x="561.3499999999999" y="1158.2949999999998" type="line"/>
      <point x="561.3499999999999" y="1278.0" type="line"/>
      <point x="60.365" y="1278.0" type="line"/>
      <point x="60.365" y="1144.875" type="line"/>
      <point x="406.9549999999999" y="1144.875" type="line"/>
      <point x="55.795" y="120.49" type="line"/>
      <point x="55.795" y="0.0" type="line"/>
      <point x="566.7049999999999" y="0.0" type="line"/>
    </contour>
  </outline>
</glyph>
<glyph name="bracketleft" format="2">
  <advance width="440.52000000000004"/>
  <unicode hex="005B"/>
  <outline>
    <contour>
      <point x="105.73" y="-240.215" type="line"/>
      <point x="408.52" y="-240.215" type="line"/>
      <point x="408.52" y="-124.435" type="line"/>
      <point x="242.42499999999998" y="-124.435" type="line"/>
      <point x="242.42499999999998" y="1236.22" type="line"/>
      <point x="408.52" y="1236.22" type="line"/>
      <point x="408.52" y="1352.0" type="line"/>
      <point x="105.73" y="1352.0" type="line"/>
    </contour>
  </outline>
</glyph>
<glyph name="backslash" format="2">
  <advance width="520.725"/>
  <unicode hex="005C"/>
  <outline>
    <contour>
      <point x="490.35" y="-240.215" type="line"/>
      <point x="162.93" y="1352.0" type="line"/>
      <point x="30.375000000000004" y="1352.0" type="line"/>
      <point x="357.01" y="-240.215" type="line"/>
    </contour>
  </outline>
</glyph>
<glyph name="bracketright" format="2">
  <advance width="440.52000000000004"/>
  <unicode hex="005D"/>
  <outline>
    <contour>
      <point x="334.79" y="-240.215" type="line"/>
      <point x="334.79" y="1352.0" type="line"/>
      <point x="32.0" y="1352.0" type="line"/>
      <point x="32.0" y="1236.22" type="line"/>
      <point x="198.09500000000003" y="1236.22" type="line"/>
      <point x="198.09500000000003" y="-124.435" type="line"/>
      <point x="32.0" y="-124.435" type="line"/>
      <point x="32.0" y="-240.215" type="line"/>
    </contour>
  </outline>
</glyph>
<glyph name="asciicircum" format="2">
  <advance width="560.715"/>
  <unicode hex="005E"/>
  <outline>
    <contour>
      <point x="183.73999999999998" y="1278.0" type="line"/>
      <point x="42.805" y="624.075" type="line"/>
      <point x="160.23" y="624.075" type="line"/>
      <point x="276.465" y="1184.2" type="line"/>
      <point x="284.25" y="1184.2" type="line"/>
      <point x="400.48499999999996" y="624.075" type="line"/>
      <point x="517.9100000000001" y="624.075" type="line"/>
      <point x="376.975" y="1278.0" type="line"/>
    </contour>
  </outline>
</glyph>
<glyph name="underscore" format="2">
  <advance width="589.27"/>
  <unicode hex="005F"/>
  <outline>
    <contour>
      <point x="37.87" y="-181.24" type="line"/>
      <point x="551.4" y="-181.24" type="line"/>
      <point x="551.4" y="-67.24499999999999" type="line"/>
      <point x="37.87" y="-67.24499999999999" type="line"/>
    </contour>
  </outline>
</glyph>
<glyph name="grave" format="2">
  <advance width="461.34"/>
  <unicode hex="0060"/>
  <anchor x="306.09000000000003" y="996.28" name="_top"/>
  <anchor x="300.015" y="1306.465" name="top"/>
  <outline>
    <contour>
      <point x="245.62" y="1345.1299999999999" type="line"/>
      <point x="96.86" y="1345.1299999999999" type="line"/>
      <point x="96.86" y="1345.1299999999999" type="line"/>
      <point x="247.48499999999999" y="1095.4399999999998" type="line"/>
      <point x="364.48" y="1095.4399999999998" type="line"/>
      <point x="364.48" y="1095.44" type="line"/>
    </contour>
  </outline>
</glyph>
<glyph name="a" format="2">
  <advance width="655.835"/>
  <unicode hex="0061"/>
  <anchor x="321.09000000000003" y="0.0" name="bottom"/>
  <anchor x="606.33" y="0.0" name="ogonek"/>
  <anchor x="321.09000000000003" y="996.28" name="top"/>
  <outline>
    <contour>
      <point x="428.13000000000005" y="0.0" type="line"/>
      <point x="571.105" y="0.0" type="line"/>
      <point x="571.105" y="702.62" type="line" smooth="yes"/>
      <point x="571.105" y="907.795"/>
      <point x="495.62" y="1011.635"/>
      <point x="312.455" y="1011.635" type="curve" smooth="yes"/>
      <point x="218.82999999999998" y="1011.635"/>
      <point x="140.485" y="978.42"/>
      <point x="86.63499999999999" y="940.99" type="curve"/>
      <point x="76.14" y="809.2850000000001" type="line"/>
      <point x="136.28" y="849.4350000000001"/>
      <point x="210.915" y="884.79"/>
      <point x="285.76500000000004" y="884.79" type="curve" smooth="yes"/>
      <point x="387.40999999999997" y="884.79"/>
      <point x="427.345" y="824.78"/>
      <point x="427.345" y="696.695" type="curve"/>
      <point x="427.345" y="599.71" type="line"/>
      <point x="427.345" y="171.99999999999997" type="line"/>
      <point x="434.485" y="172.0" type="line"/>
    </contour>
    <contour>
      <point x="246.92499999999998" y="-13.785" type="curve" smooth="yes"/>
      <point x="361.205" y="-13.785"/>
      <point x="408.92500000000007" y="58.224999999999994"/>
      <point x="427.71000000000004" y="152.31" type="curve"/>
      <point x="450.9150000000001" y="152.31" type="line"/>
      <point x="430.12999999999994" y="257.185" type="line"/>
      <point x="415.62500000000006" y="170.155"/>
      <point x="375.83000000000004" y="107.91999999999999"/>
      <point x="302.95" y="107.91999999999999" type="curve" smooth="yes"/>
      <point x="223.64000000000001" y="107.91999999999999"/>
      <point x="195.2" y="165.865"/>
      <point x="195.2" y="267.895" type="curve" smooth="yes"/>
      <point x="195.2" y="315.99" type="line" smooth="yes"/>
      <point x="195.2" y="403.87"/>
      <point x="226.705" y="449.88"/>
      <point x="311.52" y="476.535" type="curve" smooth="yes"/>
      <point x="462.0450000000001" y="524.1899999999999" type="line"/>
      <point x="447.27000000000004" y="640.0450000000001" type="line"/>
      <point x="275.83000000000004" y="586.8199999999999" type="line" smooth="yes"/>
      <point x="114.20499999999998" y="536.82"/>
      <point x="52.225" y="462.325"/>
      <point x="52.225" y="308.925" type="curve" smooth="yes"/>
      <point x="52.225" y="246.27" type="line" smooth="yes"/>
      <point x="52.225" y="77.49499999999999"/>
      <point x="114.28999999999999" y="-13.785"/>
    </contour>
  </outline>
</glyph>
<glyph name="b" format="2">
  <advance width="714.3399999999999"/>
  <unicode hex="0062"/>
  <anchor x="357.67" y="0.0" name="bottom"/>
  <anchor x="357.67" y="1330.075" name="top"/>
  <outline>
    <contour>
      <point x="424.90999999999997" y="-13.785" type="curve" smooth="yes"/>
      <point x="577.04" y="-13.785"/>
      <point x="640.255" y="98.70000000000002"/>
      <point x="640.255" y="311.59499999999997" type="curve" smooth="yes"/>
      <point x="640.255" y="686.975" type="line" smooth="yes"/>
      <point x="640.255" y="898.44"/>
      <point x="577.255" y="1010.065"/>
      <point x="426.41499999999996" y="1010.065" type="curve" smooth="yes"/>
      <point x="312.125" y="1010.065"/>
      <point x="258.835" y="939.98"/>
      <point x="238.83499999999998" y="843.3249999999999" type="curve"/>
      <point x="206.35" y="843.3249999999999" type="line"/>
      <point x="231.70499999999998" y="742.375" type="line"/>
      <point x="248.42499999999998" y="828.835"/>
      <point x="291.22" y="891.5"/>
      <point x="371.74500000000006" y="891.5" type="curve" smooth="yes"/>
      <point x="461.055" y="891.5"/>
      <point x="495.71000000000004" y="824.985"/>
      <point x="495.71000000000004" y="699.105" type="curve" smooth="yes"/>
      <point x="495.71000000000004" y="304.53000000000003" type="line" smooth="yes"/>
      <point x="495.71000000000004" y="175.65"/>
      <point x="458.40999999999997" y="107.91999999999999"/>
      <point x="370.74499999999995" y="107.91999999999999" type="curve" smooth="yes"/>
      <point x="281.08" y="107.91999999999999"/>
      <point x="235.78" y="180.435"/>
      <point x="233.705" y="292.53000000000003" type="curve"/>
      <point x="192.145" y="158.54500000000002" type="line"/>
      <point x="236.05" y="158.54500000000002" type="line"/>
      <point x="254.17999999999998" y="59.879999999999995"/>
      <point x="309.33" y="-13.785"/>
    </contour>
    <contour>
      <point x="92.72999999999999" y="0.0" type="line"/>
      <point x="236.275" y="0.0" type="line"/>
      <point x="229.92" y="168.99" type="line"/>
      <point x="233.705" y="192.64499999999998" type="line"/>
      <point x="233.705" y="790.365" type="line"/>
      <point x="232.49" y="811.0749999999999" type="line"/>
      <point x="236.48999999999998" y="1057.185" type="line"/>
      <point x="236.48999999999998" y="1330.075" type="line"/>
      <point x="92.72999999999999" y="1330.075" type="line"/>
    </contour>
  </outline>
</glyph>
<glyph name="c" format="2">
  <advance width="536.295"/>
  <unicode hex="0063"/>
  <anchor x="301.325" y="0.0" name="bottom"/>
  <anchor x="301.325" y="996.28" name="top"/>
  <outline>
    <contour>
      <point x="326.315" y="-13.785" type="curve" smooth="yes"/>
      <point x="396.165" y="-13.785"/>
      <point x="453.79999999999995" y="9.075000000000001"/>
      <point x="490.51000000000005" y="41.505" type="curve"/>
      <point x="501.00500000000005" y="170.07" type="line"/>
      <point x="462.93" y="138.49"/>
      <point x="419.50000000000006" y="116.19999999999999"/>
      <point x="363.64000000000004" y="116.19999999999999" type="curve" smooth="yes"/>
      <point x="260.27500000000003" y="116.19999999999999"/>
      <point x="217.845" y="186.20999999999998"/>
      <point x="217.845" y="306.65999999999997" type="curve" smooth="yes"/>
      <point x="217.845" y="690.405" type="line" smooth="yes"/>
      <point x="217.845" y="813.21"/>
      <point x="256.35" y="883.22"/>
      <point x="358.7149999999999" y="883.22" type="curve" smooth="yes"/>
      <point x="416.36000000000007" y="883.22"/>
      <point x="458.22" y="860.93"/>
      <point x="495.86499999999995" y="829.565" type="curve"/>
      <point x="485.37" y="955.5600000000001" type="line"/>
      <point x="447.87500000000006" y="986.42"/>
      <point x="393.38000000000005" y="1010.0649999999999"/>
      <point x="324.96" y="1010.0649999999999" type="curve" smooth="yes"/>
      <point x="150.71" y="1010.0649999999999"/>
      <point x="73.3" y="893.655"/>
      <point x="73.3" y="691.975" type="curve" smooth="yes"/>
      <point x="73.3" y="303.09" type="line" smooth="yes"/>
      <point x="73.3" y="101.195"/>
      <point x="150.71" y="-13.785"/>
    </contour>
  </outline>
</glyph>
<glyph name="d" format="2">
  <advance width="714.3399999999999"/>
  <unicode hex="0064"/>
  <anchor x="356.885" y="0.0" name="bottom"/>
  <anchor x="356.885" y="498.14" name="center"/>
  <anchor x="356.885" y="1330.075" name="top"/>
  <anchor x="740.2099999999999" y="1330.075" name="topright"/>
  <outline>
    <contour>
      <point x="288.71" y="-13.785" type="curve" smooth="yes"/>
      <point x="403.28" y="-13.785"/>
      <point x="457.645" y="54.14999999999999"/>
      <point x="477.85999999999996" y="153.6" type="curve"/>
      <point x="509.7" y="153.6" type="line"/>
      <point x="482.63499999999993" y="257.475" type="line"/>
      <point x="465.485" y="167.575"/>
      <point x="421.615" y="107.91999999999999"/>
      <point x="342.59499999999997" y="107.91999999999999" type="curve" smooth="yes"/>
      <point x="253.285" y="107.91999999999999"/>
      <point x="218.63" y="174.865"/>
      <point x="218.63" y="301.39" type="curve" smooth="yes"/>
      <point x="218.63" y="694.675" type="line" smooth="yes"/>
      <point x="218.63" y="823.77"/>
      <point x="255.93000000000004" y="891.5"/>
      <point x="343.595" y="891.5" type="curve" smooth="yes"/>
      <point x="433.25999999999993" y="891.5"/>
      <point x="478.55999999999995" y="818.985"/>
      <point x="480.63500000000005" y="706.89" type="curve"/>
      <point x="518.335" y="837.735" type="line"/>
      <point x="475.935" y="837.735" type="line"/>
      <point x="457.805" y="936.4000000000001"/>
      <point x="404.44000000000005" y="1010.065"/>
      <point x="289.43" y="1010.065" type="curve" smooth="yes"/>
      <point x="138.08499999999998" y="1010.065"/>
      <point x="74.08500000000001" y="897.58"/>
      <point x="74.08500000000001" y="684.47" type="curve" smooth="yes"/>
      <point x="74.08500000000001" y="309.025" type="line" smooth="yes"/>
      <point x="74.08500000000001" y="97.485"/>
      <point x="137.87" y="-13.785"/>
    </contour>
    <contour>
      <point x="478.065" y="0.0" type="line"/>
      <point x="621.61" y="0.0" type="line"/>
      <point x="621.61" y="1330.075" type="line"/>
      <point x="477.84999999999997" y="1330.075" type="line"/>
      <point x="477.84999999999997" y="1057.185" type="line"/>
      <point x="481.85" y="810.645" type="line"/>
      <point x="480.63500000000005" y="789.505" type="line"/>
      <point x="480.63500000000005" y="175.65499999999997" type="line"/>
      <point x="484.42" y="172.215" type="line"/>
    </contour>
  </outline>
</glyph>
<glyph name="e" format="2">
  <advance width="655.05"/>
  <unicode hex="0065"/>
  <anchor x="347.1" y="0.0" name="bottom"/>
  <anchor x="565.5450000000001" y="10.0" name="ogonek"/>
  <anchor x="338.38" y="996.28" name="top"/>
  <outline>
    <contour>
      <point x="370.51" y="-13.785" type="curve" smooth="yes"/>
      <point x="454.07" y="-13.785"/>
      <point x="525.2" y="11.290000000000001"/>
      <point x="574.1899999999999" y="42.71999999999999" type="curve"/>
      <point x="584.6850000000001" y="173.07" type="line"/>
      <point x="532.19" y="138.565"/>
      <point x="470.12500000000006" y="113.06"/>
      <point x="398.415" y="113.06" type="curve" smooth="yes"/>
      <point x="279.91999999999996" y="113.06"/>
      <point x="216.275" y="175.93"/>
      <point x="216.275" y="310.09" type="curve" smooth="yes"/>
      <point x="216.275" y="469.0" type="line"/>
      <point x="216.275" y="494.915" type="line"/>
      <point x="216.275" y="716.8149999999999" type="line" smooth="yes"/>
      <point x="216.275" y="834.6949999999999"/>
      <point x="251.79" y="892.2850000000001"/>
      <point x="336.24" y="892.2850000000001" type="curve" smooth="yes"/>
      <point x="419.3349999999999" y="892.2850000000001"/>
      <point x="456.205" y="834.6949999999999"/>
      <point x="456.205" y="716.8149999999999" type="curve" smooth="yes"/>
      <point x="456.205" y="629.59"/>
      <point x="456.20500000000004" y="541.45"/>
      <point x="456.205" y="426.245" type="curve"/>
      <point x="586.545" y="426.245" type="line"/>
      <point x="593.685" y="483.245"/>
      <point x="595.255" y="533.095"/>
      <point x="595.255" y="587.0200000000001" type="curve" smooth="yes"/>
      <point x="595.255" y="701.1149999999999" type="line" smooth="yes"/>
      <point x="595.255" y="901.4399999999999"/>
      <point x="510.415" y="1012.4200000000001"/>
      <point x="336.24" y="1012.4200000000001" type="curve" smooth="yes"/>
      <point x="159.14000000000001" y="1012.4200000000001"/>
      <point x="73.3" y="906.1500000000001"/>
      <point x="73.3" y="702.6850000000001" type="curve" smooth="yes"/>
      <point x="73.3" y="322.435" type="line" smooth="yes"/>
      <point x="73.3" y="98.55"/>
      <point x="174.85" y="-13.785"/>
    </contour>
    <contour>
      <point x="161.735" y="426.245" type="line"/>
      <point x="552.1350000000001" y="426.245" type="line"/>
      <point x="552.1350000000001" y="541.6700000000001" type="line"/>
      <point x="161.735" y="541.6700000000001" type="line"/>
    </contour>
  </outline>
</glyph>
<glyph name="f" format="2">
  <advance width="503.025"/>
  <unicode hex="0066"/>
  <anchor x="251.90500000000003" y="0.0" name="bottom"/>
  <anchor x="251.90500000000003" y="1334.0" name="top"/>
  <outline>
    <contour>
      <point x="316.34499999999997" y="1352.1399999999999" type="curve" smooth="yes"/>
      <point x="177.72" y="1352.1399999999999"/>
      <point x="98.94500000000001" y="1276.4950000000001"/>
      <point x="98.94500000000001" y="1150.71" type="curve" smooth="yes"/>
      <point x="98.94500000000001" y="1145.71" type="line" smooth="yes"/>
      <point x="98.94500000000001" y="1073.925"/>
      <point x="130.505" y="1014.6350000000001"/>
      <point x="165.84" y="982.055" type="curve"/>
      <point x="165.84" y="965.635" type="line"/>
      <point x="263.995" y="964.355" type="line"/>
      <point x="249.425" y="1004.01"/>
      <point x="237.21" y="1046.095"/>
      <point x="237.21" y="1095.825" type="curve" smooth="yes"/>
      <point x="237.21" y="1100.255" type="line" smooth="yes"/>
      <point x="237.21" y="1183.705"/>
      <point x="280.93" y="1232.0049999999999"/>
      <point x="365.015" y="1232.0049999999999" type="curve" smooth="yes"/>
      <point x="414.95" y="1232.0049999999999"/>
      <point x="449.95000000000005" y="1219.3600000000001"/>
      <point x="482.595" y="1205.5" type="curve"/>
      <point x="471.315" y="1316.6450000000002" type="line"/>
      <point x="435.39" y="1335.215"/>
      <point x="382.47499999999997" y="1352.1399999999999"/>
    </contour>
    <contour>
      <point x="126.16000000000001" y="0.0" type="line"/>
      <point x="270.705" y="0.0" type="line"/>
      <point x="270.705" y="930.9449999999999" type="line"/>
      <point x="126.16000000000001" y="930.9449999999999" type="line"/>
    </contour>
    <contour>
      <point x="17.645" y="858.36" type="line"/>
      <point x="470.45500000000004" y="858.36" type="line"/>
      <point x="480.95" y="977.495" type="line"/>
      <point x="242.79" y="977.495" type="line"/>
      <point x="191.4" y="976.71" type="line"/>
      <point x="17.645" y="977.495" type="line"/>
    </contour>
  </outline>
</glyph>
<glyph name="g" format="2">
  <advance width="668.0600000000001"/>
  <unicode hex="0067"/>
  <anchor x="340.60499999999996" y="-350.0" name="bottom"/>
  <anchor x="338.17500000000007" y="996.28" name="top"/>
  <outline>
    <contour>
      <point x="331.96000000000004" y="239.045" type="curve"/>
      <point x="500.78000000000003" y="239.045"/>
      <point x="589.76" y="334.035"/>
      <point x="589.76" y="520.52" type="curve" smooth="yes"/>
      <point x="589.76" y="683.07" type="line" smooth="yes"/>
      <point x="589.76" y="805.64"/>
      <point x="549.62" y="881.725"/>
      <point x="446.6000000000001" y="903.93" type="curve"/>
      <point x="447.89" y="909.9200000000001" type="line"/>
      <point x="655.48" y="903.5649999999999" type="line"/>
      <point x="655.48" y="1020.2049999999999" type="line"/>
      <point x="345.24" y="1008.0649999999999" type="line" smooth="yes"/>
      <point x="134.20499999999998" y="999.71"/>
      <point x="71.80499999999999" y="874.4300000000001"/>
      <point x="71.80499999999999" y="712.89" type="curve" smooth="yes"/>
      <point x="71.80499999999999" y="519.23" type="line" smooth="yes"/>
      <point x="71.80499999999999" y="333.82"/>
      <point x="176.56" y="239.045"/>
    </contour>
    <contour>
      <point x="331.11" y="-248.93" type="line" smooth="yes"/>
      <point x="231.165" y="-248.93"/>
      <point x="173.36" y="-206.92"/>
      <point x="173.36" y="-132.47" type="curve" smooth="yes"/>
      <point x="173.36" y="-130.04" type="line" smooth="yes"/>
      <point x="173.36" y="-56.44"/>
      <point x="223.65999999999997" y="-16.215"/>
      <point x="312.045" y="5.430000000000002" type="curve"/>
      <point x="274.345" y="4.429999999999999" type="line"/>
      <point x="390.315" y="-19.634999999999998" type="line" smooth="yes"/>
      <point x="479.915" y="-38.355000000000004"/>
      <point x="517.2049999999999" y="-70.86999999999999"/>
      <point x="517.2049999999999" y="-134.965" type="curve" smooth="yes"/>
      <point x="517.2049999999999" y="-137.395" type="line" smooth="yes"/>
      <point x="517.2049999999999" y="-212.705"/>
      <point x="460.18499999999995" y="-248.93"/>
      <point x="360.23999999999995" y="-248.93" type="curve" smooth="yes"/>
    </contour>
    <contour>
      <point x="324.04499999999996" y="-365.925" type="curve" smooth="yes"/>
      <point x="355.53" y="-365.925" type="line" smooth="yes"/>
      <point x="537.4899999999999" y="-365.925"/>
      <point x="647.19" y="-288.79499999999996"/>
      <point x="647.19" y="-143.245" type="curve" smooth="yes"/>
      <point x="647.19" y="-136.105" type="line" smooth="yes"/>
      <point x="647.19" y="-11.555000000000005"/>
      <point x="589.77" y="61.35999999999999"/>
      <point x="430.93" y="94.93" type="curve" smooth="yes"/>
      <point x="308.81" y="120.85500000000002" type="line" smooth="yes"/>
      <point x="244.65" y="134.35999999999999"/>
      <point x="215.5" y="152.295"/>
      <point x="215.5" y="188.52" type="curve" smooth="yes"/>
      <point x="215.5" y="189.735" type="line" smooth="yes"/>
      <point x="215.5" y="225.895"/>
      <point x="246.72500000000002" y="244.26"/>
      <point x="299.53000000000003" y="244.26000000000002" type="curve"/>
      <point x="330.25" y="244.26000000000002" type="line"/>
      <point x="205.15000000000003" y="279.96000000000004" type="line"/>
      <point x="205.15000000000003" y="260.83" type="line"/>
      <point x="132.80499999999998" y="251.905"/>
      <point x="81.59" y="216.98000000000002"/>
      <point x="81.59" y="149.84" type="curve" smooth="yes"/>
      <point x="81.59" y="147.84" type="line" smooth="yes"/>
      <point x="81.59" y="77.91499999999999"/>
      <point x="132.80499999999998" y="37.42000000000001"/>
      <point x="213.75000000000003" y="20.419999999999998" type="curve"/>
      <point x="212.675" y="14.860000000000003" type="line"/>
      <point x="117.665" y="-5.924999999999998"/>
      <point x="44.945" y="-56.85999999999999"/>
      <point x="44.945" y="-164.58" type="curve" smooth="yes"/>
      <point x="44.945" y="-168.58" type="line" smooth="yes"/>
      <point x="44.945" y="-301.14000000000004"/>
      <point x="150.29000000000002" y="-365.925"/>
    </contour>
    <contour>
      <point x="331.96" y="349.54499999999996" type="curve" smooth="yes"/>
      <point x="246.725" y="349.54499999999996"/>
      <point x="210.07" y="411.63"/>
      <point x="210.07" y="523.66" type="curve" smooth="yes"/>
      <point x="210.07" y="722.3100000000001" type="line" smooth="yes"/>
      <point x="210.07" y="833.9100000000001"/>
      <point x="246.94" y="894.21"/>
      <point x="331.96" y="894.21" type="curve" smooth="yes"/>
      <point x="335.035" y="894.21" type="line" smooth="yes"/>
      <point x="416.625" y="894.21"/>
      <point x="452.28" y="830.91"/>
      <point x="452.28" y="724.74" type="curve" smooth="yes"/>
      <point x="452.28" y="523.66" type="line" smooth="yes"/>
      <point x="452.28" y="411.63"/>
      <point x="415.4100000000001" y="349.54499999999996"/>
    </contour>
  </outline>
</glyph>
<glyph name="h" format="2">
  <advance width="721.125"/>
  <unicode hex="0068"/>
  <anchor x="361.455" y="0.0" name="bottom"/>
  <anchor x="361.455" y="667.0" name="center"/>
  <anchor x="165.11" y="1330.075" name="top"/>
  <outline>
    <contour>
      <point x="490.28" y="0.0" type="line"/>
      <point x="634.825" y="0.0" type="line"/>
      <point x="634.825" y="729.01" type="line" smooth="yes"/>
      <point x="634.825" y="914.9250000000001"/>
      <point x="573.47" y="1010.065"/>
      <point x="435.05000000000007" y="1010.065" type="curve" smooth="yes"/>
      <point x="314.48" y="1010.065"/>
      <point x="259.62" y="939.98"/>
      <point x="239.265" y="843.755" type="curve"/>
      <point x="193.005" y="843.755" type="line"/>
      <point x="235.275" y="739.665" type="line"/>
      <point x="250.78" y="825.695"/>
      <point x="292.79" y="888.3599999999999"/>
      <point x="371.74500000000006" y="888.3599999999999" type="curve" smooth="yes"/>
      <point x="458.8399999999999" y="888.3599999999999"/>
      <point x="490.28" y="826.5550000000001"/>
      <point x="490.28" y="711.3100000000001" type="curve" smooth="yes"/>
    </contour>
    <contour>
      <point x="92.72999999999999" y="0.0" type="line"/>
      <point x="237.275" y="0.0" type="line"/>
      <point x="237.275" y="789.235" type="line"/>
      <point x="232.49" y="811.2149999999999" type="line"/>
      <point x="236.48999999999998" y="1057.1850000000002" type="line"/>
      <point x="236.48999999999998" y="1330.075" type="line"/>
      <point x="92.72999999999999" y="1330.075" type="line"/>
    </contour>
  </outline>
</glyph>
<glyph name="i" format="2">
  <advance width="337.29499999999996"/>
  <unicode hex="0069"/>
  <anchor x="168.755" y="0.0" name="bottom"/>
  <anchor x="276.145" y="0.0" name="ogonek"/>
  <outline>
    <contour>
      <point x="96.37499999999999" y="0.0" type="line"/>
      <point x="240.92" y="0.0" type="line"/>
      <point x="240.92" y="996.28" type="line"/>
      <point x="96.37499999999999" y="996.28" type="line"/>
    </contour>
    <contour>
      <point x="168.755" y="1128.61" type="curve" smooth="yes"/>
      <point x="224.29500000000002" y="1128.61"/>
      <point x="248.565" y="1163.31"/>
      <point x="248.565" y="1223.72" type="curve" smooth="yes"/>
      <point x="248.565" y="1236.15" type="line" smooth="yes"/>
      <point x="248.565" y="1296.56"/>
      <point x="224.29500000000002" y="1330.26"/>
      <point x="168.755" y="1330.26" type="curve" smooth="yes"/>
      <point x="113.215" y="1330.26"/>
      <point x="88.72999999999999" y="1296.56"/>
      <point x="88.72999999999999" y="1236.15" type="curve" smooth="yes"/>
      <point x="88.72999999999999" y="1223.72" type="line" smooth="yes"/>
      <point x="88.72999999999999" y="1163.31"/>
      <point x="113.215" y="1128.61"/>
    </contour>
  </outline>
</glyph>
<glyph name="j" format="2">
  <advance width="342.51000000000005"/>
  <unicode hex="006A"/>
  <outline>
    <contour>
      <point x="101.59" y="209.665" type="line"/>
      <point x="246.135" y="209.45" type="line"/>
      <point x="246.135" y="996.28" type="line"/>
      <point x="101.59" y="996.28" type="line"/>
    </contour>
    <contour>
      <point x="173.97" y="1123.8999999999999" type="curve" smooth="yes"/>
      <point x="229.51" y="1123.8999999999999"/>
      <point x="253.77999999999997" y="1158.6"/>
      <point x="253.77999999999997" y="1219.01" type="curve" smooth="yes"/>
      <point x="253.77999999999997" y="1231.44" type="line" smooth="yes"/>
      <point x="253.77999999999997" y="1291.8500000000001"/>
      <point x="229.51" y="1325.55"/>
      <point x="173.97" y="1325.55" type="curve" smooth="yes"/>
      <point x="118.42999999999999" y="1325.55"/>
      <point x="93.945" y="1291.8500000000001"/>
      <point x="93.945" y="1231.44" type="curve" smooth="yes"/>
      <point x="93.945" y="1219.01" type="line" smooth="yes"/>
      <point x="93.945" y="1158.6000000000001"/>
      <point x="118.42999999999999" y="1123.8999999999999"/>
    </contour>
    <component base="jbottom"/>
  </outline>
</glyph>
<glyph name="k" format="2">
  <advance width="665.1800000000001"/>
  <unicode hex="006B"/>
  <anchor x="345.24" y="0.0" name="bottom"/>
  <anchor x="333.09000000000003" y="1330.075" name="top"/>
  <outline>
    <contour>
      <point x="495.7" y="0.0" type="line"/>
      <point x="646.17" y="0.0" type="line"/>
      <point x="396.775" y="552.85" type="line"/>
      <point x="396.775" y="512.58" type="line"/>
      <point x="633.88" y="996.28" type="line"/>
      <point x="485.76500000000004" y="996.28" type="line"/>
      <point x="286.21" y="592.745" type="line"/>
      <point x="223.845" y="592.745" type="line"/>
      <point x="223.845" y="467.9" type="line"/>
      <point x="282.28499999999997" y="467.9" type="line"/>
    </contour>
    <contour>
      <point x="92.72999999999999" y="0.0" type="line"/>
      <point x="237.27499999999998" y="0.0" type="line"/>
      <point x="237.27499999999998" y="1330.075" type="line"/>
      <point x="92.72999999999999" y="1330.075" type="line"/>
    </contour>
  </outline>
</glyph>
<glyph name="l" format="2">
  <advance width="337.29499999999996"/>
  <unicode hex="006C"/>
  <anchor x="169.54" y="0.0" name="bottom"/>
  <anchor x="169.54" y="667.0" name="center"/>
  <anchor x="169.54" y="1330.075" name="top"/>
  <anchor x="360.305" y="1330.075" name="topright"/>
  <outline>
    <contour>
      <point x="96.375" y="0.0" type="line"/>
      <point x="240.92000000000002" y="0.0" type="line"/>
      <point x="240.92000000000002" y="1330.075" type="line"/>
      <point x="96.375" y="1330.075" type="line"/>
    </contour>
  </outline>
</glyph>
<glyph name="m" format="2">
  <advance width="1078.45"/>
  <unicode hex="006D"/>
  <anchor x="538.94" y="0.0" name="bottom"/>
  <anchor x="538.94" y="996.28" name="top"/>
  <outline>
    <contour>
      <point x="847.605" y="0.0" type="line"/>
      <point x="992.1500000000001" y="0.0" type="line"/>
      <point x="992.1500000000001" y="736.1600000000001" type="line" smooth="yes"/>
      <point x="992.1500000000001" y="917.14"/>
      <point x="934.225" y="1010.065"/>
      <point x="799.665" y="1010.065" type="curve" smooth="yes"/>
      <point x="673.46" y="1010.065"/>
      <point x="623.385" y="932.9150000000001"/>
      <point x="603.815" y="844.4" type="curve"/>
      <point x="588.18" y="844.4" type="line"/>
      <point x="610.4599999999999" y="739.095" type="line"/>
      <point x="624.965" y="825.91"/>
      <point x="665.3299999999999" y="888.3599999999999"/>
      <point x="740.4999999999999" y="888.3599999999999" type="curve" smooth="yes"/>
      <point x="818.1650000000001" y="888.3599999999999"/>
      <point x="847.605" y="828.77"/>
      <point x="847.605" y="721.88" type="curve" smooth="yes"/>
    </contour>
    <contour>
      <point x="92.72999999999999" y="0.0" type="line"/>
      <point x="237.275" y="0.0" type="line"/>
      <point x="237.275" y="824.28" type="line"/>
      <point x="230.35000000000002" y="828.99" type="line"/>
      <point x="236.705" y="996.28" type="line"/>
      <point x="92.72999999999999" y="996.28" type="line"/>
    </contour>
    <contour>
      <point x="470.56" y="0.0" type="line"/>
      <point x="614.3199999999999" y="0.0" type="line"/>
      <point x="614.3199999999999" y="731.4499999999999" type="line" smooth="yes"/>
      <point x="614.3199999999999" y="761.02"/>
      <point x="610.75" y="788.0849999999999"/>
      <point x="605.18" y="811.44" type="curve"/>
      <point x="588.8249999999999" y="941.57"/>
      <point x="534.395" y="1010.065"/>
      <point x="423.61999999999995" y="1010.065" type="curve" smooth="yes"/>
      <point x="307.695" y="1010.065"/>
      <point x="257.26500000000004" y="939.5500000000001"/>
      <point x="236.91" y="843.11" type="curve"/>
      <point x="200.71500000000003" y="843.11" type="line"/>
      <point x="234.49" y="737.4499999999999" type="line"/>
      <point x="248.995" y="825.48"/>
      <point x="289.36" y="888.3599999999999"/>
      <point x="363.45500000000004" y="888.3599999999999" type="curve" smooth="yes"/>
      <point x="441.55" y="888.3599999999999"/>
      <point x="470.56" y="828.77"/>
      <point x="470.56" y="721.88" type="curve" smooth="yes"/>
    </contour>
  </outline>
</glyph>
<glyph name="n" format="2">
  <advance width="721.125"/>
  <unicode hex="006E"/>
  <anchor x="361.455" y="0.0" name="bottom"/>
  <anchor x="361.455" y="996.28" name="top"/>
  <outline>
    <contour>
      <point x="490.28" y="0.0" type="line"/>
      <point x="634.825" y="0.0" type="line"/>
      <point x="634.825" y="729.01" type="line" smooth="yes"/>
      <point x="634.825" y="914.9250000000001"/>
      <point x="573.47" y="1010.065"/>
      <point x="435.05000000000007" y="1010.065" type="curve" smooth="yes"/>
      <point x="312.845" y="1010.065"/>
      <point x="258.695" y="942.345"/>
      <point x="236.91" y="842.6800000000001" type="curve"/>
      <point x="201.145" y="842.6800000000001" type="line"/>
      <point x="234.49" y="738.02" type="line"/>
      <point x="250.85500000000002" y="828.705"/>
      <point x="294.51" y="888.3599999999999"/>
      <point x="372.53000000000003" y="888.3599999999999" type="curve" smooth="yes"/>
      <point x="458.8399999999999" y="888.3599999999999"/>
      <point x="490.28" y="826.5550000000001"/>
      <point x="490.28" y="711.3100000000001" type="curve" smooth="yes"/>
    </contour>
    <contour>
      <point x="92.72999999999999" y="0.0" type="line"/>
      <point x="237.275" y="0.0" type="line"/>
      <point x="237.275" y="825.1400000000001" type="line"/>
      <point x="230.35000000000002" y="830.635" type="line"/>
      <point x="236.705" y="996.28" type="line"/>
      <point x="92.72999999999999" y="996.28" type="line"/>
    </contour>
  </outline>
</glyph>
<glyph name="o" format="2">
  <advance width="697.695"/>
  <unicode hex="006F"/>
  <anchor x="349.24000000000007" y="0.0" name="bottom"/>
  <anchor x="349.23999999999995" y="498.14" name="center"/>
  <anchor x="518.0600000000001" y="3.925" name="ogonek"/>
  <anchor x="349.24000000000007" y="996.28" name="top"/>
  <anchor x="648.4499999999999" y="996.28" name="topright"/>
  <outline>
    <contour>
      <point x="349.24000000000007" y="-16.14" type="curve" smooth="yes"/>
      <point x="530.845" y="-16.14"/>
      <point x="624.395" y="94.7"/>
      <point x="624.395" y="301.1" type="curve"/>
      <point x="624.395" y="695.965" type="line"/>
      <point x="624.395" y="902.365"/>
      <point x="530.845" y="1012.4200000000001"/>
      <point x="349.24000000000007" y="1012.4200000000001" type="curve" smooth="yes"/>
      <point x="166.85" y="1012.4200000000001"/>
      <point x="73.3" y="902.365"/>
      <point x="73.3" y="695.965" type="curve"/>
      <point x="73.3" y="301.1" type="line"/>
      <point x="73.3" y="94.7"/>
      <point x="166.85000000000002" y="-16.14"/>
    </contour>
    <contour>
      <point x="349.24000000000007" y="103.995" type="curve" smooth="yes"/>
      <point x="257.14500000000004" y="103.995"/>
      <point x="217.845" y="166.94"/>
      <point x="217.845" y="290.895" type="curve" smooth="yes"/>
      <point x="217.845" y="706.17" type="line" smooth="yes"/>
      <point x="217.845" y="830.125"/>
      <point x="257.14500000000004" y="892.2850000000001"/>
      <point x="349.24000000000007" y="892.2850000000001" type="curve" smooth="yes"/>
      <point x="440.54999999999995" y="892.2850000000001"/>
      <point x="479.84999999999997" y="830.125"/>
      <point x="479.84999999999997" y="706.17" type="curve" smooth="yes"/>
      <point x="479.84999999999997" y="290.895" type="line" smooth="yes"/>
      <point x="479.84999999999997" y="166.94"/>
      <point x="440.55000000000007" y="103.995"/>
    </contour>
  </outline>
</glyph>
<glyph name="p" format="2">
  <advance width="714.3399999999999"/>
  <unicode hex="0070"/>
  <anchor x="357.67" y="0.0" name="bottom"/>
  <anchor x="357.67" y="996.28" name="top"/>
  <outline>
    <contour>
      <point x="424.90999999999997" y="-13.785" type="curve" smooth="yes"/>
      <point x="576.255" y="-13.785"/>
      <point x="640.255" y="98.70000000000002"/>
      <point x="640.255" y="311.59499999999997" type="curve" smooth="yes"/>
      <point x="640.255" y="688.5450000000001" type="line" smooth="yes"/>
      <point x="640.255" y="899.225"/>
      <point x="576.47" y="1010.065"/>
      <point x="425.62999999999994" y="1010.065" type="curve" smooth="yes"/>
      <point x="309.77" y="1010.065"/>
      <point x="256.695" y="939.98"/>
      <point x="236.48" y="843.3249999999999" type="curve"/>
      <point x="203.855" y="843.3249999999999" type="line"/>
      <point x="231.70499999999998" y="742.375" type="line"/>
      <point x="248.64" y="828.835"/>
      <point x="291.22" y="891.5"/>
      <point x="371.74499999999995" y="891.5" type="curve" smooth="yes"/>
      <point x="461.055" y="891.5"/>
      <point x="495.71000000000004" y="824.985"/>
      <point x="495.71000000000004" y="699.105" type="curve" smooth="yes"/>
      <point x="495.71000000000004" y="304.53000000000003" type="line" smooth="yes"/>
      <point x="495.71000000000004" y="175.65"/>
      <point x="458.40999999999997" y="107.91999999999999"/>
      <point x="370.74500000000006" y="107.91999999999999" type="curve" smooth="yes"/>
      <point x="281.08" y="107.91999999999999"/>
      <point x="235.77999999999997" y="180.435"/>
      <point x="233.705" y="292.53000000000003" type="curve"/>
      <point x="192.575" y="158.54500000000002" type="line"/>
      <point x="238.405" y="158.54500000000002" type="line"/>
      <point x="256.53499999999997" y="59.879999999999995"/>
      <point x="310.115" y="-13.785"/>
    </contour>
    <contour>
      <point x="92.72999999999999" y="-350.0" type="line"/>
      <point x="236.48999999999998" y="-350.0" type="line"/>
      <point x="236.48999999999998" y="-40.55" type="line"/>
      <point x="232.48999999999998" y="183.485" type="line"/>
      <point x="233.705" y="209.83" type="line"/>
      <point x="233.705" y="783.2349999999999" type="line"/>
      <point x="228.78000000000003" y="789.0949999999999" type="line"/>
      <point x="236.705" y="996.28" type="line"/>
      <point x="92.72999999999999" y="996.28" type="line"/>
    </contour>
  </outline>
</glyph>
<glyph name="q" format="2">
  <advance width="714.3399999999999"/>
  <unicode hex="0071"/>
  <anchor x="356.885" y="0.0" name="bottom"/>
  <anchor x="356.885" y="996.28" name="top"/>
  <outline>
    <contour>
      <point x="288.71" y="-13.785" type="curve" smooth="yes"/>
      <point x="401.71000000000004" y="-13.785"/>
      <point x="455.29" y="54.14999999999999"/>
      <point x="475.50500000000005" y="153.6" type="curve"/>
      <point x="506.91499999999996" y="153.6" type="line"/>
      <point x="482.63499999999993" y="257.475" type="line"/>
      <point x="465.485" y="167.575"/>
      <point x="421.615" y="107.91999999999999"/>
      <point x="343.38000000000005" y="107.91999999999999" type="curve" smooth="yes"/>
      <point x="253.285" y="107.91999999999999"/>
      <point x="218.63" y="174.865"/>
      <point x="218.63" y="301.39000000000004" type="curve" smooth="yes"/>
      <point x="218.63" y="694.675" type="line" smooth="yes"/>
      <point x="218.63" y="823.77"/>
      <point x="255.93" y="891.5"/>
      <point x="343.59499999999997" y="891.5" type="curve" smooth="yes"/>
      <point x="433.045" y="891.5"/>
      <point x="475.205" y="821.34"/>
      <point x="480.63500000000005" y="706.89" type="curve"/>
      <point x="514.765" y="837.735" type="line"/>
      <point x="478.29" y="837.735" type="line"/>
      <point x="459.94499999999994" y="936.4000000000001"/>
      <point x="407.365" y="1010.065"/>
      <point x="290.21500000000003" y="1010.065" type="curve" smooth="yes"/>
      <point x="138.085" y="1010.065"/>
      <point x="74.08500000000001" y="897.58"/>
      <point x="74.08500000000001" y="684.47" type="curve" smooth="yes"/>
      <point x="74.08500000000001" y="309.025" type="line" smooth="yes"/>
      <point x="74.08500000000001" y="97.485"/>
      <point x="137.87" y="-13.785"/>
    </contour>
    <contour>
      <point x="477.84999999999997" y="-350.0" type="line"/>
      <point x="621.61" y="-350.0" type="line"/>
      <point x="621.61" y="996.28" type="line"/>
      <point x="477.635" y="996.28" type="line"/>
      <point x="485.56" y="792.75" type="line"/>
      <point x="480.63500000000005" y="780.87" type="line"/>
      <point x="480.63500000000005" y="211.335" type="line"/>
      <point x="481.84999999999997" y="184.99" type="line"/>
      <point x="477.84999999999997" y="-40.55" type="line"/>
    </contour>
  </outline>
</glyph>
<glyph name="r" format="2">
  <advance width="475.57500000000005"/>
  <unicode hex="0072"/>
  <anchor x="166.11" y="0.0" name="bottom"/>
  <anchor x="270.83" y="996.28" name="top"/>
  <outline>
    <contour>
      <point x="235.06000000000003" y="635.76" type="line"/>
      <point x="249.70499999999998" y="774.23"/>
      <point x="322.135" y="845.465"/>
      <point x="419.50000000000006" y="845.465" type="curve" smooth="yes"/>
      <point x="437.28499999999997" y="845.465"/>
      <point x="452.5" y="843.4649999999999"/>
      <point x="463.93" y="841.25" type="curve"/>
      <point x="457.57500000000005" y="1001.85" type="line"/>
      <point x="446.57500000000005" y="1003.28"/>
      <point x="437.06999999999994" y="1004.495"/>
      <point x="425.78000000000003" y="1004.495" type="curve" smooth="yes"/>
      <point x="307.48999999999995" y="1004.495"/>
      <point x="247.33" y="921.325"/>
      <point x="231.76999999999998" y="786.93" type="curve"/>
      <point x="197.65" y="786.9300000000001" type="line"/>
    </contour>
    <contour>
      <point x="92.72999999999999" y="0.0" type="line"/>
      <point x="237.275" y="0.0" type="line"/>
      <point x="237.275" y="727.02" type="line"/>
      <point x="222.85500000000002" y="754.8599999999999" type="line"/>
      <point x="231.78" y="996.28" type="line"/>
      <point x="92.72999999999999" y="996.28" type="line"/>
    </contour>
  </outline>
</glyph>
<glyph name="s" format="2">
  <advance width="544.145"/>
  <unicode hex="0073"/>
  <anchor x="266.67999999999995" y="0.0" name="bottom"/>
  <anchor x="265.11" y="996.28" name="top"/>
  <outline>
    <contour>
      <point x="250.96999999999997" y="-13.785" type="curve" smooth="yes"/>
      <point x="414.93" y="-13.785"/>
      <point x="497.845" y="82.42"/>
      <point x="497.845" y="245.4" type="curve" smooth="yes"/>
      <point x="497.845" y="280.7" type="line" smooth="yes"/>
      <point x="497.845" y="416.26"/>
      <point x="450.5" y="478.47499999999997"/>
      <point x="327.21" y="554.615" type="curve" smooth="yes"/>
      <point x="227.76999999999998" y="616.26"/>
      <point x="186.48999999999998" y="651.345"/>
      <point x="186.48999999999998" y="738.16" type="curve" smooth="yes"/>
      <point x="186.48999999999998" y="756.17" type="line" smooth="yes"/>
      <point x="186.48999999999998" y="837.415"/>
      <point x="223.07" y="884.79"/>
      <point x="306.725" y="884.79" type="curve" smooth="yes"/>
      <point x="377.65000000000003" y="884.79"/>
      <point x="430.06999999999994" y="856.005"/>
      <point x="482.07000000000005" y="817.64" type="curve"/>
      <point x="471.575" y="949.345" type="line"/>
      <point x="429.295" y="982.99"/>
      <point x="368.94999999999993" y="1010.065"/>
      <point x="284.175" y="1010.065" type="curve" smooth="yes"/>
      <point x="127.85000000000001" y="1010.065"/>
      <point x="45.87" y="920.43"/>
      <point x="45.87" y="765.59" type="curve" smooth="yes"/>
      <point x="45.87" y="742.3" type="line" smooth="yes"/>
      <point x="45.87" y="610.225"/>
      <point x="91.01" y="541.02"/>
      <point x="215.44" y="466.665" type="curve" smooth="yes"/>
      <point x="340.23499999999996" y="392.02"/>
      <point x="356.43999999999994" y="351.14"/>
      <point x="356.43999999999994" y="278.27000000000004" type="curve" smooth="yes"/>
      <point x="356.43999999999994" y="248.53999999999996" type="line" smooth="yes"/>
      <point x="356.43999999999994" y="163.865"/>
      <point x="317.78499999999997" y="114.63"/>
      <point x="233.13" y="114.63" type="curve" smooth="yes"/>
      <point x="161.925" y="114.63"/>
      <point x="102.86000000000001" y="143.2"/>
      <point x="45.365" y="183.06" type="curve"/>
      <point x="55.86" y="43.29" type="line"/>
      <point x="99.06500000000001" y="14.074999999999998"/>
      <point x="167.26999999999998" y="-13.785"/>
    </contour>
  </outline>
</glyph>
<glyph name="t" format="2">
  <advance width="496.305"/>
  <unicode hex="0074"/>
  <anchor x="294.055" y="0.0" name="bottom"/>
  <anchor x="248.26" y="498.14" name="center"/>
  <anchor x="199.03500000000003" y="1226.72" name="top"/>
  <anchor x="367.97" y="1415.345" name="topright"/>
  <outline>
    <contour>
      <point x="328.04499999999996" y="-12.57" type="curve" smooth="yes"/>
      <point x="383.17499999999995" y="-12.57"/>
      <point x="432.885" y="-0.5700000000000001"/>
      <point x="466.95000000000005" y="16.43" type="curve"/>
      <point x="477.445" y="145.705" type="line"/>
      <point x="446.585" y="130.41500000000002"/>
      <point x="412.295" y="119.77"/>
      <point x="373.21999999999997" y="119.77" type="curve" smooth="yes"/>
      <point x="295.995" y="119.77"/>
      <point x="264.70500000000004" y="152.995"/>
      <point x="264.70500000000004" y="239.65" type="curve" smooth="yes"/>
      <point x="264.70500000000004" y="958.065" type="line"/>
      <point x="122.515" y="958.065" type="line"/>
      <point x="122.515" y="206.96" type="line" smooth="yes"/>
      <point x="122.515" y="62.345000000000006"/>
      <point x="186.86" y="-12.57"/>
    </contour>
    <contour>
      <point x="16.86" y="867.78" type="line"/>
      <point x="448.58500000000004" y="867.78" type="line"/>
      <point x="459.08" y="985.345" type="line"/>
      <point x="16.86" y="985.345" type="line"/>
    </contour>
    <contour>
      <point x="124.085" y="970.99" type="line"/>
      <point x="260.34999999999997" y="970.99" type="line"/>
      <point x="266.49" y="1251.2150000000001" type="line"/>
      <point x="124.085" y="1227.5800000000002" type="line"/>
    </contour>
  </outline>
</glyph>
<glyph name="u" format="2">
  <advance width="721.125"/>
  <unicode hex="0075"/>
  <anchor x="361.45500000000004" y="0.0" name="bottom"/>
  <anchor x="663.62" y="0.0" name="ogonek"/>
  <anchor x="361.45500000000004" y="996.28" name="top"/>
  <anchor x="707.8350000000002" y="996.28" name="topright"/>
  <outline>
    <contour>
      <point x="230.84499999999997" y="996.28" type="line"/>
      <point x="86.30000000000001" y="996.28" type="line"/>
      <point x="86.30000000000001" y="267.27000000000004" type="line" smooth="yes"/>
      <point x="86.30000000000001" y="81.355"/>
      <point x="147.655" y="-13.785"/>
      <point x="286.075" y="-13.785" type="curve" smooth="yes"/>
      <point x="408.28000000000003" y="-13.785"/>
      <point x="462.43" y="53.935"/>
      <point x="484.215" y="153.6" type="curve"/>
      <point x="519.98" y="153.6" type="line"/>
      <point x="486.635" y="258.26" type="line"/>
      <point x="470.27" y="167.575"/>
      <point x="426.615" y="107.91999999999999"/>
      <point x="348.595" y="107.91999999999999" type="curve" smooth="yes"/>
      <point x="262.285" y="107.91999999999999"/>
      <point x="230.84499999999997" y="169.725"/>
      <point x="230.84499999999997" y="284.97" type="curve" smooth="yes"/>
    </contour>
    <contour>
      <point x="628.3950000000001" y="996.28" type="line"/>
      <point x="483.85" y="996.28" type="line"/>
      <point x="483.85" y="171.14" type="line"/>
      <point x="490.775" y="165.645" type="line"/>
      <point x="484.42" y="0.0" type="line"/>
      <point x="628.3950000000001" y="0.0" type="line"/>
    </contour>
  </outline>
</glyph>
<glyph name="v" format="2">
  <advance width="663.555"/>
  <unicode hex="0076"/>
  <anchor x="331.885" y="0.0" name="bottom"/>
  <anchor x="331.885" y="996.28" name="top"/>
  <outline>
    <contour>
      <point x="339.455" y="101.295" type="line"/>
      <point x="324.09999999999997" y="101.295" type="line"/>
      <point x="185.63000000000002" y="996.28" type="line"/>
      <point x="39.870000000000005" y="996.28" type="line"/>
      <point x="212.89" y="0.0" type="line"/>
      <point x="450.6650000000001" y="0.0" type="line"/>
      <point x="623.685" y="996.28" type="line"/>
      <point x="477.925" y="996.28" type="line"/>
    </contour>
  </outline>
</glyph>
<glyph name="w" format="2">
  <advance width="1027.17"/>
  <unicode hex="0077"/>
  <anchor x="513.585" y="0.0" name="bottom"/>
  <anchor x="513.585" y="996.28" name="top"/>
  <outline>
    <contour>
      <point x="180.535" y="0.0" type="line"/>
      <point x="407.53499999999997" y="0.0" type="line"/>
      <point x="481.66" y="600.74" type="line"/>
      <point x="508.8" y="859.565" type="line"/>
      <point x="519.155" y="859.565" type="line"/>
      <point x="546.51" y="600.74" type="line"/>
      <point x="620.635" y="0.0" type="line"/>
      <point x="847.4200000000001" y="0.0" type="line"/>
      <point x="982.085" y="996.28" type="line"/>
      <point x="841.8199999999999" y="996.28" type="line"/>
      <point x="736.7799999999999" y="106.005" type="line"/>
      <point x="724.21" y="106.005" type="line"/>
      <point x="613.3100000000001" y="970.99" type="line"/>
      <point x="414.645" y="970.99" type="line"/>
      <point x="303.96000000000004" y="106.005" type="line"/>
      <point x="291.39000000000004" y="106.005" type="line"/>
      <point x="188.49" y="996.28" type="line"/>
      <point x="45.085" y="996.28" type="line"/>
    </contour>
  </outline>
</glyph>
<glyph name="x" format="2">
  <advance width="640.7600000000001"/>
  <unicode hex="0078"/>
  <anchor x="320.38000000000005" y="0.0" name="bottom"/>
  <anchor x="320.38000000000005" y="996.28" name="top"/>
  <outline>
    <contour>
      <point x="39.515" y="0.0" type="line"/>
      <point x="184.48999999999998" y="0.0" type="line"/>
      <point x="315.81" y="445.97499999999997" type="line"/>
      <point x="325.735" y="445.97499999999997" type="line"/>
      <point x="456.27" y="0.0" type="line"/>
      <point x="601.245" y="0.0" type="line"/>
      <point x="429.375" y="549.2700000000001" type="line"/>
      <point x="429.375" y="495.085" type="line"/>
      <point x="598.03" y="996.28" type="line"/>
      <point x="454.05500000000006" y="996.28" type="line"/>
      <point x="325.735" y="584.9599999999999" type="line"/>
      <point x="315.81" y="584.9599999999999" type="line"/>
      <point x="186.705" y="996.28" type="line"/>
      <point x="42.73" y="996.28" type="line"/>
      <point x="211.385" y="495.08500000000004" type="line"/>
      <point x="211.385" y="549.27" type="line"/>
    </contour>
  </outline>
</glyph>
<glyph name="y" format="2">
  <advance width="662.7700000000001"/>
  <unicode hex="0079"/>
  <anchor x="537.235" y="-21.775" name="bottom"/>
  <anchor x="331.885" y="996.28" name="top"/>
  <outline>
    <contour>
      <point x="398.985" y="145.015" type="line"/>
      <point x="319.39000000000004" y="145.015" type="line"/>
      <point x="185.63000000000002" y="996.28" type="line"/>
      <point x="39.870000000000005" y="996.28" type="line"/>
      <point x="212.89000000000001" y="40.58" type="line"/>
      <point x="386.92" y="40.58" type="line"/>
      <point x="316.615" y="89.98" type="line"/>
      <point x="233.755" y="-350.0" type="line"/>
      <point x="372.59" y="-350.0" type="line"/>
      <point x="622.9000000000001" y="996.28" type="line"/>
      <point x="477.14000000000004" y="996.28" type="line"/>
      <point x="331.175" y="133.66" type="line"/>
    </contour>
  </outline>
</glyph>
<glyph name="z" format="2">
  <advance width="566.715"/>
  <unicode hex="007A"/>
  <anchor x="282.25" y="0.0" name="bottom"/>
  <anchor x="283.46500000000003" y="498.14" name="center"/>
  <anchor x="282.25" y="996.28" name="top"/>
  <outline>
    <contour>
      <point x="511.27500000000003" y="126.41499999999999" type="line"/>
      <point x="202.12500000000003" y="126.41499999999999" type="line"/>
      <point x="509.705" y="880.5" type="line"/>
      <point x="509.705" y="996.28" type="line"/>
      <point x="55.794999999999995" y="996.28" type="line"/>
      <point x="55.794999999999995" y="871.4350000000001" type="line"/>
      <point x="361.02" y="871.4350000000001" type="line"/>
      <point x="54.225" y="117.35000000000001" type="line"/>
      <point x="54.225" y="0.0" type="line"/>
      <point x="511.27500000000003" y="0.0" type="line"/>
    </contour>
  </outline>
</glyph>
<glyph name="braceleft" format="2">
  <advance width="499.45500000000004"/>
  <unicode hex="007B"/>
  <outline>
    <contour>
      <point x="467.45500000000004" y="1337.57" type="line"/>
      <point x="429.82000000000005" y="1349.355"/>
      <point x="395.53999999999996" y="1356.355"/>
      <point x="357.755" y="1356.355" type="curve" smooth="yes"/>
      <point x="219.075" y="1356.355"/>
      <point x="150.665" y="1281.365"/>
      <point x="150.665" y="1114.33" type="curve" smooth="yes"/>
      <point x="150.665" y="1017.59"/>
      <point x="164.45" y="860.225"/>
      <point x="164.45" y="783.99" type="curve" smooth="yes"/>
      <point x="164.45" y="683.1850000000001"/>
      <point x="135.45" y="635.9599999999999"/>
      <point x="46.580000000000005" y="626.53" type="curve"/>
      <point x="46.580000000000005" y="489.47" type="line"/>
      <point x="135.45" y="479.825"/>
      <point x="164.45" y="433.03000000000003"/>
      <point x="164.45" y="332.22499999999997" type="curve" smooth="yes"/>
      <point x="164.45" y="257.99"/>
      <point x="150.665" y="97.41000000000001"/>
      <point x="150.665" y="-2.5450000000000017" type="curve" smooth="yes"/>
      <point x="150.665" y="-169.365"/>
      <point x="219.50499999999997" y="-244.57"/>
      <point x="357.755" y="-244.57" type="curve" smooth="yes"/>
      <point x="395.53999999999996" y="-244.57"/>
      <point x="429.82000000000005" y="-237.57000000000002"/>
      <point x="467.45500000000004" y="-225.57" type="curve"/>
      <point x="467.45500000000004" y="-112.285" type="line"/>
      <point x="447.02500000000003" y="-120.14500000000001"/>
      <point x="421.52000000000004" y="-126.005"/>
      <point x="394.29499999999996" y="-126.005" type="curve" smooth="yes"/>
      <point x="322.79" y="-126.005"/>
      <point x="292.07000000000005" y="-83.855"/>
      <point x="292.07000000000005" y="8.874999999999996" type="curve" smooth="yes"/>
      <point x="292.07000000000005" y="89.905"/>
      <point x="305.07" y="248.915"/>
      <point x="305.07" y="331.87" type="curve" smooth="yes"/>
      <point x="305.07" y="460.58"/>
      <point x="271.78000000000003" y="536.075"/>
      <point x="153.07999999999998" y="556.645" type="curve"/>
      <point x="163.145" y="526.31" type="line"/>
      <point x="163.145" y="562.14" type="line"/>
      <point x="268.565" y="583.85"/>
      <point x="305.07" y="654.205"/>
      <point x="305.07" y="784.13" type="curve" smooth="yes"/>
      <point x="305.07" y="865.3000000000001"/>
      <point x="292.07000000000005" y="1022.31"/>
      <point x="292.07000000000005" y="1102.9099999999999" type="curve" smooth="yes"/>
      <point x="292.07000000000005" y="1195.64"/>
      <point x="322.79" y="1237.79"/>
      <point x="394.29499999999996" y="1237.79" type="curve" smooth="yes"/>
      <point x="421.52000000000004" y="1237.79"/>
      <point x="447.02500000000003" y="1231.9299999999998"/>
      <point x="467.45500000000004" y="1224.07" type="curve"/>
    </contour>
  </outline>
</glyph>
<glyph name="bar" format="2">
  <advance width="376.305"/>
  <unicode hex="007C"/>
  <outline>
    <contour>
      <point x="254.71499999999997" y="-422.655" type="line"/>
      <point x="254.71499999999997" y="1426.0" type="line"/>
      <point x="121.58999999999999" y="1426.0" type="line"/>
      <point x="121.58999999999999" y="-422.655" type="line"/>
    </contour>
  </outline>
</glyph>
<glyph name="braceright" format="2">
  <advance width="499.45500000000004"/>
  <unicode hex="007D"/>
  <outline>
    <contour>
      <point x="32.0" y="1337.57" type="curve"/>
      <point x="32.0" y="1224.07" type="line"/>
      <point x="52.43" y="1231.9299999999998"/>
      <point x="77.935" y="1237.79"/>
      <point x="105.16" y="1237.79" type="curve" smooth="yes"/>
      <point x="176.66499999999996" y="1237.79"/>
      <point x="207.38500000000002" y="1195.64"/>
      <point x="207.38500000000002" y="1102.9099999999999" type="curve" smooth="yes"/>
      <point x="207.38500000000002" y="1022.31"/>
      <point x="194.385" y="865.3000000000001"/>
      <point x="194.385" y="784.13" type="curve" smooth="yes"/>
      <point x="194.385" y="654.205"/>
      <point x="230.89" y="583.85"/>
      <point x="336.31" y="562.14" type="curve"/>
      <point x="336.31" y="526.31" type="line"/>
      <point x="346.375" y="556.645" type="line"/>
      <point x="227.67499999999998" y="536.075"/>
      <point x="194.385" y="460.58"/>
      <point x="194.385" y="331.87" type="curve" smooth="yes"/>
      <point x="194.385" y="248.915"/>
      <point x="207.38500000000002" y="89.905"/>
      <point x="207.38500000000002" y="8.874999999999996" type="curve" smooth="yes"/>
      <point x="207.38500000000002" y="-83.855"/>
      <point x="176.66499999999996" y="-126.005"/>
      <point x="105.16000000000001" y="-126.005" type="curve" smooth="yes"/>
      <point x="77.935" y="-126.005"/>
      <point x="52.43" y="-120.14500000000001"/>
      <point x="32.0" y="-112.285" type="curve"/>
      <point x="32.0" y="-225.57" type="line"/>
      <point x="69.63499999999999" y="-237.57000000000002"/>
      <point x="103.915" y="-244.57"/>
      <point x="141.70000000000002" y="-244.57" type="curve" smooth="yes"/>
      <point x="279.95" y="-244.57"/>
      <point x="348.79" y="-169.365"/>
      <point x="348.79" y="-2.5450000000000017" type="curve" smooth="yes"/>
      <point x="348.79" y="97.41000000000001"/>
      <point x="335.005" y="257.99"/>
      <point x="335.005" y="332.22499999999997" type="curve" smooth="yes"/>
      <point x="335.005" y="433.03000000000003"/>
      <point x="364.005" y="479.825"/>
      <point x="452.87500000000006" y="489.47" type="curve"/>
      <point x="452.87500000000006" y="626.53" type="line"/>
      <point x="364.005" y="635.9599999999999"/>
      <point x="335.005" y="683.1850000000001"/>
      <point x="335.005" y="783.99" type="curve" smooth="yes"/>
      <point x="335.005" y="860.225"/>
      <point x="348.79" y="1017.59"/>
      <point x="348.79" y="1114.33" type="curve" smooth="yes"/>
      <point x="348.79" y="1281.365"/>
      <point x="280.38" y="1356.355"/>
      <point x="141.70000000000002" y="1356.355" type="curve" smooth="yes"/>
      <point x="103.915" y="1356.355"/>
      <point x="69.63499999999999" y="1349.355"/>
    </contour>
  </outline>
</glyph>
<glyph name="asciitilde" format="2">
  <advance width="781.5949999999999"/>
  <unicode hex="007E"/>
  <outline>
    <contour>
      <point x="534.54" y="532.45" type="curve" smooth="yes"/>
      <point x="645.295" y="532.45"/>
      <point x="690.93" y="600.57"/>
      <point x="690.93" y="722.035" type="curve" smooth="yes"/>
      <point x="690.93" y="756.24" type="line"/>
      <point x="581.355" y="756.24" type="line"/>
      <point x="581.355" y="737.38" type="line" smooth="yes"/>
      <point x="581.355" y="687.725"/>
      <point x="566.56" y="658.6500000000001"/>
      <point x="522.625" y="658.6500000000001" type="curve" smooth="yes"/>
      <point x="449.895" y="658.6500000000001"/>
      <point x="348.625" y="741.025"/>
      <point x="246.27000000000004" y="741.025" type="curve" smooth="yes"/>
      <point x="135.515" y="741.025"/>
      <point x="89.88000000000001" y="669.765"/>
      <point x="89.88000000000001" y="549.44" type="curve" smooth="yes"/>
      <point x="89.88000000000001" y="516.59" type="line"/>
      <point x="199.025" y="516.59" type="line"/>
      <point x="199.025" y="533.3100000000001" type="line" smooth="yes"/>
      <point x="199.025" y="582.61"/>
      <point x="214.035" y="614.8249999999999"/>
      <point x="258.185" y="614.8249999999999" type="curve" smooth="yes"/>
      <point x="333.84" y="614.8249999999999"/>
      <point x="431.32500000000005" y="532.45"/>
    </contour>
  </outline>
</glyph>
<glyph name="exclamdown" format="2">
  <advance width="359.595"/>
  <unicode hex="00A1"/>
  <outline>
    <contour>
      <point x="237.08000000000004" y="618.87" type="line"/>
      <point x="122.515" y="618.87" type="line"/>
      <point x="103.17" y="-281.71999999999997" type="line"/>
      <point x="256.425" y="-281.71999999999997" type="line"/>
    </contour>
    <contour>
      <point x="181.26" y="1012.3449999999999" type="curve" smooth="yes"/>
      <point x="124.72" y="1012.3449999999999"/>
      <point x="100.44999999999999" y="974.72"/>
      <point x="100.44999999999999" y="904.675" type="curve" smooth="yes"/>
      <point x="100.44999999999999" y="887.89" type="line" smooth="yes"/>
      <point x="100.44999999999999" y="818.845"/>
      <point x="124.72" y="781.005"/>
      <point x="181.26" y="781.005" type="curve" smooth="yes"/>
      <point x="235.445" y="781.005"/>
      <point x="262.285" y="818.845"/>
      <point x="262.285" y="887.89" type="curve" smooth="yes"/>
      <point x="262.285" y="904.675" type="line" smooth="yes"/>
      <point x="262.285" y="974.72"/>
      <point x="235.445" y="1012.3449999999999"/>
    </contour>
  </outline>
</glyph>
<glyph name="cent" format="2">
  <advance width="536.295"/>
  <unicode hex="00A2"/>
  <anchor x="301.325" y="0.0" name="bottom"/>
  <anchor x="301.325" y="996.28" name="top"/>
  <outline>
    <contour>
      <point x="372.56500000000005" y="946.1049999999999" type="line"/>
      <point x="372.56500000000005" y="1161.075" type="line"/>
      <point x="247.29" y="1161.075" type="line"/>
      <point x="247.29" y="946.1049999999999" type="line"/>
    </contour>
    <contour>
      <point x="372.56500000000005" y="-177.14999999999998" type="line"/>
      <point x="372.56500000000005" y="44.465" type="line"/>
      <point x="247.29" y="44.465" type="line"/>
      <point x="247.29" y="-177.14999999999998" type="line"/>
    </contour>
    <component base="c"/>
  </outline>
</glyph>
<glyph name="sterling" format="2">
  <advance width="637.8"/>
  <unicode hex="00A3"/>
  <outline>
    <contour>
      <point x="52.150000000000006" y="607.245" type="line"/>
      <point x="528.435" y="607.245" type="line"/>
      <point x="536.7900000000001" y="724.455" type="line"/>
      <point x="60.290000000000006" y="724.455" type="line"/>
    </contour>
    <contour>
      <point x="189.77999999999997" y="133.125" type="line"/>
      <point x="189.78000000000003" y="138.265" type="line"/>
      <point x="280.07" y="199.07999999999998"/>
      <point x="326.47999999999996" y="291.13"/>
      <point x="326.47999999999996" y="485.465" type="curve" smooth="yes"/>
      <point x="326.47999999999996" y="624.4300000000001"/>
      <point x="285.265" y="833.955"/>
      <point x="285.265" y="978.9" type="curve" smooth="yes"/>
      <point x="285.265" y="1102.78"/>
      <point x="327.91" y="1163.5849999999998"/>
      <point x="426.64" y="1163.5849999999998" type="curve" smooth="yes"/>
      <point x="474.715" y="1163.5849999999998"/>
      <point x="519.93" y="1154.9399999999998"/>
      <point x="568.79" y="1134.435" type="curve"/>
      <point x="558.295" y="1263.28" type="line"/>
      <point x="517.6600000000001" y="1281.495"/>
      <point x="456.165" y="1296.14"/>
      <point x="393.315" y="1296.14" type="curve" smooth="yes"/>
      <point x="212.42" y="1296.14"/>
      <point x="136.365" y="1195.86"/>
      <point x="136.365" y="996.955" type="curve" smooth="yes"/>
      <point x="136.365" y="846.72"/>
      <point x="177.79499999999996" y="647.5600000000001"/>
      <point x="177.79499999999996" y="484.68" type="curve" smooth="yes"/>
      <point x="177.795" y="298.185"/>
      <point x="146.29999999999998" y="211.705"/>
      <point x="60.00000000000001" y="127.55500000000002" type="curve" smooth="yes"/>
      <point x="60.0" y="127.55500000000002" type="line"/>
      <point x="60.0" y="0.0" type="line"/>
      <point x="589.575" y="0.0" type="line"/>
      <point x="589.575" y="133.125" type="line"/>
    </contour>
  </outline>
</glyph>
<glyph name="currency" format="2">
  <advance width="738.515"/>
  <unicode hex="00A4"/>
  <outline>
    <contour>
      <point x="368.86499999999995" y="272.87" type="curve" smooth="yes"/>
      <point x="537.33" y="272.87"/>
      <point x="624.6" y="378.21500000000003"/>
      <point x="624.6" y="574.41" type="curve" smooth="yes"/>
      <point x="624.6" y="661.7950000000001" type="line" smooth="yes"/>
      <point x="624.6" y="857.2049999999999"/>
      <point x="537.33" y="962.5500000000001"/>
      <point x="368.86499999999995" y="962.5500000000001" type="curve" smooth="yes"/>
      <point x="200.40000000000003" y="962.5500000000001"/>
      <point x="113.13" y="857.2049999999999"/>
      <point x="113.13" y="661.7950000000001" type="curve" smooth="yes"/>
      <point x="113.13" y="574.41" type="line" smooth="yes"/>
      <point x="113.13" y="378.21500000000003"/>
      <point x="200.40000000000003" y="272.87"/>
    </contour>
    <contour>
      <point x="368.86499999999995" y="381.23" type="curve" smooth="yes"/>
      <point x="282.845" y="381.23"/>
      <point x="241.975" y="444.175"/>
      <point x="241.975" y="569.7" type="curve" smooth="yes"/>
      <point x="241.975" y="666.505" type="line" smooth="yes"/>
      <point x="241.975" y="792.03"/>
      <point x="282.845" y="854.975"/>
      <point x="368.86499999999995" y="854.975" type="curve" smooth="yes"/>
      <point x="454.88499999999993" y="854.975"/>
      <point x="494.185" y="791.245"/>
      <point x="494.96999999999997" y="666.505" type="curve" smooth="yes"/>
      <point x="495.75499999999994" y="569.7" type="line" smooth="yes"/>
      <point x="496.53999999999996" y="444.175"/>
      <point x="454.88499999999993" y="381.23"/>
    </contour>
    <contour>
      <point x="560.03" y="411.81" type="line"/>
      <point x="477.51000000000005" y="333.645" type="line"/>
      <point x="611.705" y="139.655" type="line"/>
      <point x="702.72" y="206.32500000000002" type="line"/>
    </contour>
    <contour>
      <point x="266.145" y="341.0" type="line"/>
      <point x="179.91500000000002" y="412.885" type="line"/>
      <point x="35.795" y="206.32500000000002" type="line"/>
      <point x="126.025" y="139.655" type="line"/>
    </contour>
    <contour>
      <point x="176.345" y="823.1800000000001" type="line"/>
      <point x="262.005" y="895.205" type="line"/>
      <point x="125.81000000000002" y="1091.625" type="line"/>
      <point x="35.795" y="1025.9550000000002" type="line"/>
    </contour>
    <contour>
      <point x="470.80000000000007" y="888.71" type="line"/>
      <point x="553.32" y="811.76" type="line"/>
      <point x="701.9350000000001" y="1025.9550000000002" type="line"/>
      <point x="611.92" y="1091.625" type="line"/>
    </contour>
  </outline>
</glyph>
<glyph name="yen" format="2">
  <advance width="719.65"/>
  <unicode hex="00A5"/>
  <anchor x="357.68" y="0.0" name="bottom"/>
  <anchor x="357.68" y="1278.0" name="top"/>
  <anchor x="40.44" y="1278.0" name="topleft"/>
  <outline>
    <contour>
      <point x="402.60499999999996" y="541.76" type="line"/>
      <point x="630.425" y="541.76" type="line"/>
      <point x="638.78" y="659.11" type="line"/>
      <point x="426.38" y="659.11" type="line"/>
    </contour>
    <contour>
      <point x="92.79499999999999" y="365.455" type="line"/>
      <point x="84.225" y="250.46" type="line"/>
      <point x="630.425" y="250.46" type="line"/>
      <point x="638.78" y="365.455" type="line"/>
    </contour>
    <contour>
      <point x="281.63500000000005" y="659.11" type="line"/>
      <point x="92.79499999999999" y="659.11" type="line"/>
      <point x="84.225" y="541.76" type="line"/>
      <point x="307.41" y="541.76" type="line"/>
    </contour>
    <component base="Y" xOffset="20.439999999999998"/>
  </outline>
</glyph>
<glyph name="brokenbar" format="2">
  <advance width="376.305"/>
  <unicode hex="00A6"/>
  <outline>
    <contour>
      <point x="254.71499999999997" y="585.365" type="line"/>
      <point x="254.71499999999997" y="1426.0" type="line"/>
      <point x="121.58999999999999" y="1426.0" type="line"/>
      <point x="121.58999999999999" y="585.365" type="line"/>
    </contour>
    <contour>
      <point x="254.71499999999997" y="-422.655" type="line"/>
      <point x="254.71499999999997" y="418.765" type="line"/>
      <point x="121.58999999999999" y="418.765" type="line"/>
      <point x="121.58999999999999" y="-422.655" type="line"/>
    </contour>
  </outline>
</glyph>
<glyph name="section" format="2">
  <advance width="597.0799999999999"/>
  <unicode hex="00A7"/>
  <outline>
    <contour>
      <point x="319.89500000000004" y="389.81" type="curve"/>
      <point x="398.56500000000005" y="328.48499999999996" type="line"/>
      <point x="398.56499999999994" y="361.11" type="line"/>
      <point x="479.845" y="398.45500000000004"/>
      <point x="521.565" y="469.575"/>
      <point x="521.565" y="564.24" type="curve" smooth="yes"/>
      <point x="521.565" y="602.645" type="line" smooth="yes"/>
      <point x="521.565" y="738.99"/>
      <point x="462.44499999999994" y="796.495"/>
      <point x="341.51" y="876.5600000000001" type="curve" smooth="yes"/>
      <point x="252.27499999999998" y="935.0649999999999"/>
      <point x="212.56500000000003" y="969.57"/>
      <point x="212.56500000000003" y="1046.385" type="curve" smooth="yes"/>
      <point x="212.56500000000003" y="1059.105" type="line" smooth="yes"/>
      <point x="212.56500000000003" y="1131.2749999999999"/>
      <point x="249.14499999999998" y="1173.22"/>
      <point x="332.015" y="1173.22" type="curve" smooth="yes"/>
      <point x="404.51" y="1173.22"/>
      <point x="459.28499999999997" y="1144.435"/>
      <point x="506.575" y="1105.2849999999999" type="curve"/>
      <point x="496.08000000000004" y="1234.6350000000002" type="line"/>
      <point x="453.8" y="1266.71"/>
      <point x="391.88499999999993" y="1296.14"/>
      <point x="303.97" y="1296.14" type="curve" smooth="yes"/>
      <point x="153.14" y="1296.14"/>
      <point x="71.16000000000001" y="1211.9350000000002"/>
      <point x="71.16000000000001" y="1066.17" type="curve" smooth="yes"/>
      <point x="71.16000000000001" y="1052.095" type="line" smooth="yes"/>
      <point x="71.16000000000001" y="934.4399999999999"/>
      <point x="118.16000000000001" y="867.46"/>
      <point x="249.36499999999998" y="787.04" type="curve" smooth="yes"/>
      <point x="364.525" y="715.89"/>
      <point x="389.58000000000004" y="673.87"/>
      <point x="389.58000000000004" y="579.8050000000001" type="curve" smooth="yes"/>
      <point x="389.58000000000004" y="524.205" type="line" smooth="yes"/>
      <point x="389.58000000000004" y="467.595"/>
      <point x="372.14000000000004" y="416.09999999999997"/>
    </contour>
    <contour>
      <point x="273.615" y="789.77" type="curve"/>
      <point x="194.94500000000002" y="853.4499999999999" type="line"/>
      <point x="195.73" y="819.255" type="line"/>
      <point x="110.52499999999999" y="779.5550000000001"/>
      <point x="71.94500000000001" y="711.575"/>
      <point x="71.94500000000001" y="616.125" type="curve" smooth="yes"/>
      <point x="71.94500000000001" y="587.86" type="line" smooth="yes"/>
      <point x="71.94500000000001" y="450.29"/>
      <point x="123.365" y="390.505"/>
      <point x="252.50500000000002" y="304.375" type="curve" smooth="yes"/>
      <point x="348.39500000000004" y="241.93500000000003"/>
      <point x="380.945" y="202.57"/>
      <point x="380.945" y="127.345" type="curve" smooth="yes"/>
      <point x="380.945" y="112.905" type="line" smooth="yes"/>
      <point x="380.945" y="39.8"/>
      <point x="342.28999999999996" y="-11.79"/>
      <point x="256.85" y="-11.79" type="curve" smooth="yes"/>
      <point x="182.505" y="-11.79"/>
      <point x="120.29999999999998" y="16.780000000000005"/>
      <point x="69.87" y="55.855000000000004" type="curve"/>
      <point x="79.58" y="-77.635" type="line"/>
      <point x="122.78500000000001" y="-108.42"/>
      <point x="191.77500000000003" y="-137.85000000000002"/>
      <point x="276.26" y="-137.85000000000002" type="curve" smooth="yes"/>
      <point x="439.435" y="-137.85000000000002"/>
      <point x="521.565" y="-45.57"/>
      <point x="521.565" y="106.625" type="curve" smooth="yes"/>
      <point x="521.565" y="125.065" type="line" smooth="yes"/>
      <point x="521.565" y="244.34500000000003"/>
      <point x="479.855" y="308.55"/>
      <point x="352.5" y="389.185" type="curve" smooth="yes"/>
      <point x="246.78" y="456.325"/>
      <point x="203.92999999999998" y="499.26"/>
      <point x="203.92999999999998" y="605.6999999999999" type="curve" smooth="yes"/>
      <point x="203.92999999999998" y="653.02" type="line"/>
      <point x="203.92999999999998" y="712.77"/>
      <point x="221.37" y="763.48"/>
    </contour>
  </outline>
</glyph>
<glyph name="copyright" format="2">
  <advance width="1100.52"/>
  <unicode hex="00A9"/>
  <outline>
    <contour>
      <point x="550.26" y="-17.355" type="curve" smooth="yes"/>
      <point x="846.66" y="-17.355"/>
      <point x="1017.79" y="154.775"/>
      <point x="1017.79" y="462.81000000000006" type="curve" smooth="yes"/>
      <point x="1017.79" y="814.76" type="line" smooth="yes"/>
      <point x="1017.79" y="1123.01"/>
      <point x="846.66" y="1295.355"/>
      <point x="550.26" y="1295.355" type="curve" smooth="yes"/>
      <point x="253.07500000000002" y="1295.355"/>
      <point x="82.73" y="1123.01"/>
      <point x="82.73" y="814.76" type="curve" smooth="yes"/>
      <point x="82.73" y="462.81000000000006" type="line" smooth="yes"/>
      <point x="82.73" y="154.775"/>
      <point x="253.07500000000002" y="-17.355"/>
    </contour>
    <contour>
      <point x="580.035" y="307.645" type="curve" smooth="yes"/>
      <point x="632.82" y="307.645"/>
      <point x="676.9599999999999" y="323.36499999999995"/>
      <point x="704.5300000000001" y="346.65500000000003" type="curve"/>
      <point x="712.4549999999999" y="444.745" type="line"/>
      <point x="682.9499999999999" y="421.735"/>
      <point x="649.875" y="405.015"/>
      <point x="607.94" y="405.015" type="curve" smooth="yes"/>
      <point x="529.93" y="405.015"/>
      <point x="497.49999999999994" y="457.455"/>
      <point x="497.49999999999994" y="546.765" type="curve" smooth="yes"/>
      <point x="497.49999999999994" y="733.02" type="line" smooth="yes"/>
      <point x="497.49999999999994" y="823.115"/>
      <point x="526.79" y="875.555"/>
      <point x="603.8" y="875.555" type="curve" smooth="yes"/>
      <point x="647.52" y="875.555"/>
      <point x="679.81" y="859.62"/>
      <point x="708.3149999999999" y="836.825" type="curve"/>
      <point x="700.175" y="933.13" type="line"/>
      <point x="671.82" y="954.85"/>
      <point x="630.8199999999999" y="971.355"/>
      <point x="578.6800000000001" y="971.355" type="curve" smooth="yes"/>
      <point x="447.27000000000004" y="971.355"/>
      <point x="388.71000000000004" y="883.15"/>
      <point x="388.71000000000004" y="731.4499999999999" type="curve" smooth="yes"/>
      <point x="388.71000000000004" y="546.335" type="line" smooth="yes"/>
      <point x="388.71000000000004" y="393.84999999999997"/>
      <point x="447.27000000000004" y="307.645"/>
    </contour>
    <contour>
      <point x="550.26" y="72.95" type="curve" smooth="yes"/>
      <point x="319.035" y="72.95"/>
      <point x="186.025" y="211.885"/>
      <point x="186.025" y="451.605" type="curve" smooth="yes"/>
      <point x="186.025" y="826.9649999999999" type="line" smooth="yes"/>
      <point x="186.025" y="1066.115"/>
      <point x="319.035" y="1205.05"/>
      <point x="550.26" y="1205.05" type="curve" smooth="yes"/>
      <point x="780.6999999999999" y="1205.05"/>
      <point x="914.4949999999999" y="1066.115"/>
      <point x="914.4949999999999" y="826.9649999999999" type="curve" smooth="yes"/>
      <point x="914.4949999999999" y="451.605" type="line" smooth="yes"/>
      <point x="914.4949999999999" y="211.885"/>
      <point x="780.6999999999999" y="72.95"/>
    </contour>
  </outline>
</glyph>
<glyph name="ordfeminine" format="2">
  <advance width="433.59499999999997"/>
  <unicode hex="00AA"/>
  <outline>
    <contour>
      <point x="272.86" y="639.785" type="line"/>
      <point x="376.93999999999994" y="639.785" type="line"/>
      <point x="376.93999999999994" y="1090.74" type="line" smooth="yes"/>
      <point x="376.93999999999994" y="1216.44"/>
      <point x="332.23" y="1289.355"/>
      <point x="206.54999999999998" y="1289.355" type="curve" smooth="yes"/>
      <point x="151.13" y="1289.355"/>
      <point x="99.495" y="1270.14"/>
      <point x="61.0" y="1244.71" type="curve"/>
      <point x="52.505" y="1149.62" type="line"/>
      <point x="94.21499999999999" y="1177.4799999999998"/>
      <point x="142.925" y="1199.2649999999999"/>
      <point x="191.20499999999998" y="1199.2649999999999" type="curve" smooth="yes"/>
      <point x="255.14000000000001" y="1199.2649999999999"/>
      <point x="275.215" y="1160.18"/>
      <point x="275.215" y="1092.095" type="curve"/>
      <point x="275.215" y="1025.0749999999998" type="line"/>
      <point x="275.215" y="762.42" type="line"/>
      <point x="278.215" y="760.8499999999999" type="line"/>
    </contour>
    <contour>
      <point x="160.93499999999997" y="630.0" type="curve" smooth="yes"/>
      <point x="233.58000000000004" y="630.0"/>
      <point x="262.655" y="675.01"/>
      <point x="274.01" y="735.4499999999999" type="curve"/>
      <point x="291.85999999999996" y="735.4499999999999" type="line"/>
      <point x="276.215" y="799.99" type="line"/>
      <point x="267.355" y="753.6800000000001"/>
      <point x="242.06499999999997" y="718.305"/>
      <point x="200.90499999999997" y="718.305" type="curve" smooth="yes"/>
      <point x="154.24" y="718.305"/>
      <point x="139.38000000000002" y="754.25"/>
      <point x="139.38000000000002" y="804.27" type="curve" smooth="yes"/>
      <point x="139.38000000000002" y="845.42" type="line" smooth="yes"/>
      <point x="139.38000000000002" y="900.1500000000001"/>
      <point x="155.1" y="927.73"/>
      <point x="209.04500000000002" y="945.88" type="curve" smooth="yes"/>
      <point x="297.065" y="975.6750000000001" type="line"/>
      <point x="287.0" y="1055.5600000000002" type="line"/>
      <point x="180.42000000000002" y="1021.98" type="line" smooth="yes"/>
      <point x="70.93499999999999" y="987.98"/>
      <point x="38.44" y="936.625"/>
      <point x="38.44" y="842.0649999999999" type="curve" smooth="yes"/>
      <point x="38.44" y="794.99" type="line" smooth="yes"/>
      <point x="38.44" y="688.71"/>
      <point x="76.79500000000002" y="630.0"/>
    </contour>
  </outline>
</glyph>
<glyph name="logicalnot" format="2">
  <advance width="680.26"/>
  <unicode hex="00AC"/>
  <outline>
    <contour>
      <point x="599.595" y="310.93499999999995" type="line"/>
      <point x="599.595" y="645.4200000000001" type="line"/>
      <point x="473.535" y="645.4200000000001" type="line"/>
      <point x="473.535" y="310.93499999999995" type="line"/>
    </contour>
    <contour>
      <point x="57.86" y="576.0400000000001" type="line"/>
      <point x="599.595" y="576.0400000000001" type="line"/>
      <point x="599.595" y="696.9599999999999" type="line"/>
      <point x="57.86" y="696.9599999999999" type="line"/>
    </contour>
  </outline>
</glyph>
<glyph name="registered" format="2">
  <advance width="630.38"/>
  <unicode hex="00AE"/>
  <outline>
    <contour>
      <point x="314.905" y="556.245" type="curve" smooth="yes"/>
      <point x="484.16499999999996" y="556.245"/>
      <point x="569.51" y="664.4399999999999"/>
      <point x="569.51" y="836.5699999999999" type="curve" smooth="yes"/>
      <point x="569.51" y="1013.17" type="line" smooth="yes"/>
      <point x="569.51" y="1185.73"/>
      <point x="484.16499999999996" y="1292.71"/>
      <point x="314.905" y="1292.71" type="curve" smooth="yes"/>
      <point x="145.645" y="1292.71"/>
      <point x="61.084999999999994" y="1184.945"/>
      <point x="61.084999999999994" y="1013.17" type="curve" smooth="yes"/>
      <point x="61.084999999999994" y="836.5699999999999" type="line" smooth="yes"/>
      <point x="61.084999999999994" y="664.4399999999999"/>
      <point x="145.645" y="556.245"/>
    </contour>
    <contour>
      <point x="314.905" y="617.645" type="curve" smooth="yes"/>
      <point x="188.54999999999998" y="617.645"/>
      <point x="130.765" y="694.1400000000001"/>
      <point x="130.765" y="831.86" type="curve" smooth="yes"/>
      <point x="130.765" y="1018.6650000000001" type="line" smooth="yes"/>
      <point x="130.765" y="1154.6"/>
      <point x="188.54999999999998" y="1231.31"/>
      <point x="314.905" y="1231.31" type="curve" smooth="yes"/>
      <point x="440.475" y="1231.31"/>
      <point x="499.83" y="1154.6"/>
      <point x="499.83" y="1018.6650000000001" type="curve" smooth="yes"/>
      <point x="499.83" y="831.86" type="line" smooth="yes"/>
      <point x="499.83" y="694.1400000000001"/>
      <point x="440.475" y="617.645"/>
    </contour>
    <contour>
      <point x="364.7" y="733.365" type="line"/>
      <point x="427.53000000000003" y="733.365" type="line"/>
      <point x="416.885" y="814.3" type="line" smooth="yes"/>
      <point x="408.45500000000004" y="879.59"/>
      <point x="393.45500000000004" y="914.1500000000001"/>
      <point x="345.82" y="919.795" type="curve"/>
      <point x="354.38" y="911.7950000000001" type="line"/>
      <point x="356.09999999999997" y="920.7199999999999" type="line"/>
      <point x="403.175" y="925.15"/>
      <point x="420.09999999999997" y="955.795"/>
      <point x="420.09999999999997" y="1001.7199999999999" type="curve" smooth="yes"/>
      <point x="420.09999999999997" y="1026.16" type="line" smooth="yes"/>
      <point x="420.09999999999997" y="1093.3"/>
      <point x="387.605" y="1126.795"/>
      <point x="318.69" y="1126.795" type="curve" smooth="yes"/>
      <point x="271.185" y="1126.795" type="line"/>
      <point x="271.185" y="1072.105" type="line"/>
      <point x="317.69" y="1072.105" type="line" smooth="yes"/>
      <point x="347.70000000000005" y="1072.105"/>
      <point x="358.27" y="1051.74"/>
      <point x="358.27" y="1015.525" type="curve" smooth="yes"/>
      <point x="358.27" y="992.225" type="line" smooth="yes"/>
      <point x="358.27" y="953.15"/>
      <point x="346.195" y="935.2900000000001"/>
      <point x="314.045" y="934.505" type="curve" smooth="yes"/>
      <point x="273.615" y="933.72" type="line"/>
      <point x="273.615" y="879.815" type="line"/>
      <point x="309.615" y="879.815" type="line" smooth="yes"/>
      <point x="338.045" y="879.815"/>
      <point x="350.195" y="864.105"/>
      <point x="356.055" y="810.945" type="curve" smooth="yes"/>
    </contour>
    <contour>
      <point x="226.06500000000003" y="733.365" type="line"/>
      <point x="287.895" y="733.365" type="line"/>
      <point x="287.895" y="894.88" type="line"/>
      <point x="287.895" y="916.3" type="line"/>
      <point x="287.895" y="1126.795" type="line"/>
      <point x="226.06500000000003" y="1126.795" type="line"/>
    </contour>
  </outline>
</glyph>
<glyph name="degree" format="2">
  <advance width="500.615"/>
  <unicode hex="00B0"/>
  <outline>
    <contour>
      <point x="250.7" y="821.105" type="curve" smooth="yes"/>
      <point x="372.68" y="821.105"/>
      <point x="439.45500000000004" y="901.815"/>
      <point x="439.45500000000004" y="1049.16" type="curve" smooth="yes"/>
      <point x="439.45500000000004" y="1068.0849999999998" type="line" smooth="yes"/>
      <point x="439.45500000000004" y="1215.43"/>
      <point x="372.68" y="1296.1399999999999"/>
      <point x="250.7" y="1296.1399999999999" type="curve" smooth="yes"/>
      <point x="127.93499999999999" y="1296.1399999999999"/>
      <point x="61.160000000000004" y="1215.43"/>
      <point x="61.160000000000004" y="1068.0849999999998" type="curve" smooth="yes"/>
      <point x="61.160000000000004" y="1049.16" type="line" smooth="yes"/>
      <point x="61.160000000000004" y="902.0300000000001"/>
      <point x="127.93499999999999" y="821.105"/>
    </contour>
    <contour>
      <point x="250.7" y="918.26" type="curve" smooth="yes"/>
      <point x="195.465" y="918.26"/>
      <point x="169.95" y="963.635"/>
      <point x="169.95" y="1047.945" type="curve" smooth="yes"/>
      <point x="169.95" y="1069.3" type="line" smooth="yes"/>
      <point x="169.95" y="1152.825"/>
      <point x="195.25" y="1198.985"/>
      <point x="250.7" y="1198.985" type="curve" smooth="yes"/>
      <point x="306.15000000000003" y="1198.985"/>
      <point x="330.665" y="1152.825"/>
      <point x="330.665" y="1069.3" type="curve" smooth="yes"/>
      <point x="330.665" y="1047.945" type="line" smooth="yes"/>
      <point x="330.665" y="963.42"/>
      <point x="306.15000000000003" y="918.26"/>
    </contour>
  </outline>
</glyph>
<glyph name="plusminus" format="2">
  <advance width="685.4"/>
  <unicode hex="00B1"/>
  <outline>
    <contour>
      <point x="72.225" y="210.415" type="line"/>
      <point x="613.175" y="210.415" type="line"/>
      <point x="613.175" y="327.41" type="line"/>
      <point x="72.225" y="327.41" type="line"/>
    </contour>
    <contour>
      <point x="405.23" y="441.14000000000004" type="line"/>
      <point x="405.23" y="999.335" type="line"/>
      <point x="279.955" y="999.335" type="line"/>
      <point x="279.955" y="441.14000000000004" type="line"/>
    </contour>
    <contour>
      <point x="72.225" y="660.9549999999999" type="line"/>
      <point x="613.175" y="660.9549999999999" type="line"/>
      <point x="613.175" y="779.52" type="line"/>
      <point x="72.225" y="779.52" type="line"/>
    </contour>
  </outline>
</glyph>
<glyph name="twosuperior" format="2">
  <advance width="353.455"/>
  <unicode hex="00B2"/>
  <outline>
    <contour>
      <point x="25.86" y="700.0" type="line"/>
      <point x="323.52" y="700.0" type="line"/>
      <point x="323.52" y="789.66" type="line"/>
      <point x="96.24" y="789.66" type="line"/>
      <point x="134.005" y="771.38" type="line"/>
      <point x="134.005" y="794.445" type="line"/>
      <point x="221.43499999999997" y="937.325" type="line" smooth="yes"/>
      <point x="291.95000000000005" y="1054.225"/>
      <point x="320.09" y="1122.1499999999999"/>
      <point x="320.09" y="1205.44" type="curve" smooth="yes"/>
      <point x="320.09" y="1222.9450000000002" type="line" smooth="yes"/>
      <point x="320.09" y="1327.58"/>
      <point x="269.175" y="1393.355"/>
      <point x="163.195" y="1393.355" type="curve" smooth="yes"/>
      <point x="113.13000000000001" y="1393.355"/>
      <point x="72.85" y="1378.065"/>
      <point x="44.215" y="1359.71" type="curve"/>
      <point x="36.29" y="1266.62" type="line"/>
      <point x="62.580000000000005" y="1282.9099999999999"/>
      <point x="93.93499999999999" y="1300.3400000000001"/>
      <point x="135.93499999999997" y="1300.3400000000001" type="curve" smooth="yes"/>
      <point x="193.36499999999998" y="1300.3400000000001"/>
      <point x="214.655" y="1265.19"/>
      <point x="214.655" y="1206.03" type="curve" smooth="yes"/>
      <point x="214.655" y="1191.665" type="line" smooth="yes"/>
      <point x="214.655" y="1128.8600000000001"/>
      <point x="190.365" y="1071.635"/>
      <point x="130.28" y="970.595" type="curve" smooth="yes"/>
      <point x="25.86" y="796.23" type="line"/>
    </contour>
  </outline>
</glyph>
<glyph name="threesuperior" format="2">
  <advance width="359.59499999999997"/>
  <unicode hex="00B3"/>
  <outline>
    <contour>
      <point x="149.41" y="688.215" type="curve" smooth="yes"/>
      <point x="281.895" y="688.215"/>
      <point x="320.44500000000005" y="768.29"/>
      <point x="320.44500000000005" y="861.485" type="curve" smooth="yes"/>
      <point x="320.44500000000005" y="910.795" type="line" smooth="yes"/>
      <point x="320.44500000000005" y="997.4300000000001"/>
      <point x="287.52" y="1046.505"/>
      <point x="213.74499999999998" y="1054.4299999999998" type="curve"/>
      <point x="219.02499999999998" y="1044.58" type="line"/>
      <point x="219.24" y="1057.355" type="line"/>
      <point x="289.73499999999996" y="1070.065"/>
      <point x="316.445" y="1121.28"/>
      <point x="316.445" y="1197.2050000000002" type="curve" smooth="yes"/>
      <point x="316.445" y="1235.58" type="line" smooth="yes"/>
      <point x="316.445" y="1334.215"/>
      <point x="270.88500000000005" y="1393.355"/>
      <point x="161.615" y="1393.355" type="curve" smooth="yes"/>
      <point x="109.19500000000001" y="1393.355"/>
      <point x="65.99000000000001" y="1377.9250000000002"/>
      <point x="36.14" y="1358.925" type="curve"/>
      <point x="27.43" y="1270.5449999999998" type="line"/>
      <point x="56.215" y="1287.835"/>
      <point x="91.57000000000001" y="1304.48"/>
      <point x="132.92499999999998" y="1304.48" type="curve" smooth="yes"/>
      <point x="190.72" y="1304.48"/>
      <point x="212.58" y="1271.04"/>
      <point x="212.58" y="1216.8799999999999" type="curve" smooth="yes"/>
      <point x="212.58" y="1181.29" type="line" smooth="yes"/>
      <point x="212.58" y="1110.98"/>
      <point x="176.29" y="1095.905"/>
      <point x="128.43" y="1094.12" type="curve" smooth="yes"/>
      <point x="72.49499999999999" y="1092.335" type="line"/>
      <point x="72.49499999999999" y="1010.955" type="line"/>
      <point x="135.86" y="1008.3849999999999" type="line" smooth="yes"/>
      <point x="194.58" y="1005.815"/>
      <point x="214.01000000000002" y="972.16"/>
      <point x="214.01000000000002" y="920.43" type="curve" smooth="yes"/>
      <point x="214.01000000000002" y="875.26" type="line" smooth="yes"/>
      <point x="214.01000000000002" y="822.9599999999999"/>
      <point x="197.44000000000003" y="780.23"/>
      <point x="131.785" y="780.23" type="curve" smooth="yes"/>
      <point x="88.99999999999999" y="780.23"/>
      <point x="53.14" y="796.305"/>
      <point x="22.429999999999996" y="814.38" type="curve"/>
      <point x="31.14" y="719.505" type="line"/>
      <point x="56.85" y="703.2900000000001"/>
      <point x="98.40999999999998" y="688.215"/>
    </contour>
  </outline>
</glyph>
<glyph name="micro" format="2">
  <advance width="727.5550000000001"/>
  <unicode hex="00B5"/>
  <outline>
    <contour>
      <point x="634.825" y="996.28" type="line"/>
      <point x="490.28" y="996.28" type="line"/>
      <point x="490.28" y="169.57" type="line"/>
      <point x="495.63500000000005" y="162.505" type="line"/>
      <point x="489.28" y="0.0" type="line"/>
      <point x="634.825" y="0.0" type="line"/>
    </contour>
    <contour>
      <point x="238.275" y="288.81" type="curve" smooth="yes"/>
      <point x="238.275" y="996.28" type="line"/>
      <point x="92.72999999999999" y="996.28" type="line"/>
      <point x="92.72999999999999" y="-350.0" type="line"/>
      <point x="230.99500000000003" y="-350.0" type="line"/>
      <point x="230.99500000000003" y="-190.175" type="line"/>
      <point x="217.14499999999998" y="91.675" type="line"/>
      <point x="221.64" y="91.46000000000001" type="line"/>
      <point x="239.42499999999998" y="25.729999999999997"/>
      <point x="275.65999999999997" y="-12.215"/>
      <point x="346.82" y="-12.215" type="curve" smooth="yes"/>
      <point x="425.7" y="-12.215"/>
      <point x="468.07499999999993" y="33.525"/>
      <point x="489.07500000000005" y="150.45999999999998" type="curve"/>
      <point x="524.055" y="150.45999999999998" type="line"/>
      <point x="492.28" y="259.83" type="line"/>
      <point x="475.91499999999996" y="169.14499999999998"/>
      <point x="433.83" y="109.49"/>
      <point x="362.23999999999995" y="109.49" type="curve" smooth="yes"/>
      <point x="272.65" y="109.49"/>
      <point x="238.275" y="174.37"/>
    </contour>
  </outline>
</glyph>
<glyph name="paragraph" format="2">
  <advance width="538.975"/>
  <unicode hex="00B6"/>
  <outline>
    <contour>
      <point x="272.55" y="660.515" type="curve"/>
      <point x="339.52000000000004" y="660.515" type="line"/>
      <point x="339.735" y="1278.0" type="line"/>
      <point x="272.12" y="1278.0" type="line" smooth="yes"/>
      <point x="130.72" y="1278.0"/>
      <point x="67.3" y="1193.505"/>
      <point x="67.3" y="1048.5249999999999" type="curve" smooth="yes"/>
      <point x="67.3" y="891.2049999999999" type="line" smooth="yes"/>
      <point x="67.3" y="741.87"/>
      <point x="130.72" y="660.515"/>
    </contour>
    <contour>
      <point x="436.03" y="0.0" type="line"/>
      <point x="436.03" y="1278.0" type="line"/>
      <point x="291.84" y="1278.0" type="line"/>
      <point x="291.055" y="0.0" type="line"/>
    </contour>
  </outline>
</glyph>
<glyph name="onesuperior" format="2">
  <advance width="303.745"/>
  <unicode hex="00B9"/>
  <outline>
    <contour>
      <point x="145.01000000000002" y="700.0" type="line"/>
      <point x="245.51999999999998" y="700.0" type="line"/>
      <point x="245.51999999999998" y="1383.785" type="line"/>
      <point x="151.635" y="1383.785" type="line"/>
      <point x="18.355000000000004" y="1282.8400000000001" type="line"/>
      <point x="16.0" y="1175.33" type="line"/>
      <point x="137.87" y="1270.7150000000001" type="line"/>
      <point x="144.225" y="1270.7150000000001" type="line"/>
    </contour>
  </outline>
</glyph>
<glyph name="ordmasculine" format="2">
  <advance width="477.39"/>
  <unicode hex="00BA"/>
  <outline>
    <contour>
      <point x="238.19500000000002" y="630.0" type="curve" smooth="yes"/>
      <point x="359.1" y="630.0"/>
      <point x="420.23" y="704.775"/>
      <point x="420.23" y="844.755" type="curve" smooth="yes"/>
      <point x="420.23" y="1077.4599999999998" type="line" smooth="yes"/>
      <point x="420.23" y="1217.44"/>
      <point x="359.885" y="1291.215"/>
      <point x="238.19500000000002" y="1291.215" type="curve" smooth="yes"/>
      <point x="118.28999999999999" y="1291.215"/>
      <point x="57.16" y="1217.44"/>
      <point x="57.16" y="1077.4599999999998" type="curve" smooth="yes"/>
      <point x="57.16" y="844.755" type="line" smooth="yes"/>
      <point x="57.16" y="703.775"/>
      <point x="118.29" y="630.0"/>
    </contour>
    <contour>
      <point x="238.98000000000002" y="719.305" type="curve" smooth="yes"/>
      <point x="185.82" y="719.305"/>
      <point x="163.81" y="758.745"/>
      <point x="163.81" y="830.98" type="curve" smooth="yes"/>
      <point x="163.81" y="1091.805" type="line" smooth="yes"/>
      <point x="163.81" y="1163.47"/>
      <point x="185.82" y="1201.9099999999999"/>
      <point x="238.98000000000002" y="1201.9099999999999" type="curve" smooth="yes"/>
      <point x="291.35499999999996" y="1201.9099999999999"/>
      <point x="313.365" y="1163.685"/>
      <point x="313.365" y="1091.805" type="curve" smooth="yes"/>
      <point x="313.365" y="830.98" type="line" smooth="yes"/>
      <point x="313.365" y="757.745"/>
      <point x="291.35499999999996" y="719.305"/>
    </contour>
  </outline>
</glyph>
<glyph name="guillemetright" format="2">
  <advance width="704.3699999999999"/>
  <unicode hex="00BB"/>
  <outline>
    <contour>
      <point x="206.96499999999997" y="497.14" type="line"/>
      <point x="52.31" y="102.365" type="line"/>
      <point x="185.43499999999997" y="102.365" type="line"/>
      <point x="336.305" y="477.64500000000004" type="line"/>
      <point x="336.305" y="517.4200000000001" type="line"/>
      <point x="185.43499999999997" y="892.6999999999999" type="line"/>
      <point x="52.31" y="892.6999999999999" type="line"/>
    </contour>
    <contour>
      <point x="513.9350000000001" y="497.14" type="line"/>
      <point x="359.28" y="102.365" type="line"/>
      <point x="492.405" y="102.365" type="line"/>
      <point x="643.275" y="477.64500000000004" type="line"/>
      <point x="643.275" y="517.4200000000001" type="line"/>
      <point x="492.405" y="892.6999999999999" type="line"/>
      <point x="359.28" y="892.6999999999999" type="line"/>
    </contour>
  </outline>
</glyph>
<glyph name="questiondown" format="2">
  <advance width="505.66"/>
  <unicode hex="00BF"/>
  <outline>
    <contour>
      <point x="374.43500000000006" y="642.85" type="line"/>
      <point x="295.03499999999997" y="601.5699999999999" type="line" smooth="yes"/>
      <point x="133.43" y="516.7099999999999"/>
      <point x="66.235" y="420.795"/>
      <point x="66.235" y="212.03" type="curve" smooth="yes"/>
      <point x="66.235" y="-15.750000000000002" type="line" smooth="yes"/>
      <point x="66.235" y="-198.01999999999998"/>
      <point x="132.29" y="-299.86"/>
      <point x="287.90500000000003" y="-299.86" type="curve" smooth="yes"/>
      <point x="359.035" y="-299.86"/>
      <point x="420.455" y="-275.86"/>
      <point x="460.09" y="-251.075" type="curve"/>
      <point x="475.51" y="-124.15499999999999" type="line"/>
      <point x="432.50999999999993" y="-151.015"/>
      <point x="389.295" y="-169.875"/>
      <point x="335.005" y="-169.875" type="curve" smooth="yes"/>
      <point x="243.855" y="-169.875"/>
      <point x="209.995" y="-112.08"/>
      <point x="209.995" y="6.66" type="curve" smooth="yes"/>
      <point x="209.995" y="214.815" type="line" smooth="yes"/>
      <point x="209.995" y="350.06"/>
      <point x="235.005" y="411.07"/>
      <point x="336.585" y="471.66" type="curve" smooth="yes"/>
      <point x="374.43500000000006" y="493.66" type="line"/>
    </contour>
    <contour>
      <point x="323.75499999999994" y="1012.3449999999999" type="curve" smooth="yes"/>
      <point x="269.57" y="1012.3449999999999"/>
      <point x="242.73000000000002" y="974.72"/>
      <point x="242.73000000000002" y="904.675" type="curve" smooth="yes"/>
      <point x="242.73000000000002" y="887.89" type="line" smooth="yes"/>
      <point x="242.73000000000002" y="818.845"/>
      <point x="269.57" y="781.005"/>
      <point x="323.75499999999994" y="781.005" type="curve" smooth="yes"/>
      <point x="380.295" y="781.005"/>
      <point x="404.565" y="818.845"/>
      <point x="404.565" y="887.89" type="curve" smooth="yes"/>
      <point x="404.565" y="904.675" type="line" smooth="yes"/>
      <point x="404.565" y="974.72"/>
      <point x="380.295" y="1012.3449999999999"/>
    </contour>
  </outline>
</glyph>
<glyph name="AE" format="2">
  <advance width="1008.3199999999999"/>
  <unicode hex="00C6"/>
  <anchor x="504.66" y="0.0" name="bottom"/>
  <anchor x="504.66" y="1278.0" name="top"/>
  <outline>
    <contour>
      <point x="40.730000000000004" y="0.0" type="line"/>
      <point x="186.70499999999998" y="0.0" type="line"/>
      <point x="450.325" y="1169.64" type="line"/>
      <point x="511.60499999999996" y="1169.64" type="line"/>
      <point x="511.60499999999996" y="1278.0" type="line"/>
      <point x="340.46999999999997" y="1278.0" type="line"/>
    </contour>
    <contour>
      <point x="216.05500000000004" y="366.435" type="line"/>
      <point x="532.67" y="366.435" type="line"/>
      <point x="532.67" y="492.065" type="line"/>
      <point x="216.05500000000004" y="492.065" type="line"/>
    </contour>
    <contour>
      <point x="579.545" y="0.0" type="line"/>
      <point x="947.8149999999999" y="0.0" type="line"/>
      <point x="947.8149999999999" y="131.555" type="line"/>
      <point x="579.545" y="131.555" type="line"/>
    </contour>
    <contour>
      <point x="494.69" y="0.0" type="line"/>
      <point x="639.6650000000001" y="0.0" type="line"/>
      <point x="639.6650000000001" y="1278.0" type="line"/>
      <point x="494.69" y="1278.0" type="line"/>
    </contour>
    <contour>
      <point x="588.0500000000001" y="588.405" type="line"/>
      <point x="940.675" y="588.405" type="line"/>
      <point x="940.675" y="718.96" type="line"/>
      <point x="588.0500000000001" y="718.96" type="line"/>
    </contour>
    <contour>
      <point x="577.115" y="1146.4450000000002" type="line"/>
      <point x="947.815" y="1146.4450000000002" type="line"/>
      <point x="947.815" y="1278.0" type="line"/>
      <point x="577.115" y="1278.0" type="line"/>
    </contour>
  </outline>
</glyph>
<glyph name="Eth" format="2">
  <advance width="762.3399999999999"/>
  <unicode hex="00D0"/>
  <anchor x="369.885" y="0.0" name="bottom"/>
  <anchor x="383.24" y="639.0" name="center"/>
  <anchor x="369.885" y="1278.0" name="top"/>
  <outline>
    <contour>
      <point x="14.15" y="601.47" type="line"/>
      <point x="398.745" y="601.47" type="line"/>
      <point x="398.745" y="715.5400000000001" type="line"/>
      <point x="14.15" y="715.5400000000001" type="line"/>
    </contour>
    <component base="D"/>
  </outline>
</glyph>
<glyph name="multiply" format="2">
  <advance width="636.175"/>
  <unicode hex="00D7"/>
  <outline>
    <contour>
      <point x="582.585" y="415.26" type="line"/>
      <point x="145.54" y="931.12" type="line"/>
      <point x="59.665000000000006" y="860.31" type="line"/>
      <point x="496.495" y="343.45000000000005" type="line"/>
    </contour>
    <contour>
      <point x="53.589999999999996" y="415.26" type="line"/>
      <point x="139.67999999999998" y="343.45000000000005" type="line"/>
      <point x="576.51" y="860.31" type="line"/>
      <point x="490.63499999999993" y="931.12" type="line"/>
    </contour>
  </outline>
</glyph>
<glyph name="Oslash" format="2">
  <advance width="762.125"/>
  <unicode hex="00D8"/>
  <anchor x="380.66999999999996" y="0.0" name="bottom"/>
  <anchor x="380.66999999999996" y="639.0" name="center"/>
  <anchor x="685.9200000000001" y="10.0" name="ogonek"/>
  <anchor x="380.66999999999996" y="1278.0" name="top"/>
  <anchor x="20.0" y="1278.0" name="topleft"/>
  <anchor x="741.34" y="1278.0" name="topright"/>
  <outline>
    <contour>
      <point x="382.23999999999995" y="-18.14" type="curve" smooth="yes"/>
      <point x="579.1999999999999" y="-18.14"/>
      <point x="679.3949999999999" y="103.915"/>
      <point x="679.3949999999999" y="344.38" type="curve" smooth="yes"/>
      <point x="679.3949999999999" y="930.835" type="line" smooth="yes"/>
      <point x="679.3949999999999" y="1167.9450000000002"/>
      <point x="571.135" y="1296.1399999999999"/>
      <point x="379.09999999999997" y="1296.1399999999999" type="curve" smooth="yes"/>
      <point x="181.925" y="1296.1399999999999"/>
      <point x="82.73" y="1172.085"/>
      <point x="82.73" y="932.405" type="curve" smooth="yes"/>
      <point x="82.73" y="345.95" type="line" smooth="yes"/>
      <point x="82.73" y="108.84"/>
      <point x="189.99000000000004" y="-18.14"/>
    </contour>
    <contour>
      <point x="130.375" y="-79.505" type="line"/>
      <point x="241.73499999999999" y="-79.505" type="line"/>
      <point x="288.14500000000004" y="73.53" type="line"/>
      <point x="292.93" y="98.16499999999999" type="line"/>
      <point x="553.36" y="1126.2849999999999" type="line"/>
      <point x="577.2" y="1180.47" type="line"/>
      <point x="631.7499999999999" y="1357.29" type="line"/>
      <point x="519.605" y="1357.29" type="line"/>
      <point x="486.32500000000005" y="1238.72" type="line"/>
      <point x="477.61499999999995" y="1193.675" type="line"/>
      <point x="216.045" y="158.285" type="line"/>
      <point x="189.635" y="111.66" type="line"/>
    </contour>
    <contour>
      <point x="380.66999999999996" y="108.135" type="curve" smooth="yes"/>
      <point x="275.005" y="108.135"/>
      <point x="227.70499999999998" y="185.29500000000002"/>
      <point x="227.70499999999998" y="287.64500000000004" type="curve" smooth="yes"/>
      <point x="227.70499999999998" y="943.0400000000001" type="line" smooth="yes"/>
      <point x="227.70499999999998" y="1093.705"/>
      <point x="273.22" y="1169.865"/>
      <point x="380.66999999999996" y="1169.865" type="curve" smooth="yes"/>
      <point x="487.12" y="1169.865"/>
      <point x="534.4200000000001" y="1093.49"/>
      <point x="534.4200000000001" y="990.14" type="curve" smooth="yes"/>
      <point x="534.4200000000001" y="334.745" type="line" smooth="yes"/>
      <point x="534.4200000000001" y="184.29500000000002"/>
      <point x="488.11999999999995" y="108.135"/>
    </contour>
  </outline>
</glyph>
<glyph name="Thorn" format="2">
  <advance width="704.1899999999999"/>
  <unicode hex="00DE"/>
  <anchor x="353.38000000000005" y="0.0" name="bottom"/>
  <anchor x="353.38000000000005" y="1278.0" name="top"/>
  <outline>
    <contour>
      <point x="186.16500000000002" y="214.45" type="line"/>
      <point x="356.81" y="214.45" type="line" smooth="yes"/>
      <point x="554.265" y="214.45"/>
      <point x="644.5350000000001" y="327.515"/>
      <point x="644.5350000000001" y="535.905" type="curve" smooth="yes"/>
      <point x="644.5350000000001" y="750.375" type="line" smooth="yes"/>
      <point x="644.5350000000001" y="953.055"/>
      <point x="554.265" y="1069.8300000000002"/>
      <point x="356.455" y="1069.8300000000002" type="curve" smooth="yes"/>
      <point x="190.02499999999998" y="1069.8300000000002" type="line"/>
      <point x="190.02499999999998" y="942.2" type="line"/>
      <point x="350.53000000000003" y="942.2" type="line" smooth="yes"/>
      <point x="453.90500000000003" y="942.2"/>
      <point x="497.205" y="873.395"/>
      <point x="497.205" y="746.8050000000001" type="curve" smooth="yes"/>
      <point x="497.205" y="538.69" type="line" smooth="yes"/>
      <point x="497.205" y="411.1"/>
      <point x="453.905" y="342.08"/>
      <point x="349.315" y="342.08" type="curve" smooth="yes"/>
      <point x="186.16500000000002" y="342.08" type="line"/>
    </contour>
    <contour>
      <point x="102.94500000000001" y="0.0" type="line"/>
      <point x="249.48999999999998" y="0.0" type="line"/>
      <point x="249.48999999999998" y="256.925" type="line"/>
      <point x="248.70499999999998" y="295.185" type="line"/>
      <point x="248.70499999999998" y="986.6" type="line"/>
      <point x="249.48999999999998" y="1050.625" type="line"/>
      <point x="249.48999999999998" y="1278.0" type="line"/>
      <point x="102.94500000000001" y="1278.0" type="line"/>
    </contour>
  </outline>
</glyph>
<glyph name="germandbls" format="2">
  <advance width="802.3199999999999"/>
  <unicode hex="00DF"/>
  <anchor x="383.65999999999997" y="0.0" name="bottom"/>
  <anchor x="383.65999999999997" y="996.28" name="top"/>
  <outline>
    <contour>
      <point x="92.72999999999999" y="1052.825" type="curve" smooth="yes"/>
      <point x="92.72999999999999" y="0.0" type="line"/>
      <point x="233.35" y="0.0" type="line"/>
      <point x="233.35" y="1045.545" type="line" smooth="yes"/>
      <point x="233.35" y="1170.2749999999999"/>
      <point x="274.285" y="1233.575"/>
      <point x="386.315" y="1233.575" type="curve" smooth="yes"/>
      <point x="498.06499999999994" y="1233.575"/>
      <point x="532.495" y="1174.6950000000002"/>
      <point x="532.495" y="1104.18" type="curve" smooth="yes"/>
      <point x="532.495" y="974.645"/>
      <point x="347.605" y="892.795"/>
      <point x="347.605" y="710.635" type="curve" smooth="yes"/>
      <point x="347.605" y="702.635" type="line" smooth="yes"/>
      <point x="347.605" y="588.5699999999999"/>
      <point x="386.17499999999995" y="539.925"/>
      <point x="493.82" y="464.72" type="curve" smooth="yes"/>
      <point x="595.765" y="394.505"/>
      <point x="605.4" y="343.27"/>
      <point x="605.4" y="271.54" type="curve" smooth="yes"/>
      <point x="605.4" y="245.02499999999998" type="line" smooth="yes"/>
      <point x="605.4" y="164.07"/>
      <point x="568.39" y="113.845"/>
      <point x="488.165" y="113.845" type="curve" smooth="yes"/>
      <point x="436.595" y="113.845"/>
      <point x="390.66999999999996" y="133.63"/>
      <point x="346.885" y="161.49" type="curve"/>
      <point x="356.59499999999997" y="24.075" type="line"/>
      <point x="391.445" y="4.859999999999999"/>
      <point x="440.80000000000007" y="-15.355"/>
      <point x="513.855" y="-15.355" type="curve" smooth="yes"/>
      <point x="659.8249999999999" y="-15.355"/>
      <point x="746.805" y="76.91499999999999"/>
      <point x="746.805" y="239.53" type="curve" smooth="yes"/>
      <point x="746.805" y="272.755" type="line" smooth="yes"/>
      <point x="746.805" y="403.465"/>
      <point x="708.03" y="468.755"/>
      <point x="604.02" y="542.4649999999999" type="curve" smooth="yes"/>
      <point x="522.72" y="599.6800000000001"/>
      <point x="488.01000000000005" y="635.185"/>
      <point x="488.01000000000005" y="708.7" type="curve" smooth="yes"/>
      <point x="488.01000000000005" y="718.485" type="line" smooth="yes"/>
      <point x="488.01000000000005" y="852.245"/>
      <point x="676.2550000000001" y="932.245"/>
      <point x="676.2550000000001" y="1112.815" type="curve"/>
      <point x="676.2550000000001" y="1255.215"/>
      <point x="589.64" y="1352.1399999999999"/>
      <point x="389.45500000000004" y="1352.1399999999999" type="curve" smooth="yes"/>
      <point x="182.14" y="1352.1399999999999"/>
      <point x="92.72999999999999" y="1252.365"/>
    </contour>
  </outline>
</glyph>
<glyph name="ae" format="2">
  <advance width="1009.095"/>
  <unicode hex="00E6"/>
  <anchor x="501.01500000000004" y="0.0" name="bottom"/>
  <anchor x="501.01500000000004" y="996.28" name="top"/>
  <outline>
    <contour>
      <point x="724.555" y="-13.785" type="curve" smooth="yes"/>
      <point x="808.1149999999999" y="-13.785"/>
      <point x="879.245" y="11.290000000000001"/>
      <point x="928.235" y="42.71999999999999" type="curve"/>
      <point x="938.7299999999999" y="173.07" type="line"/>
      <point x="886.235" y="138.565"/>
      <point x="824.17" y="113.06"/>
      <point x="752.46" y="113.06" type="curve" smooth="yes"/>
      <point x="633.9649999999999" y="113.06"/>
      <point x="570.32" y="175.93"/>
      <point x="570.32" y="310.09000000000003" type="curve" smooth="yes"/>
      <point x="570.32" y="469.0" type="line"/>
      <point x="570.32" y="494.915" type="line"/>
      <point x="570.32" y="716.8149999999999" type="line" smooth="yes"/>
      <point x="570.32" y="834.695"/>
      <point x="605.835" y="892.2850000000001"/>
      <point x="690.285" y="892.2850000000001" type="curve" smooth="yes"/>
      <point x="773.38" y="892.2850000000001"/>
      <point x="810.2499999999999" y="834.6949999999999"/>
      <point x="810.2499999999999" y="716.8149999999999" type="curve" smooth="yes"/>
      <point x="810.2499999999999" y="635.085"/>
      <point x="810.2500000000001" y="544.59"/>
      <point x="810.2499999999999" y="426.245" type="curve"/>
      <point x="940.59" y="426.245" type="line"/>
      <point x="947.7299999999999" y="483.245"/>
      <point x="949.3" y="533.095"/>
      <point x="949.3" y="587.0200000000001" type="curve" smooth="yes"/>
      <point x="949.3" y="701.1149999999999" type="line" smooth="yes"/>
      <point x="949.3" y="901.4399999999999"/>
      <point x="869.955" y="1012.4200000000001"/>
      <point x="706.2" y="1012.4200000000001" type="curve" smooth="yes"/>
      <point x="595.425" y="1012.4200000000001"/>
      <point x="524.005" y="956.99"/>
      <point x="495.93999999999994" y="853.56" type="curve"/>
      <point x="491.735" y="853.56" type="line"/>
      <point x="464.88500000000005" y="957.4200000000001"/>
      <point x="404.17500000000007" y="1011.635"/>
      <point x="295.97" y="1011.635" type="curve" smooth="yes"/>
      <point x="215.69" y="1011.635"/>
      <point x="137.345" y="978.42"/>
      <point x="86.63499999999999" y="940.99" type="curve"/>
      <point x="76.14" y="809.2850000000001" type="line"/>
      <point x="136.28" y="849.4350000000001"/>
      <point x="210.915" y="884.79"/>
      <point x="285.76500000000004" y="884.79" type="curve" smooth="yes"/>
      <point x="384.27000000000004" y="884.79"/>
      <point x="427.345" y="824.7800000000001"/>
      <point x="427.345" y="696.6949999999999" type="curve"/>
      <point x="427.345" y="556.5350000000001" type="line"/>
      <point x="427.34499999999997" y="433.835"/>
      <point x="427.345" y="335.47"/>
      <point x="429.70000000000005" y="220.61999999999998" type="curve"/>
      <point x="440.68999999999994" y="213.32" type="line"/>
      <point x="468.95000000000005" y="65.08500000000001"/>
      <point x="566.3599999999999" y="-13.785"/>
    </contour>
    <contour>
      <point x="254.77500000000003" y="-13.785" type="curve" smooth="yes"/>
      <point x="373.625" y="-13.785"/>
      <point x="427.19500000000005" y="52.73"/>
      <point x="452.68999999999994" y="153.88" type="curve"/>
      <point x="472.89500000000004" y="153.88" type="line"/>
      <point x="434.84" y="246.98000000000002" type="line"/>
      <point x="417.98" y="166.23"/>
      <point x="377.40000000000003" y="107.91999999999999"/>
      <point x="302.95" y="107.91999999999999" type="curve" smooth="yes"/>
      <point x="223.64" y="107.91999999999999"/>
      <point x="195.2" y="165.865"/>
      <point x="195.2" y="267.895" type="curve" smooth="yes"/>
      <point x="195.2" y="315.99" type="line" smooth="yes"/>
      <point x="195.2" y="403.87"/>
      <point x="226.705" y="449.88"/>
      <point x="311.52" y="476.535" type="curve" smooth="yes"/>
      <point x="462.0450000000001" y="524.1899999999999" type="line"/>
      <point x="447.27000000000004" y="640.0450000000001" type="line"/>
      <point x="275.83000000000004" y="586.8199999999999" type="line" smooth="yes"/>
      <point x="114.20500000000001" y="536.82"/>
      <point x="52.225" y="462.325"/>
      <point x="52.225" y="308.925" type="curve" smooth="yes"/>
      <point x="52.225" y="246.27" type="line" smooth="yes"/>
      <point x="52.225" y="77.495"/>
      <point x="112.72" y="-13.785"/>
    </contour>
    <contour>
      <point x="507.93" y="426.245" type="line"/>
      <point x="899.115" y="426.245" type="line"/>
      <point x="899.115" y="541.6700000000001" type="line"/>
      <point x="507.93" y="541.6700000000001" type="line"/>
    </contour>
  </outline>
</glyph>
<glyph name="eth" format="2">
  <advance width="683.91"/>
  <unicode hex="00F0"/>
  <outline>
    <contour>
      <point x="343.81000000000006" y="-16.14" type="curve" smooth="yes"/>
      <point x="519.845" y="-16.14"/>
      <point x="610.61" y="94.27"/>
      <point x="610.61" y="299.38" type="curve"/>
      <point x="610.61" y="658.385" type="line"/>
      <point x="610.61" y="909.87"/>
      <point x="534.0400000000001" y="1033.01"/>
      <point x="308.04" y="1330.075" type="curve"/>
      <point x="151.21499999999997" y="1330.075" type="line"/>
      <point x="151.21499999999997" y="1330.075" type="line"/>
      <point x="388.775" y="1018.815"/>
      <point x="464.12000000000006" y="909.5999999999999"/>
      <point x="474.27000000000004" y="737.17" type="curve"/>
      <point x="472.70000000000005" y="723.815"/>
      <point x="470.56000000000006" y="711.03"/>
      <point x="468.99000000000007" y="697.675" type="curve"/>
      <point x="468.99000000000007" y="561.3649999999999"/>
      <point x="468.99000000000007" y="424.84"/>
      <point x="468.99000000000007" y="288.53000000000003" type="curve" smooth="yes"/>
      <point x="468.99000000000007" y="166.51"/>
      <point x="430.475" y="103.995"/>
      <point x="343.81000000000006" y="103.995" type="curve" smooth="yes"/>
      <point x="256.14500000000004" y="103.995"/>
      <point x="217.845" y="166.51"/>
      <point x="217.845" y="288.53000000000003" type="curve" smooth="yes"/>
      <point x="217.845" y="607.61" type="line" smooth="yes"/>
      <point x="217.845" y="732.78"/>
      <point x="253.71500000000003" y="796.5849999999999"/>
      <point x="338.52" y="796.5849999999999" type="curve" smooth="yes"/>
      <point x="423.615" y="796.5849999999999"/>
      <point x="465.345" y="729.5649999999999"/>
      <point x="468.99000000000007" y="620.04" type="curve"/>
      <point x="499.62500000000006" y="760.575" type="line"/>
      <point x="464.645" y="764.015" type="line"/>
      <point x="440.235" y="857.9699999999999"/>
      <point x="391.44" y="915.15"/>
      <point x="292.205" y="915.15" type="curve" smooth="yes"/>
      <point x="139.01000000000002" y="915.15"/>
      <point x="73.3" y="801.88"/>
      <point x="73.3" y="593.4799999999999" type="curve" smooth="yes"/>
      <point x="73.3" y="299.38000000000005" type="line" smooth="yes"/>
      <point x="73.3" y="94.27000000000001"/>
      <point x="164.63500000000002" y="-16.14"/>
    </contour>
    <contour>
      <point x="143.925" y="998.03" type="line"/>
      <point x="594.8249999999999" y="1163.5449999999998" type="line"/>
      <point x="594.8249999999999" y="1263.56" type="line"/>
      <point x="143.925" y="1097.045" type="line"/>
    </contour>
  </outline>
</glyph>
